<svg width="293" height="32" viewBox="0 0 293 32" fill="none" xmlns="http://www.w3.org/2000/svg">
<path d="M9.54274 23.9264C7.85251 23.9264 6.31706 23.5611 4.9364 22.8305C3.55573 22.1 2.45986 21.066 1.6488 19.7287C0.837738 18.3914 0.435303 16.825 0.435303 15.0171C0.435303 13.2092 0.837738 11.7109 1.6488 10.3736C2.45986 9.03628 3.55573 7.98995 4.9364 7.2408C6.31706 6.48546 7.85251 6.10779 9.54274 6.10779C11.072 6.10779 12.3722 6.33687 13.4495 6.79503C14.5206 7.25318 15.3935 7.8847 16.056 8.69576C16.7185 9.50682 17.2014 10.4479 17.511 11.5252C17.8205 12.5963 17.9753 13.7665 17.9753 15.0233C17.9753 16.0263 17.8143 17.054 17.4924 18.1066C17.1704 19.1591 16.6813 20.1249 16.0189 21.0041C15.3564 21.8833 14.4896 22.5953 13.4123 23.1277C12.3412 23.6664 11.0472 23.9326 9.54274 23.9326V23.9264ZM10.9791 20.4655C12.3288 20.4655 13.4928 20.2364 14.4772 19.7782C15.4616 19.3201 16.2108 18.6886 16.737 17.8775C17.2633 17.0664 17.5233 16.113 17.5233 15.0171C17.5233 13.8531 17.2571 12.8625 16.7185 12.0515C16.1798 11.2404 15.4245 10.6151 14.4586 10.1817C13.4866 9.74828 12.3288 9.53159 10.9791 9.53159C9.08458 9.53159 7.61104 10.0331 6.55852 11.0423C5.50599 12.0453 4.97974 13.3702 4.97974 15.0171C4.97974 16.113 5.23358 17.0664 5.73507 17.8775C6.23657 18.6886 6.94238 19.3201 7.84012 19.7782C8.74406 20.2364 9.79039 20.4655 10.9729 20.4655H10.9791ZM21.9811 6.47927V30.3654H17.5233V10.6956L17.6596 6.47927H21.9749H21.9811Z" fill="white"/>
<path d="M42.2639 15.3205L42.3011 16.4844C42.2577 16.8064 42.1401 17.2645 41.9605 17.8713C41.7748 18.478 41.4962 19.1219 41.1185 19.8092C40.7408 20.4964 40.2579 21.1527 39.6636 21.778C39.0692 22.4033 38.3386 22.9234 37.4718 23.3196C36.605 23.7221 35.5773 23.9202 34.3886 23.9202C33.4537 23.9202 32.5312 23.8026 31.6272 23.5797C30.7233 23.3506 29.906 22.9667 29.1755 22.4343C28.4449 21.8956 27.8629 21.1713 27.4295 20.2611C26.9961 19.3448 26.7794 18.1932 26.7794 16.8002V6.47925H31.231V16.0386C31.231 17.1345 31.4105 17.9951 31.7634 18.6266C32.1163 19.2581 32.6364 19.6977 33.3236 19.9454C34.0109 20.1992 34.8219 20.323 35.7568 20.323C36.9889 20.323 38.0538 20.0568 38.9454 19.5182C39.8369 18.9795 40.5613 18.3232 41.1185 17.5493C41.6757 16.7754 42.0596 16.0325 42.2639 15.3205ZM46.4802 23.5116H42.0225V6.47925H46.4802V23.5116Z" fill="white"/>
<path d="M66.0447 17.8589H70.36C70.1743 19.0229 69.6914 20.063 68.9051 20.9793C68.1188 21.8956 67.0477 22.6138 65.7042 23.1401C64.3544 23.6664 62.7137 23.9264 60.7697 23.9264C58.5965 23.9264 56.6772 23.5797 55.0117 22.8801C53.3463 22.1866 52.0399 21.1713 51.105 19.8463C50.1701 18.5214 49.6996 16.924 49.6996 15.048C49.6996 13.1721 50.1577 11.5685 51.0679 10.2312C51.9842 8.89388 53.2534 7.87231 54.8879 7.1665C56.5224 6.46069 58.4355 6.10159 60.6273 6.10159C62.819 6.10159 64.7259 6.4545 66.2118 7.1665C67.6978 7.87231 68.7998 8.94341 69.518 10.3674C70.2362 11.7976 70.5396 13.6179 70.4281 15.8343H54.1883C54.2997 16.7011 54.6279 17.4936 55.1665 18.1994C55.7052 18.9052 56.4357 19.4687 57.3582 19.8773C58.2808 20.2859 59.3828 20.4964 60.6644 20.4964C62.0822 20.4964 63.2648 20.2488 64.212 19.7596C65.1593 19.2705 65.7722 18.6328 66.0447 17.8589ZM60.4291 9.49443C58.7823 9.49443 57.4511 9.85353 56.4234 10.5717C55.3956 11.2899 54.7331 12.1753 54.4359 13.2278H66.0199C65.9023 12.0886 65.3636 11.1785 64.3916 10.5036C63.4195 9.82876 62.1008 9.49443 60.4353 9.49443H60.4291ZM55.2842 3.82938V1.05566H65.8032V3.82938H55.2842Z" fill="white"/>
<path d="M82.0121 6.47923H86.4636V23.5116H82.0121V6.47923ZM94.3824 6.10775C95.4349 6.10775 96.4069 6.24396 97.2923 6.51638C98.1776 6.7888 98.9577 7.216 99.6202 7.7856C100.283 8.3552 100.797 9.07959 101.162 9.95876C101.527 10.8379 101.707 11.8843 101.707 13.0916V23.5116H97.2551V13.8841C97.2551 12.4477 96.9084 11.389 96.2088 10.7141C95.5092 10.0392 94.3762 9.70491 92.7974 9.70491C91.6086 9.70491 90.5375 9.93399 89.5779 10.3921C88.6182 10.8503 87.8443 11.4261 87.2499 12.1195C86.6556 12.8191 86.3151 13.5435 86.2222 14.2927L86.185 12.5467C86.2965 11.748 86.5627 10.9679 86.9713 10.2188C87.38 9.46964 87.9372 8.77621 88.6306 8.1447C89.3302 7.51937 90.1537 7.01788 91.1133 6.65259C92.073 6.2873 93.1565 6.10156 94.37 6.10156L94.3824 6.10775ZM109.223 6.10775C110.275 6.10775 111.241 6.24396 112.133 6.51638C113.024 6.7888 113.798 7.216 114.461 7.7856C115.123 8.3552 115.643 9.07959 116.021 9.95876C116.399 10.8379 116.584 11.8843 116.584 13.0916V23.5116H112.127V13.8841C112.127 12.4477 111.774 11.389 111.062 10.7141C110.356 10.0392 109.211 9.70491 107.638 9.70491C106.449 9.70491 105.378 9.93399 104.418 10.3921C103.459 10.8503 102.685 11.4261 102.091 12.1195C101.496 12.8191 101.168 13.5435 101.094 14.2927L101.026 12.4415C101.137 11.6861 101.416 10.937 101.849 10.1816C102.282 9.4263 102.852 8.74526 103.564 8.12612C104.276 7.50699 105.1 7.01788 106.047 6.65259C106.994 6.2873 108.053 6.10156 109.217 6.10156L109.223 6.10775Z" fill="white"/>
<path d="M136.155 17.8589H140.471C140.285 19.0228 139.802 20.063 139.016 20.9793C138.229 21.8956 137.158 22.6138 135.815 23.1401C134.465 23.6663 132.824 23.9264 130.88 23.9264C128.707 23.9264 126.788 23.5797 125.122 22.88C123.457 22.1866 122.151 21.1712 121.216 19.8463C120.281 18.5214 119.81 16.924 119.81 15.048C119.81 13.1721 120.268 11.5685 121.178 10.2312C122.095 8.89385 123.364 7.87228 124.999 7.16647C126.633 6.46066 128.546 6.10156 130.738 6.10156C132.93 6.10156 134.837 6.45447 136.322 7.16647C137.808 7.87228 138.91 8.94338 139.629 10.3674C140.347 11.7976 140.65 13.6178 140.539 15.8343H124.299C124.41 16.7011 124.738 17.4936 125.277 18.1994C125.816 18.9052 126.546 19.4686 127.469 19.8773C128.391 20.2859 129.493 20.4964 130.775 20.4964C132.193 20.4964 133.375 20.2487 134.323 19.7596C135.27 19.2705 135.883 18.6328 136.155 17.8589ZM130.534 9.49441C128.887 9.49441 127.549 9.8535 126.522 10.5717C125.494 11.2899 124.831 12.1752 124.534 13.2278H136.118C136 12.0886 135.462 11.1784 134.49 10.5036C133.518 9.82874 132.199 9.49441 130.534 9.49441Z" fill="white"/>
<path d="M156.277 7.28621H160.524L160.729 11.8121V31.1723H156.271V7.28621H156.277ZM168.684 24.7272C167.174 24.7272 165.892 24.4609 164.827 23.9223C163.762 23.3836 162.902 22.6778 162.239 21.7987C161.577 20.9195 161.088 19.9537 160.766 18.9011C160.444 17.8486 160.283 16.8208 160.283 15.8178C160.283 14.561 160.438 13.397 160.747 12.3198C161.057 11.2487 161.54 10.3014 162.202 9.49032C162.865 8.67925 163.725 8.04774 164.79 7.58958C165.855 7.13142 167.149 6.90234 168.678 6.90234C170.393 6.90234 171.935 7.28002 173.303 8.03536C174.671 8.7907 175.761 9.83703 176.578 11.1682C177.389 12.5055 177.792 14.0533 177.792 15.8117C177.792 17.57 177.383 19.1859 176.56 20.5233C175.736 21.8606 174.641 22.8945 173.272 23.6251C171.904 24.3557 170.369 24.721 168.678 24.721L168.684 24.7272ZM167.242 21.2662C168.455 21.2662 169.508 21.0371 170.412 20.579C171.316 20.1208 172.009 19.4893 172.505 18.6782C172.994 17.8672 173.241 16.9137 173.241 15.8178C173.241 14.171 172.721 12.846 171.681 11.843C170.641 10.84 169.161 10.3323 167.242 10.3323C166.028 10.3323 164.926 10.549 163.936 10.9824C162.939 11.4158 162.159 12.0411 161.589 12.8522C161.02 13.6633 160.735 14.6539 160.735 15.8178C160.735 16.9137 160.995 17.8672 161.521 18.6782C162.047 19.4893 162.803 20.1208 163.781 20.579C164.765 21.0371 165.917 21.2662 167.242 21.2662Z" fill="white"/>
<path d="M191.128 24.7272C188.98 24.7272 187.091 24.3867 185.457 23.6994C183.822 23.0122 182.547 22.0154 181.637 20.7028C180.72 19.3903 180.268 17.7743 180.268 15.855C180.268 13.9357 180.727 12.3074 181.637 10.9701C182.547 9.63275 183.822 8.62357 185.457 7.93633C187.091 7.24909 188.98 6.90857 191.128 6.90857C193.276 6.90857 195.152 7.24909 196.762 7.93633C198.372 8.62357 199.635 9.63275 200.551 10.9701C201.468 12.3074 201.919 13.9357 201.919 15.855C201.919 17.7743 201.461 19.3903 200.551 20.7028C199.635 22.0154 198.378 23.0184 196.762 23.6994C195.146 24.3805 193.27 24.7272 191.128 24.7272ZM191.128 21.3034C192.317 21.3034 193.382 21.0929 194.329 20.6719C195.276 20.2509 196.025 19.6317 196.576 18.8207C197.127 18.0096 197.4 17.019 197.4 15.855C197.4 14.6911 197.127 13.6881 196.576 12.8584C196.025 12.0226 195.282 11.3911 194.347 10.9577C193.413 10.5243 192.335 10.3076 191.128 10.3076C189.921 10.3076 188.868 10.5243 187.909 10.9577C186.949 11.3911 186.187 12.0226 185.63 12.8399C185.073 13.6633 184.788 14.6663 184.788 15.855C184.788 17.0438 185.061 18.0096 185.612 18.8207C186.156 19.6317 186.912 20.2509 187.871 20.6719C188.831 21.0929 189.915 21.3034 191.128 21.3034Z" fill="white"/>
<path d="M205.213 7.28621H209.665V24.3185H205.213V7.28621ZM217.583 6.90854C218.636 6.90854 219.608 7.04475 220.493 7.31716C221.385 7.58958 222.159 8.01678 222.821 8.58638C223.484 9.15599 223.998 9.88037 224.363 10.7595C224.728 11.6387 224.914 12.685 224.914 13.8923V24.3123H220.456V14.6848C220.456 13.2484 220.109 12.1897 219.41 11.5149C218.71 10.84 217.577 10.5057 215.998 10.5057C214.81 10.5057 213.739 10.7348 212.779 11.1929C211.819 11.6511 211.045 12.2269 210.451 12.9203C209.857 13.6199 209.516 14.3443 209.423 15.0935L209.386 13.3475C209.498 12.5488 209.764 11.7687 210.172 11.0196C210.581 10.2642 211.138 9.577 211.832 8.94548C212.531 8.32016 213.355 7.81866 214.314 7.45337C215.274 7.08809 216.358 6.90234 217.571 6.90234L217.583 6.90854Z" fill="white"/>
<path d="M237.458 21.712C235.606 21.712 233.978 21.4334 232.573 20.87C231.167 20.3128 230.078 19.4831 229.298 18.3873C228.517 17.2914 228.134 15.9665 228.134 14.4125C228.134 12.8584 228.511 11.5583 229.267 10.4376C230.022 9.31699 231.099 8.45021 232.505 7.83107C233.91 7.21194 235.563 6.90857 237.458 6.90857C237.984 6.90857 238.492 6.94572 238.981 7.01382C239.47 7.08193 239.959 7.1748 240.436 7.28624L249.035 7.32339V10.6791C247.871 10.7038 246.689 10.5614 245.488 10.2519C244.287 9.94232 243.234 9.60799 242.318 9.2427L242.213 9.00124C242.987 9.36652 243.723 9.81849 244.404 10.3571C245.092 10.8958 245.643 11.5087 246.064 12.2083C246.485 12.908 246.695 13.7128 246.695 14.623C246.695 16.1089 246.317 17.3843 245.562 18.443C244.807 19.5079 243.742 20.319 242.361 20.8762C240.981 21.4334 239.34 21.7182 237.445 21.7182L237.458 21.712ZM243.178 31.3395V30.5161C243.178 29.4636 242.844 28.733 242.169 28.3243C241.494 27.9157 240.578 27.7052 239.408 27.7052H234.096C233.068 27.7052 232.207 27.6247 231.508 27.4638C230.808 27.3028 230.257 27.0737 229.849 26.7765C229.44 26.4793 229.143 26.1326 228.957 25.7302C228.777 25.3278 228.685 24.9005 228.685 24.4424C228.685 23.5261 228.982 22.8388 229.576 22.3683C230.17 21.8978 230.969 21.5882 231.972 21.4272C232.975 21.2662 234.083 21.2353 235.297 21.322L237.458 21.6996C236.021 21.743 234.95 21.8668 234.257 22.0587C233.557 22.2507 233.21 22.6345 233.21 23.2041C233.21 23.5447 233.347 23.8171 233.619 24.009C233.891 24.2009 234.282 24.3 234.783 24.3H240.368C241.897 24.3 243.203 24.4672 244.293 24.7953C245.376 25.1234 246.206 25.6868 246.776 26.4731C247.345 27.2594 247.63 28.3429 247.63 29.7112V31.321H243.172L243.178 31.3395ZM237.458 18.4925C238.442 18.4925 239.303 18.3316 240.046 18.0158C240.789 17.6939 241.364 17.2357 241.773 16.6289C242.182 16.0222 242.392 15.2978 242.392 14.4558C242.392 13.6138 242.188 12.846 241.773 12.2269C241.358 11.6078 240.789 11.1372 240.058 10.8029C239.327 10.4748 238.461 10.3076 237.451 10.3076C236.442 10.3076 235.6 10.4748 234.845 10.8029C234.09 11.1372 233.508 11.6078 233.099 12.2269C232.69 12.846 232.48 13.589 232.48 14.4558C232.48 15.3226 232.684 16.0284 233.099 16.6289C233.508 17.2357 234.09 17.7 234.826 18.0158C235.569 18.3378 236.442 18.4925 237.445 18.4925H237.458Z" fill="white"/>
<path d="M261.684 24.7272C259.536 24.7272 257.648 24.3867 256.013 23.6994C254.379 23.0122 253.103 22.0154 252.193 20.7028C251.277 19.3903 250.825 17.7743 250.825 15.855C250.825 13.9357 251.283 12.3074 252.193 10.9701C253.109 9.63275 254.379 8.62357 256.013 7.93633C257.648 7.24909 259.536 6.90857 261.684 6.90857C263.833 6.90857 265.709 7.24909 267.318 7.93633C268.928 8.62357 270.191 9.63275 271.107 10.9701C272.018 12.3074 272.476 13.9357 272.476 15.855C272.476 17.7743 272.018 19.3903 271.107 20.7028C270.191 22.0154 268.934 23.0184 267.318 23.6994C265.702 24.3805 263.826 24.7272 261.684 24.7272ZM261.684 21.3034C262.873 21.3034 263.938 21.0929 264.885 20.6719C265.832 20.2509 266.582 19.6317 267.133 18.8207C267.684 18.0096 267.956 17.019 267.956 15.855C267.956 14.6911 267.684 13.6881 267.133 12.8584C266.582 12.0226 265.839 11.3911 264.904 10.9577C263.969 10.5243 262.892 10.3076 261.684 10.3076C260.477 10.3076 259.424 10.5243 258.465 10.9577C257.505 11.3911 256.744 12.0226 256.186 12.8399C255.629 13.6633 255.344 14.6663 255.344 15.855C255.344 17.0438 255.617 18.0096 256.168 18.8207C256.719 19.6317 257.468 20.2509 258.428 20.6719C259.387 21.0929 260.471 21.3034 261.684 21.3034Z" fill="white"/>
<path d="M281.007 17.4276V11.7377H283.032C284.883 11.7377 286.239 11.3972 287.112 10.71C287.979 10.0228 288.412 9.05071 288.412 7.80007C288.412 6.54942 288.004 5.58358 287.18 4.9211C286.357 4.25863 285.261 3.93049 283.893 3.93049C282.908 3.93049 282.091 4.08528 281.441 4.39484C280.791 4.70441 280.295 5.11304 279.967 5.62692C279.639 6.14079 279.46 6.71659 279.435 7.35429H275.014C274.989 6.69182 275.089 6.01697 275.305 5.32973C275.522 4.6425 275.856 3.98002 276.314 3.34232C276.773 2.70461 277.355 2.12882 278.06 1.62732C278.766 1.12583 279.621 0.729579 280.611 0.444778C281.608 0.159978 282.729 0.0175781 283.985 0.0175781C285.515 0.0175781 286.846 0.209508 287.979 0.599561C289.112 0.989615 290.047 1.52207 290.79 2.20931C291.533 2.89654 292.084 3.70141 292.449 4.62392C292.814 5.54643 293 6.5618 293 7.65767C293 9.16835 292.659 10.4376 291.972 11.4777C291.285 12.5179 290.369 13.3165 289.211 13.8738C288.059 14.431 286.772 14.7591 285.354 14.852V17.4214H281.001L281.007 17.4276ZM280.704 24.3185V20.4118H285.88V24.3185H280.704Z" fill="white"/>
</svg>
