<svg width="343" height="42" viewBox="0 0 343 42" fill="none" xmlns="http://www.w3.org/2000/svg">
<path d="M59.5427 28.8226C57.8525 28.8226 56.3171 28.4574 54.9364 27.7268C53.5557 26.9962 52.4599 25.9623 51.6488 24.6249C50.8377 23.2876 50.4353 21.7212 50.4353 19.9133C50.4353 18.1055 50.8377 16.6072 51.6488 15.2698C52.4599 13.9325 53.5557 12.8862 54.9364 12.137C56.3171 11.3817 57.8525 11.004 59.5427 11.004C61.072 11.004 62.3722 11.2331 63.4495 11.6913C64.5206 12.1494 65.3935 12.7809 66.056 13.592C66.7185 14.4031 67.2014 15.3441 67.511 16.4214C67.8205 17.4925 67.9753 18.6627 67.9753 19.9195C67.9753 20.9225 67.8143 21.9503 67.4924 23.0028C67.1704 24.0553 66.6813 25.0212 66.0189 25.9003C65.3564 26.7795 64.4896 27.4915 63.4123 28.024C62.3412 28.5626 61.0472 28.8288 59.5427 28.8288V28.8226ZM60.9791 25.3617C62.3288 25.3617 63.4928 25.1326 64.4772 24.6745C65.4616 24.2163 66.2108 23.5848 66.737 22.7737C67.2633 21.9627 67.5233 21.0092 67.5233 19.9133C67.5233 18.7494 67.2571 17.7588 66.7185 16.9477C66.1798 16.1366 65.4245 15.5113 64.4586 15.0779C63.4866 14.6445 62.3288 14.4278 60.9791 14.4278C59.0846 14.4278 57.611 14.9293 56.5585 15.9385C55.506 16.9415 54.9797 18.2664 54.9797 19.9133C54.9797 21.0092 55.2336 21.9627 55.7351 22.7737C56.2366 23.5848 56.9424 24.2163 57.8401 24.6745C58.7441 25.1326 59.7904 25.3617 60.9729 25.3617H60.9791ZM71.9811 11.3755V35.2616H67.5233V15.5918L67.6596 11.3755H71.9749H71.9811Z" fill="white"/>
<path d="M92.2639 20.2167L92.301 21.3807C92.2577 21.7026 92.14 22.1608 91.9605 22.7675C91.7747 23.3743 91.4961 24.0182 91.1185 24.7054C90.7408 25.3926 90.2579 26.0489 89.6635 26.6742C89.0691 27.2996 88.3386 27.8196 87.4718 28.2159C86.605 28.6183 85.5772 28.8164 84.3885 28.8164C83.4536 28.8164 82.5311 28.6988 81.6272 28.4759C80.7232 28.2468 79.906 27.863 79.1754 27.3305C78.4448 26.7919 77.8628 26.0675 77.4294 25.1574C76.9961 24.2411 76.7794 23.0895 76.7794 21.6964V11.3755H81.2309V20.9349C81.2309 22.0308 81.4105 22.8913 81.7634 23.5229C82.1163 24.1544 82.6364 24.594 83.3236 24.8416C84.0108 25.0955 84.8219 25.2193 85.7568 25.2193C86.9888 25.2193 88.0538 24.9531 88.9453 24.4144C89.8369 23.8758 90.5612 23.2195 91.1185 22.4456C91.6757 21.6717 92.0595 20.9287 92.2639 20.2167ZM96.4801 28.4078H92.0224V11.3755H96.4801V28.4078Z" fill="white"/>
<path d="M116.045 22.7551H120.36C120.174 23.9191 119.691 24.9593 118.905 25.8756C118.119 26.7919 117.048 27.5101 115.704 28.0363C114.354 28.5626 112.714 28.8226 110.77 28.8226C108.597 28.8226 106.677 28.4759 105.012 27.7763C103.346 27.0829 102.04 26.0675 101.105 24.7426C100.17 23.4176 99.6996 21.8203 99.6996 19.9443C99.6996 18.0683 100.158 16.4648 101.068 15.1274C101.984 13.7901 103.253 12.7685 104.888 12.0627C106.522 11.3569 108.436 10.9978 110.627 10.9978C112.819 10.9978 114.726 11.3507 116.212 12.0627C117.698 12.7685 118.8 13.8396 119.518 15.2636C120.236 16.6938 120.54 18.5141 120.428 20.7306H104.188C104.3 21.5974 104.628 22.3899 105.167 23.0957C105.705 23.8015 106.436 24.3649 107.358 24.7735C108.281 25.1821 109.383 25.3927 110.664 25.3927C112.082 25.3927 113.265 25.145 114.212 24.6559C115.159 24.1668 115.772 23.5291 116.045 22.7551ZM110.429 14.3907C108.782 14.3907 107.451 14.7498 106.423 15.468C105.396 16.1862 104.733 17.0715 104.436 18.124H116.02C115.902 16.9848 115.364 16.0747 114.392 15.3999C113.42 14.725 112.101 14.3907 110.435 14.3907H110.429ZM105.284 8.72562V5.9519H115.803V8.72562H105.284Z" fill="white"/>
<path d="M132.012 11.3755H136.464V28.4079H132.012V11.3755ZM144.382 11.0041C145.435 11.0041 146.407 11.1403 147.292 11.4127C148.178 11.6851 148.958 12.1123 149.62 12.6819C150.283 13.2515 150.797 13.9759 151.162 14.8551C151.527 15.7342 151.707 16.7806 151.707 17.9879V28.4079H147.255V18.7804C147.255 17.344 146.908 16.2853 146.209 15.6104C145.509 14.9355 144.376 14.6012 142.797 14.6012C141.609 14.6012 140.538 14.8303 139.578 15.2884C138.618 15.7466 137.844 16.3224 137.25 17.0158C136.656 17.7154 136.315 18.4398 136.222 19.189L136.185 17.443C136.297 16.6443 136.563 15.8642 136.971 15.1151C137.38 14.3659 137.937 13.6725 138.631 13.041C139.33 12.4157 140.154 11.9142 141.113 11.5489C142.073 11.1836 143.156 10.9979 144.37 10.9979L144.382 11.0041ZM159.223 11.0041C160.276 11.0041 161.241 11.1403 162.133 11.4127C163.024 11.6851 163.798 12.1123 164.461 12.6819C165.123 13.2515 165.643 13.9759 166.021 14.8551C166.399 15.7342 166.584 16.7806 166.584 17.9879V28.4079H162.127V18.7804C162.127 17.344 161.774 16.2853 161.062 15.6104C160.356 14.9355 159.211 14.6012 157.638 14.6012C156.449 14.6012 155.378 14.8303 154.419 15.2884C153.459 15.7466 152.685 16.3224 152.091 17.0158C151.496 17.7154 151.168 18.4398 151.094 19.189L151.026 17.3378C151.137 16.5824 151.416 15.8333 151.849 15.0779C152.283 14.3226 152.852 13.6416 153.564 13.0224C154.276 12.4033 155.1 11.9142 156.047 11.5489C156.994 11.1836 158.053 10.9979 159.217 10.9979L159.223 11.0041Z" fill="white"/>
<path d="M186.155 22.7552H190.471C190.285 23.9192 189.802 24.9593 189.016 25.8756C188.229 26.7919 187.158 27.5101 185.815 28.0364C184.465 28.5626 182.824 28.8227 180.88 28.8227C178.707 28.8227 176.788 28.476 175.122 27.7763C173.457 27.0829 172.151 26.0675 171.216 24.7426C170.281 23.4177 169.81 21.8203 169.81 19.9443C169.81 18.0684 170.268 16.4648 171.178 15.1275C172.095 13.7901 173.364 12.7686 174.999 12.0628C176.633 11.357 178.546 10.9979 180.738 10.9979C182.93 10.9979 184.837 11.3508 186.322 12.0628C187.808 12.7686 188.91 13.8397 189.629 15.2637C190.347 16.6939 190.65 18.5141 190.539 20.7306H174.299C174.41 21.5974 174.738 22.3899 175.277 23.0957C175.816 23.8015 176.546 24.3649 177.469 24.7736C178.391 25.1822 179.493 25.3927 180.775 25.3927C182.193 25.3927 183.375 25.145 184.323 24.6559C185.27 24.1668 185.883 23.5291 186.155 22.7552ZM180.534 14.3907C178.887 14.3907 177.549 14.7498 176.522 15.468C175.494 16.1862 174.831 17.0715 174.534 18.1241H186.118C186 16.9849 185.462 16.0747 184.49 15.3999C183.518 14.725 182.199 14.3907 180.534 14.3907Z" fill="white"/>
<path d="M206.277 12.1824H210.524L210.729 16.7083V36.0685H206.271V12.1824H206.277ZM218.684 29.6234C217.174 29.6234 215.892 29.3571 214.827 28.8185C213.762 28.2798 212.902 27.574 212.239 26.6949C211.577 25.8157 211.088 24.8499 210.766 23.7973C210.444 22.7448 210.283 21.7171 210.283 20.7141C210.283 19.4572 210.438 18.2932 210.747 17.216C211.057 16.1449 211.54 15.1976 212.202 14.3865C212.865 13.5755 213.725 12.9439 214.79 12.4858C215.855 12.0276 217.149 11.7986 218.678 11.7986C220.393 11.7986 221.935 12.1762 223.303 12.9316C224.671 13.6869 225.761 14.7332 226.578 16.0644C227.389 17.4017 227.792 18.9495 227.792 20.7079C227.792 22.4662 227.383 24.0821 226.56 25.4195C225.736 26.7568 224.64 27.7907 223.272 28.5213C221.904 29.2519 220.368 29.6172 218.678 29.6172L218.684 29.6234ZM217.242 26.1624C218.455 26.1624 219.508 25.9333 220.412 25.4752C221.316 25.017 222.009 24.3855 222.504 23.5744C222.994 22.7634 223.241 21.8099 223.241 20.7141C223.241 19.0672 222.721 17.7422 221.681 16.7392C220.641 15.7362 219.161 15.2285 217.242 15.2285C216.028 15.2285 214.926 15.4452 213.936 15.8786C212.939 16.312 212.159 16.9374 211.589 17.7484C211.02 18.5595 210.735 19.5501 210.735 20.7141C210.735 21.8099 210.995 22.7634 211.521 23.5744C212.047 24.3855 212.803 25.017 213.781 25.4752C214.765 25.9333 215.917 26.1624 217.242 26.1624Z" fill="white"/>
<path d="M241.128 29.6234C238.98 29.6234 237.091 29.2829 235.457 28.5956C233.822 27.9084 232.547 26.9116 231.637 25.599C230.72 24.2865 230.268 22.6705 230.268 20.7512C230.268 18.8319 230.727 17.2036 231.637 15.8663C232.547 14.529 233.822 13.5198 235.457 12.8325C237.091 12.1453 238.98 11.8048 241.128 11.8048C243.276 11.8048 245.152 12.1453 246.762 12.8325C248.372 13.5198 249.635 14.529 250.551 15.8663C251.467 17.2036 251.919 18.8319 251.919 20.7512C251.919 22.6705 251.461 24.2865 250.551 25.599C249.635 26.9116 248.378 27.9146 246.762 28.5956C245.146 29.2767 243.27 29.6234 241.128 29.6234ZM241.128 26.1996C242.317 26.1996 243.382 25.9891 244.329 25.5681C245.276 25.1471 246.025 24.5279 246.576 23.7169C247.127 22.9058 247.4 21.9152 247.4 20.7512C247.4 19.5873 247.127 18.5843 246.576 17.7546C246.025 16.9188 245.282 16.2873 244.347 15.8539C243.413 15.4205 242.335 15.2038 241.128 15.2038C239.921 15.2038 238.868 15.4205 237.908 15.8539C236.949 16.2873 236.187 16.9188 235.63 17.7361C235.073 18.5595 234.788 19.5625 234.788 20.7512C234.788 21.94 235.06 22.9058 235.612 23.7169C236.156 24.5279 236.912 25.1471 237.871 25.5681C238.831 25.9891 239.914 26.1996 241.128 26.1996Z" fill="white"/>
<path d="M255.213 12.1824H259.665V29.2147H255.213V12.1824ZM267.583 11.8047C268.636 11.8047 269.608 11.941 270.493 12.2134C271.385 12.4858 272.159 12.913 272.821 13.4826C273.484 14.0522 273.998 14.7766 274.363 15.6557C274.728 16.5349 274.914 17.5812 274.914 18.7886V29.2085H270.456V19.581C270.456 18.1447 270.11 17.0859 269.41 16.4111C268.71 15.7362 267.577 15.4019 265.998 15.4019C264.81 15.4019 263.739 15.631 262.779 16.0891C261.819 16.5473 261.045 17.1231 260.451 17.8165C259.857 18.5161 259.516 19.2405 259.423 19.9897L259.386 18.2437C259.498 17.445 259.764 16.6649 260.172 15.9158C260.581 15.1604 261.138 14.4732 261.832 13.8417C262.531 13.2164 263.355 12.7149 264.314 12.3496C265.274 11.9843 266.358 11.7986 267.571 11.7986L267.583 11.8047Z" fill="white"/>
<path d="M287.458 26.6082C285.606 26.6082 283.978 26.3296 282.573 25.7662C281.167 25.209 280.078 24.3794 279.298 23.2835C278.517 22.1876 278.134 20.8627 278.134 19.3087C278.134 17.7546 278.511 16.4545 279.267 15.3338C280.022 14.2132 281.099 13.3464 282.505 12.7273C283.91 12.1082 285.563 11.8048 287.458 11.8048C287.984 11.8048 288.492 11.8419 288.981 11.91C289.47 11.9781 289.959 12.071 290.436 12.1825L299.035 12.2196V15.5753C297.871 15.6001 296.689 15.4577 295.488 15.1481C294.287 14.8385 293.234 14.5042 292.318 14.1389L292.213 13.8974C292.987 14.2627 293.723 14.7147 294.404 15.2533C295.092 15.792 295.643 16.4049 296.064 17.1045C296.485 17.8042 296.695 18.609 296.695 19.5192C296.695 21.0051 296.317 22.2805 295.562 23.3392C294.807 24.4041 293.742 25.2152 292.361 25.7724C290.981 26.3296 289.34 26.6144 287.445 26.6144L287.458 26.6082ZM293.178 36.2357V35.4123C293.178 34.3598 292.844 33.6292 292.169 33.2206C291.494 32.8119 290.578 32.6014 289.408 32.6014H284.096C283.068 32.6014 282.207 32.5209 281.508 32.36C280.808 32.199 280.257 31.9699 279.849 31.6727C279.44 31.3755 279.143 31.0288 278.957 30.6264C278.777 30.224 278.685 29.7968 278.685 29.3386C278.685 28.4223 278.982 27.7351 279.576 27.2645C280.17 26.794 280.969 26.4844 281.972 26.3234C282.975 26.1625 284.083 26.1315 285.297 26.2182L287.458 26.5958C286.021 26.6392 284.95 26.763 284.257 26.9549C283.557 27.1469 283.21 27.5307 283.21 28.1003C283.21 28.4409 283.347 28.7133 283.619 28.9052C283.891 29.0971 284.282 29.1962 284.783 29.1962H290.368C291.897 29.1962 293.203 29.3634 294.293 29.6915C295.376 30.0196 296.206 30.5831 296.776 31.3694C297.345 32.1557 297.63 33.2391 297.63 34.6074V36.2172H293.172L293.178 36.2357ZM287.458 23.3887C288.442 23.3887 289.303 23.2278 290.046 22.912C290.789 22.5901 291.364 22.1319 291.773 21.5252C292.182 20.9184 292.392 20.194 292.392 19.352C292.392 18.51 292.188 17.7423 291.773 17.1231C291.358 16.504 290.789 16.0335 290.058 15.6991C289.327 15.371 288.461 15.2038 287.451 15.2038C286.442 15.2038 285.6 15.371 284.845 15.6991C284.09 16.0335 283.508 16.504 283.099 17.1231C282.69 17.7423 282.48 18.4852 282.48 19.352C282.48 20.2188 282.684 20.9246 283.099 21.5252C283.508 22.1319 284.09 22.5963 284.826 22.912C285.569 23.234 286.442 23.3887 287.445 23.3887H287.458Z" fill="white"/>
<path d="M311.684 29.6234C309.536 29.6234 307.648 29.2829 306.013 28.5956C304.379 27.9084 303.103 26.9116 302.193 25.599C301.277 24.2865 300.825 22.6705 300.825 20.7512C300.825 18.8319 301.283 17.2036 302.193 15.8663C303.109 14.529 304.379 13.5198 306.013 12.8325C307.648 12.1453 309.536 11.8048 311.684 11.8048C313.833 11.8048 315.709 12.1453 317.318 12.8325C318.928 13.5198 320.191 14.529 321.107 15.8663C322.018 17.2036 322.476 18.8319 322.476 20.7512C322.476 22.6705 322.018 24.2865 321.107 25.599C320.191 26.9116 318.934 27.9146 317.318 28.5956C315.702 29.2767 313.826 29.6234 311.684 29.6234ZM311.684 26.1996C312.873 26.1996 313.938 25.9891 314.885 25.5681C315.832 25.1471 316.582 24.5279 317.133 23.7169C317.684 22.9058 317.956 21.9152 317.956 20.7512C317.956 19.5873 317.684 18.5843 317.133 17.7546C316.582 16.9188 315.839 16.2873 314.904 15.8539C313.969 15.4205 312.892 15.2038 311.684 15.2038C310.477 15.2038 309.424 15.4205 308.465 15.8539C307.505 16.2873 306.744 16.9188 306.186 17.7361C305.629 18.5595 305.344 19.5625 305.344 20.7512C305.344 21.94 305.617 22.9058 306.168 23.7169C306.719 24.5279 307.468 25.1471 308.428 25.5681C309.387 25.9891 310.471 26.1996 311.684 26.1996Z" fill="white"/>
<path d="M331.007 22.3238V16.634H333.032C334.883 16.634 336.239 16.2935 337.112 15.6062C337.979 14.919 338.412 13.947 338.412 12.6963C338.412 11.4457 338.004 10.4798 337.18 9.81735C336.357 9.15487 335.261 8.82673 333.893 8.82673C332.908 8.82673 332.091 8.98152 331.441 9.29108C330.791 9.60065 330.295 10.0093 329.967 10.5232C329.639 11.037 329.46 11.6128 329.435 12.2505H325.014C324.989 11.5881 325.088 10.9132 325.305 10.226C325.522 9.53874 325.856 8.87626 326.314 8.23856C326.772 7.60085 327.354 7.02506 328.06 6.52356C328.766 6.02207 329.621 5.62582 330.611 5.34102C331.608 5.05622 332.729 4.91382 333.985 4.91382C335.515 4.91382 336.846 5.10575 337.979 5.4958C339.112 5.88585 340.047 6.41831 340.79 7.10555C341.533 7.79278 342.084 8.59765 342.449 9.52016C342.814 10.4427 343 11.458 343 12.5539C343 14.0646 342.659 15.3338 341.972 16.374C341.285 17.4141 340.369 18.2128 339.211 18.77C338.059 19.3272 336.771 19.6554 335.354 19.7482V22.3176H331.001L331.007 22.3238ZM330.704 29.2148V25.308H335.88V29.2148H330.704Z" fill="white"/>
<path d="M40.5416 16.4851V5.09481C40.5416 3.38559 39.156 2 37.4468 2L26.0565 2C24.3473 2 22.9617 3.38559 22.9617 5.09481V16.4851C22.9617 18.1943 24.3473 19.5799 26.0565 19.5799H37.4468C39.156 19.5799 40.5416 18.1943 40.5416 16.4851Z" stroke="white" stroke-width="2.30308" stroke-miterlimit="10"/>
<path d="M40.5372 37.1113V25.721C40.5372 24.0118 39.1516 22.6262 37.4424 22.6262H26.0521C24.3429 22.6262 22.9573 24.0118 22.9573 25.721V37.1113C22.9573 38.8205 24.3429 40.2061 26.0521 40.2061H37.4424C39.1516 40.2061 40.5372 38.8205 40.5372 37.1113Z" stroke="white" stroke-width="2.30308" stroke-miterlimit="10"/>
<path d="M34.2019 4.87848H29.297" stroke="white" stroke-width="2.30308" stroke-miterlimit="10" stroke-linecap="round"/>
<path d="M34.2019 26.2243H29.297" stroke="white" stroke-width="2.30308" stroke-miterlimit="10" stroke-linecap="round"/>
<path d="M19.5799 37.1069L19.5799 5.09481C19.5799 3.38559 18.1943 2 16.4851 2L5.09481 2C3.38559 2 2 3.38559 2 5.09481L2 37.1069C2 38.8161 3.38559 40.2017 5.09481 40.2017H16.4851C18.1943 40.2017 19.5799 38.8161 19.5799 37.1069Z" stroke="white" stroke-width="2.30308" stroke-miterlimit="10"/>
<path d="M16.1098 18.6484V23.5577" stroke="white" stroke-width="2.30308" stroke-miterlimit="10" stroke-linecap="round"/>
</svg>
