<svg width="44" height="48" viewBox="0 0 44 48" fill="none" xmlns="http://www.w3.org/2000/svg">
<path d="M39.5717 29.2329H41.5136C42.2444 29.2329 43.5651 30.6267 43.5704 31.4358C43.3877 34.3748 43.8523 37.6792 43.586 40.5763C43.4451 42.1267 42.3019 43.5153 40.7985 43.9277C40.527 44.0008 39.5613 44.0582 39.4673 44.1626C39.4308 44.2044 39.2533 44.9822 39.1176 45.2536C38.3763 46.6892 36.9199 47.2268 35.3799 47.279C26.7875 46.8197 17.5896 47.8689 9.06507 47.279C7.63996 47.1799 6.27228 46.71 5.54668 45.4154C5.36919 45.097 5.14473 44.22 5.10296 44.1678C5.04554 44.1 3.75094 43.9329 3.40119 43.8024C2.15357 43.3483 1.32356 42.1789 1.02601 40.9157C1.25048 37.9767 0.618841 34.286 1.00513 31.4358C1.11476 30.6163 2.23187 29.2329 3.06188 29.2329H5.00378C5.05076 26.6959 4.8263 24.1955 5.29611 21.695C6.3297 16.1773 10.0569 11.5888 15.0891 9.19271C15.3971 4.92261 18.4979 0.125281 23.3161 0.955288C27.1268 1.61303 29.1731 5.65344 29.4864 9.18749C34.5238 11.5835 38.2458 16.1669 39.2794 21.6898C39.7492 24.1902 39.5195 26.6907 39.5717 29.2277V29.2329ZM27.8002 8.56107C27.487 5.07922 24.5011 1.23718 20.6277 2.70404C18.6232 3.46097 16.9214 6.30074 16.7753 8.37836C16.7596 8.57151 16.7492 8.59761 16.9475 8.55063C17.125 8.50887 18.3883 8.12258 18.4509 8.07559C18.5188 8.02861 18.8372 6.88018 19.0512 6.51998C20.6852 3.7533 23.8799 3.7533 25.5138 6.51998C25.7539 6.92716 25.9993 7.95031 26.0619 8.03383C26.1298 8.1278 27.5288 8.44623 27.7898 8.56107H27.8002ZM24.4176 7.80937C23.7442 6.03973 22.0476 5.22538 20.6643 6.87496C20.5494 7.0159 19.876 7.87201 20.3406 7.80415C21.6718 7.62144 23.0812 7.60578 24.4176 7.80415V7.80937ZM20.7582 9.22925C13.095 9.90265 6.96134 16.3913 6.49675 24.0284L6.55939 44.0164C6.8987 44.8464 7.48336 45.5616 8.44387 45.6399H36.0063C37.0974 45.6242 37.8595 44.7107 38.0735 43.7032C37.7551 37.2563 38.4859 30.4283 38.0735 24.0284C37.5045 15.0758 29.6847 8.44101 20.7582 9.22925ZM5.00378 30.7363C3.88144 30.7468 2.62861 30.444 2.49288 31.9213C2.24231 34.6828 2.67037 37.8619 2.52942 40.6651C2.81131 41.8187 3.78748 42.6488 5.00378 42.513V30.7363ZM39.5717 42.5078C40.788 42.6435 41.7642 41.8135 42.0461 40.6599C41.9051 37.8566 42.3332 34.6776 42.0826 31.9161C41.9469 30.4388 40.6941 30.7416 39.5717 30.7311V42.5078Z" fill="black"/>
<path d="M12.3593 27.6357L31.8775 27.5991C33.2086 27.7035 34.2422 28.7319 34.4406 30.0474C33.8559 34.4897 36.6069 42.2469 30.1183 43.009C25.0599 42.7272 19.5892 43.3901 14.5831 43.0143C12.3645 42.8472 10.4226 41.3386 10.1564 39.0522C9.91623 36.9954 9.95278 32.2659 10.1355 30.1674C10.2503 28.9042 11.1482 27.928 12.3645 27.6357H12.3593ZM12.7351 29.1338C11.2944 29.3949 11.4979 31.4307 11.8268 32.4852C12.7508 35.4241 16.7494 34.2809 19.0724 34.4741C19.37 34.3749 19.1925 33.3413 19.6518 32.7984C20.2991 32.0363 22.4968 32.1563 23.4782 32.2294C24.2404 32.2868 25.013 32.527 25.2322 33.357C25.3262 33.7119 25.18 34.3697 25.4984 34.4689C27.7692 34.2601 31.4703 35.3876 32.6501 32.7619C33.1199 31.7178 33.3078 29.2591 31.7313 29.113L12.7351 29.1286V29.1338ZM20.9725 33.7433C20.9308 33.8059 20.7846 33.8946 20.7846 33.9312V36.6874C20.7846 36.6874 20.9569 36.8754 20.9725 36.8754H23.6035C23.6035 36.8754 23.7914 36.7031 23.7914 36.6874V33.9312C23.7914 33.9312 23.6192 33.7433 23.6035 33.7433H20.9725ZM32.9372 34.8708C30.9326 36.7292 27.9832 35.7478 25.5036 36.014C25.1748 36.1236 25.3366 36.8701 25.2374 37.2512C24.8877 38.6241 22.3402 38.4623 21.2179 38.3788C20.4349 38.3213 19.49 38.0395 19.3073 37.1572C19.2395 36.8127 19.4117 36.1236 19.0724 36.014C16.5876 35.7478 13.6434 36.724 11.6389 34.8708V38.9425C11.6389 40.211 13.4764 41.5892 14.724 41.4952C19.5579 41.2864 24.6997 41.8293 29.4971 41.5161C30.6351 41.443 31.747 41.182 32.4151 40.1745C32.5404 39.9814 32.9372 39.1148 32.9372 38.9425V34.8708Z" fill="black"/>
<path d="M28.8805 20.4212C28.4525 20.8857 27.612 21.272 26.9804 21.3399C23.9945 21.6636 20.4134 21.1207 17.3649 21.3086C14.1336 20.6091 14.0187 16.1511 17.2396 15.3576C20.3143 15.6186 24.3599 14.8878 27.3249 15.3576C29.6114 15.7178 30.4257 18.7559 28.8805 20.4212ZM16.8167 17.2473C15.9345 18.1713 16.514 19.5911 17.7198 19.8261C20.5022 19.5389 24.1772 20.2384 26.8499 19.8261C28.5204 19.565 28.6248 17.2055 26.9752 16.8349C24.0676 17.0802 20.5439 16.4799 17.7094 16.8245C17.4223 16.861 17.0047 17.0489 16.8167 17.2473Z" fill="black"/>
<path d="M19.2501 12.4135C19.0256 12.6536 17.6997 12.9512 17.2821 13.1339C16.426 13.5097 15.4132 14.0839 14.6615 14.6477C14.0299 15.1175 13.1164 16.3286 12.3647 16.1772C11.0126 15.9058 12.5683 14.4024 13.0224 14.0056C14.2126 12.9616 16.8644 11.4008 18.4096 11.1137C19.3127 10.9466 19.7669 11.8706 19.2553 12.4083L19.2501 12.4135Z" fill="black"/>
<path d="M10.6051 19.6749C10.2658 19.9568 9.64457 19.8837 9.40966 19.4974C8.91374 18.6622 10.7878 15.9895 11.4507 17.4616C11.6334 17.8687 10.9078 19.4243 10.6051 19.6749Z" fill="black"/>
</svg>
