<svg width="33" height="36" viewBox="0 0 33 36" fill="none" xmlns="http://www.w3.org/2000/svg">
<path d="M29.5543 21.7778H31.0107C31.5588 21.7778 32.5494 22.8232 32.5533 23.43C32.4162 25.6342 32.7647 28.1125 32.565 30.2854C32.4593 31.4482 31.6019 32.4896 30.4743 32.7989C30.2707 32.8537 29.5464 32.8968 29.476 32.9751C29.4486 33.0064 29.3155 33.5898 29.2137 33.7934C28.6577 34.87 27.5654 35.2733 26.4104 35.3124C19.9661 34.9679 13.0677 35.7548 6.67429 35.3124C5.60546 35.238 4.5797 34.8857 4.0355 33.9147C3.90238 33.6759 3.73403 33.0182 3.70271 32.979C3.65965 32.9281 2.68869 32.8028 2.42638 32.705C1.49067 32.3643 0.868161 31.4874 0.644999 30.5399C0.813349 28.3357 0.339619 25.5677 0.629339 23.43C0.711556 22.8154 1.54939 21.7778 2.1719 21.7778H3.62832C3.66356 19.8751 3.49521 17.9998 3.84757 16.1244C4.62277 11.9861 7.41816 8.54472 11.1923 6.74768C11.4233 3.54511 13.7489 -0.0528897 17.3626 0.569615C20.2206 1.06292 21.7554 4.09323 21.9903 6.74377C25.7684 8.54081 28.5598 11.9783 29.335 16.1205C29.6874 17.9958 29.5151 19.8712 29.5543 21.7739V21.7778ZM20.7257 6.27395C20.4908 3.66256 18.2513 0.781032 15.3463 1.88118C13.8429 2.44888 12.5666 4.5787 12.4569 6.13692C12.4452 6.28178 12.4374 6.30136 12.5861 6.26612C12.7192 6.2348 13.6667 5.94508 13.7137 5.90985C13.7646 5.87461 14.0034 5.01328 14.1639 4.74314C15.3894 2.66812 17.7854 2.66812 19.0108 4.74314C19.1909 5.04852 19.375 5.81588 19.4219 5.87852C19.4728 5.949 20.5221 6.18782 20.7178 6.27395H20.7257ZM18.1887 5.71017C17.6836 4.38295 16.4112 3.77219 15.3737 5.00937C15.2876 5.11508 14.7825 5.75716 15.131 5.70626C16.1293 5.56923 17.1864 5.55748 18.1887 5.70626V5.71017ZM15.4442 6.77509C9.69677 7.28014 5.0965 12.1466 4.74805 17.8745L4.79503 32.8655C5.04951 33.488 5.48801 34.0244 6.20839 34.0831H26.8803C27.6985 34.0713 28.2701 33.3862 28.4306 32.6306C28.1918 27.7954 28.7399 22.6744 28.4306 17.8745C28.0039 11.16 22.139 6.1839 15.4442 6.77509ZM3.62832 22.9054C2.78657 22.9132 1.84694 22.6862 1.74515 23.7941C1.55722 25.8652 1.87826 28.2495 1.77255 30.352C1.98397 31.2172 2.7161 31.8397 3.62832 31.7379V22.9054ZM29.5543 31.734C30.4665 31.8358 31.1986 31.2133 31.41 30.3481C31.3043 28.2456 31.6254 25.8613 31.4375 23.7902C31.3357 22.6822 30.396 22.9093 29.5543 22.9015V31.734Z" fill="black"/>
<path d="M9.14519 20.5799L23.7838 20.5525C24.7822 20.6308 25.5574 21.4021 25.7062 22.3887C25.2677 25.7205 27.3309 31.5383 22.4644 32.1099C18.6707 31.8985 14.5676 32.3957 10.813 32.1139C9.1491 31.9886 7.69268 30.8571 7.493 29.1423C7.31291 27.5997 7.34031 24.0526 7.47734 22.4787C7.56348 21.5313 8.23688 20.7991 9.1491 20.5799H9.14519ZM9.42707 21.7035C8.3465 21.8993 8.49919 23.4262 8.74584 24.217C9.43882 26.4213 12.4378 25.5638 14.18 25.7087C14.4032 25.6343 14.2701 24.8591 14.6146 24.452C15.1001 23.8803 16.7484 23.9704 17.4844 24.0252C18.056 24.0683 18.6354 24.2484 18.7999 24.8709C18.8704 25.1371 18.7607 25.6304 18.9996 25.7048C20.7026 25.5482 23.4785 26.3939 24.3633 24.4245C24.7156 23.6415 24.8566 21.7975 23.6742 21.6879L9.42707 21.6996V21.7035ZM15.6051 25.1606C15.5738 25.2076 15.4642 25.2741 15.4642 25.3015V27.3687C15.4642 27.3687 15.5934 27.5097 15.6051 27.5097H17.5784C17.5784 27.5097 17.7193 27.3805 17.7193 27.3687V25.3015C17.7193 25.3015 17.5901 25.1606 17.5784 25.1606H15.6051ZM24.5786 26.0063C23.0752 27.4 20.8632 26.664 19.0035 26.8637C18.7568 26.9459 18.8782 27.5058 18.8038 27.7916C18.5415 28.8212 16.6309 28.6999 15.7892 28.6372C15.2019 28.5942 14.4932 28.3827 14.3562 27.7211C14.3053 27.4627 14.4345 26.9459 14.18 26.8637C12.3164 26.664 10.1083 27.3961 8.6049 26.0063V29.0601C8.6049 30.0114 9.98302 31.045 10.9187 30.9746C14.5441 30.8179 18.4005 31.2251 21.9985 30.9902C22.852 30.9354 23.686 30.7396 24.1871 29.984C24.2811 29.8392 24.5786 29.1893 24.5786 29.0601V26.0063Z" fill="black"/>
<path d="M21.5361 15.1691C21.2151 15.5175 20.5848 15.8072 20.111 15.8581C17.8716 16.1009 15.1858 15.6937 12.8994 15.8346C10.4759 15.31 10.3898 11.9665 12.8054 11.3714C15.1114 11.5672 18.1456 11.019 20.3694 11.3714C22.0843 11.6415 22.695 13.9202 21.5361 15.1691ZM12.4883 12.7887C11.8266 13.4817 12.2612 14.5466 13.1656 14.7228C15.2524 14.5074 18.0086 15.032 20.0132 14.7228C21.266 14.527 21.3443 12.7574 20.1071 12.4794C17.9264 12.6634 15.2837 12.2132 13.1578 12.4716C12.9424 12.499 12.6292 12.6399 12.4883 12.7887Z" fill="black"/>
<path d="M14.3125 9.16338C14.1442 9.34347 13.1498 9.56664 12.8365 9.70366C12.1945 9.98555 11.4349 10.4162 10.8712 10.8391C10.3974 11.1914 9.71228 12.0997 9.1485 11.9862C8.13448 11.7826 9.30119 10.655 9.6418 10.3575C10.5345 9.57447 12.5233 8.40384 13.6822 8.18851C14.3595 8.06323 14.7001 8.7562 14.3165 9.15946L14.3125 9.16338Z" fill="black"/>
<path d="M7.82954 14.6094C7.57506 14.8208 7.10916 14.766 6.93298 14.4763C6.56104 13.8499 7.96657 11.8453 8.46379 12.9494C8.60082 13.2548 8.05662 14.4215 7.82954 14.6094Z" fill="black"/>
</svg>
