<svg width="24" height="24" viewBox="0 0 25 25" fill="none" xmlns="http://www.w3.org/2000/svg">
<path d="M5.72919 20.3125C7.29169 19.2708 9.37502 18.75 10.4167 17.7083C11.4584 16.6667 8.33335 16.6667 8.33335 11.4583C8.33335 6.25 12.5 6.25 12.5 6.25C12.5 6.25 16.6667 6.25 16.6667 11.4583C16.6667 16.6667 13.5417 16.6667 14.5834 17.7083C15.625 18.75 17.7084 19.2708 19.2709 20.3125" stroke="white" stroke-width="1.30208" stroke-linecap="round"/>
<path fill-rule="evenodd" clip-rule="evenodd" d="M12.5 22.9167C18.2529 22.9167 22.9166 18.253 22.9166 12.5C22.9166 6.74707 18.2529 2.08337 12.5 2.08337C6.74701 2.08337 2.08331 6.74707 2.08331 12.5C2.08331 18.253 6.74701 22.9167 12.5 22.9167Z" stroke="white" stroke-width="1.30208"/>
</svg>
