<svg width="24" height="24" viewBox="0 0 24 24" fill="none" xmlns="http://www.w3.org/2000/svg">
<path fill-rule="evenodd" clip-rule="evenodd" d="M8.51175 1.62647C8.75059 1.54277 9.00185 1.50001 9.25494 1.5C9.33883 1.5 9.42212 1.51407 9.50134 1.54162C9.50184 1.54179 9.50299 1.54218 9.50478 1.54278C9.50923 1.54427 9.51766 1.54704 9.52995 1.55092C9.55454 1.55868 9.59455 1.57087 9.64911 1.58606C9.75828 1.61644 9.92534 1.65873 10.1433 1.7016C10.5795 1.78741 11.2169 1.875 12 1.875C12.783 1.875 13.4204 1.78741 13.8567 1.7016C14.0746 1.65873 14.2416 1.61644 14.3508 1.58606C14.4054 1.57087 14.4454 1.55868 14.47 1.55092C14.4823 1.54704 14.4907 1.54427 14.4951 1.54278C14.4974 1.54204 14.4986 1.54162 14.4988 1.54154L14.4984 1.54169L14.4976 1.54196L14.4968 1.54225C14.4966 1.54231 14.4965 1.54237 14.745 2.25L14.745 1.5C14.9981 1.50001 15.2493 1.54277 15.4882 1.62647C15.4882 1.62649 15.4883 1.62651 15.4883 1.62653C15.4884 1.62657 15.4885 1.62661 15.4887 1.62664L22.7477 4.1671C23.0978 4.28964 23.3058 4.64975 23.2369 5.01427L22.4574 9.13927C22.3963 9.4626 22.1316 9.70834 21.8046 9.74526L19.5135 10.004C19.5135 10.004 19.5134 10.004 19.5133 10.004C19.4199 10.0146 19.3338 10.06 19.2722 10.1311C19.2106 10.2022 19.178 10.294 19.1809 10.3881L19.1809 10.3899L19.4997 21.7289C19.5054 21.9314 19.4289 22.1276 19.2877 22.2728C19.1465 22.4181 18.9525 22.5 18.75 22.5H5.24996C5.04739 22.5 4.85344 22.4181 4.71223 22.2728C4.57102 22.1276 4.49457 21.9314 4.50026 21.7289L4.81901 10.3899L4.81906 10.3881C4.82193 10.294 4.78932 10.2022 4.72769 10.1311C4.6661 10.06 4.58004 10.0146 4.48658 10.004C4.48652 10.004 4.48646 10.004 4.4864 10.004L2.19533 9.74526C1.86836 9.70834 1.60364 9.4626 1.54254 9.13927L0.763005 5.01427C0.69412 4.64975 0.902073 4.28964 1.25222 4.1671L8.51127 1.62664C8.51138 1.62661 8.51148 1.62657 8.51158 1.62653C8.51164 1.62651 8.51169 1.62649 8.51175 1.62647ZM14.8403 3.00611C14.8143 3.01379 14.7852 3.02217 14.753 3.03113C14.6095 3.07106 14.4048 3.12252 14.1462 3.1734C13.6292 3.27509 12.8941 3.375 12 3.375C11.1059 3.375 10.3707 3.27509 9.85376 3.1734C9.59509 3.12252 9.39037 3.07106 9.24691 3.03113C9.21472 3.02217 9.18559 3.01379 9.15962 3.00611C9.10795 3.01276 9.05704 3.02481 9.00771 3.04211L2.35673 5.36976L2.91367 8.31685L4.65508 8.51351C5.12273 8.56643 5.55338 8.79329 5.86151 9.14904C6.16943 9.50453 6.33249 9.96275 6.31839 10.4328C6.31838 10.4332 6.31837 10.4335 6.31836 10.4338L6.02134 21H17.9786L17.6816 10.4338C17.6816 10.4335 17.6815 10.4332 17.6815 10.4328C17.6674 9.96275 17.8305 9.50453 18.1384 9.14904C18.4465 8.79329 18.8772 8.56643 19.3448 8.51351L21.0863 8.31685L21.6432 5.36976L14.9922 3.04211C14.9429 3.02481 14.892 3.01276 14.8403 3.00611Z" fill="#9662D9"/>
<path fill-rule="evenodd" clip-rule="evenodd" d="M8.18319 1.74367C8.58347 1.63716 8.99431 1.87531 9.10082 2.27559C9.27086 2.91466 9.6473 3.47962 10.1716 3.88265C10.6959 4.28568 11.3386 4.50418 11.9999 4.50418C12.6612 4.50418 13.304 4.28568 13.8283 3.88265C14.3526 3.47962 14.729 2.91466 14.8991 2.27559C15.0056 1.87531 15.4164 1.63716 15.8167 1.74367C16.217 1.85018 16.4551 2.26101 16.3486 2.6613C16.0936 3.61989 15.5289 4.46734 14.7425 5.07189C13.956 5.67643 12.9919 6.00418 11.9999 6.00418C11.008 6.00418 10.0438 5.67643 9.25741 5.07189C8.47098 4.46734 7.90632 3.61989 7.65126 2.6613C7.54475 2.26101 7.7829 1.85018 8.18319 1.74367Z" fill="#9662D9"/>
</svg>
