<svg width="44" height="52" viewBox="0 0 44 52" fill="none" xmlns="http://www.w3.org/2000/svg">
<g clip-path="url(#clip0_677_7249)">
<path d="M36.5307 17.0559V50.9609C36.5307 51.4986 35.0533 51.5194 35.0533 50.8356V46.837C34.6201 46.9518 34.3069 47.1815 33.8214 47.0823C33.6909 47.8966 34.0772 50.6216 33.6335 51.1384C33.2367 51.5977 32.5059 51.3837 32.3702 50.8095C32.2136 50.1257 32.5111 47.5156 32.2919 47.1971C32.1353 46.9727 31.3992 47.1188 31.1173 47.0823V50.8356C31.1173 51.5194 29.64 51.4986 29.64 50.9609V47.2702C29.64 46.9988 28.288 46.9988 28.288 47.2702V50.9609C28.288 51.2584 27.4423 51.5769 27.0874 51.2376C27.0665 51.2167 26.8107 50.7469 26.8107 50.7155V47.0875C26.5236 47.1293 25.7928 46.9779 25.6362 47.2024C25.4169 47.5208 25.704 50.1779 25.5787 50.8356C25.4743 51.3837 24.6704 51.5769 24.2946 51.1436C23.8509 50.6268 24.2372 47.9019 24.1067 47.0875C23.6212 47.1867 23.308 46.957 22.8747 46.8422V50.8408C22.8747 51.556 21.3974 51.4307 21.3974 50.9661V31.3383H20.0454V35.0916C20.0454 35.6293 18.5681 35.6293 18.5681 35.0916V31.3383H17.3361V34.9663C17.3361 35.457 15.9945 36.0573 15.8588 34.8462C15.7962 34.3242 15.9632 31.4792 15.8484 31.3487C15.8014 31.2965 14.7051 31.0877 14.5068 31.0929V35.2169C14.5068 35.6345 13.0295 35.7545 13.0295 34.8462V17.0559H10.9988C10.2837 17.0559 10.3724 15.5786 10.9988 15.5786H21.3974V11.2093C21.3974 11.2093 21.2251 11.0266 21.2147 11.0266H1.76435C1.76435 11.0266 1.58164 11.1989 1.58164 11.2093V14.6546C1.58164 14.9574 2.088 15.4794 2.40643 15.5525C3.85764 15.8761 6.24325 15.3437 7.78842 15.5838C8.70195 15.7248 8.69673 16.9045 7.78842 17.0455C6.77049 17.2073 3.58619 17.1603 2.50561 17.0507C1.15359 16.915 0.328804 15.9545 0.104337 14.6546C0.339244 11.6791 -0.208873 8.21817 0.104337 5.30009C0.234841 4.06291 1.21623 2.96668 2.49517 2.89882H21.3295C21.6741 2.86228 21.6741 2.46554 21.8829 2.22542C22.3736 1.65642 23.0313 1.16572 23.8039 1.06654C26.9047 0.659366 30.8198 1.34843 34.0093 1.0561C35.1734 1.19704 35.8938 1.94875 36.4889 2.88316C38.7231 3.08152 42.6435 2.00617 42.9358 5.29487C43.2072 8.34345 42.7322 11.7992 42.9201 14.8895C42.9201 15.683 41.6203 17.0559 40.8999 17.0559H36.5307ZM14.5016 17.0559V28.4411C14.5016 28.8848 15.1802 29.8558 15.6709 29.8558H21.2095C21.2095 29.8558 21.3922 29.6835 21.3922 29.673V21.0598C21.3922 20.971 21.8359 20.6735 21.9768 20.6474C23.2244 20.4177 22.692 22.1821 22.9321 22.7198C23.0992 23.0852 24.138 23.7899 24.4042 24.1971C24.9314 23.816 26.0433 22.2709 26.628 22.2291C27.291 22.1873 28.4081 23.7951 28.9562 24.1971C29.1128 24.1971 30.564 22.3439 31.0756 22.25C31.8325 22.1143 32.8974 23.7586 33.5082 24.1971C33.9728 23.5916 34.975 23.0748 35.0533 22.297V3.70272C34.975 2.998 34.3225 2.51774 33.6335 2.53341C30.6214 2.75265 27.2335 2.25674 24.2685 2.53341C23.4333 2.61171 22.9321 2.96146 22.8538 3.82279C22.4414 8.27037 23.1879 13.3339 22.8434 17.8442C22.4258 19.4311 20.9798 18.4862 21.3817 17.0559H14.4911H14.5016ZM21.3922 4.38134H2.37511C1.63385 4.38134 1.44592 6.0518 1.57642 6.59469H15.7909C16.3443 6.59469 16.6836 7.8893 15.8901 8.04068L1.88441 8.072C1.3363 8.17118 1.65473 9.11081 1.57642 9.54931H21.3922C21.34 9.23088 21.5175 8.29125 21.2773 8.1242C20.7658 7.76923 17.8111 8.72974 18.3384 7.04885C18.3854 6.9079 18.7769 6.59469 18.8708 6.59469H21.3922V4.38134ZM41.4533 6.59469C41.4115 5.92129 41.636 5.28443 41.1505 4.74154C41.0774 4.65801 40.712 4.37612 40.6546 4.37612H36.5307V6.58947H41.4533V6.59469ZM41.4533 8.072H36.7134C36.421 8.072 36.5515 9.2883 36.5307 9.54931H41.4533V8.072ZM41.4533 11.0266H36.7134C36.7134 11.0266 36.5307 11.1989 36.5307 11.2093V15.5786H40.6546C40.8112 15.5786 41.4533 14.9365 41.4533 14.7799V11.0266ZM35.0533 24.9331C34.8498 24.7035 34.0145 26.1129 33.4194 26.0189C32.8661 25.9302 31.5141 24.0196 31.1956 24.077C30.6162 24.4477 29.5617 26.0607 28.8831 25.9772C28.241 25.8989 26.9725 24.0196 26.6384 24.077C26.1112 24.4059 25.0254 25.9354 24.5034 26.0189C23.9187 26.1129 23.3497 25.0532 22.8695 24.8079V26.3478C23.2819 26.9011 23.8665 27.4075 24.4042 27.8773C24.9732 27.4545 26.1269 25.7997 26.8368 25.9302C27.3536 26.0294 28.7996 27.8773 28.9614 27.8773C29.5147 27.4806 30.6266 25.8675 31.2896 25.9093C31.8899 25.9459 32.9653 27.491 33.5134 27.8564C33.6387 27.8564 34.9124 26.6871 34.9907 26.5201C35.1786 26.1129 34.9907 25.3821 35.0533 24.9227V24.9331ZM22.8695 28.6238V30.5292C22.8695 30.6753 24.1432 31.6202 24.2476 31.9177L24.5295 31.949C24.9001 31.5262 26.1634 30.0593 26.6437 30.0071C27.2962 29.9341 28.429 31.5523 28.9666 31.9438C29.1389 31.9438 30.5066 30.122 31.1173 30.028C31.8638 29.9132 32.934 31.5262 33.5395 31.9386C33.6439 31.9543 35.0586 30.6336 35.0586 30.5344V28.629C34.4687 28.8326 34.145 29.8505 33.4247 29.72C32.8557 29.6156 31.5141 27.7207 31.1956 27.7781C30.6162 28.1488 29.5617 29.7618 28.8831 29.6783C28.241 29.6 26.9725 27.7207 26.6384 27.7781C26.0955 28.1279 24.9784 29.7148 24.3938 29.7409C23.8091 29.767 23.4124 28.7856 22.8643 28.629L22.8695 28.6238ZM35.0533 32.6851C34.5209 32.9931 34.1085 33.9014 33.3986 33.797C32.9235 33.7291 31.5141 31.7768 31.1956 31.8342C30.6736 32.1683 29.5147 33.7865 28.9614 33.7865C28.4081 33.7865 27.2596 32.1839 26.7481 31.8499C26.2208 31.8499 24.8062 34.5696 23.8822 33.583L22.8695 32.6903V36.9969C24.6704 34.794 25.276 36.5323 26.7481 37.8583C27.2335 37.5033 28.429 35.9007 28.9614 35.9007C29.4939 35.9007 30.6893 37.5085 31.1748 37.8583C32.6416 36.5376 33.2472 34.794 35.0533 36.9969V32.6903V32.6851ZM24.3102 37.7434C24.1432 37.7852 22.9112 39.0693 22.8747 39.2729C22.7494 39.9359 22.7651 43.851 22.8747 44.5557C22.9739 45.1717 23.569 45.5632 24.1536 45.6154C27.2805 45.9025 30.8355 45.3857 34.0093 45.6154C34.6096 45.5319 34.9803 45.036 35.0533 44.4461C35.2413 42.854 34.9072 40.9068 35.0481 39.2781C35.0116 39.1007 33.8475 37.8583 33.6961 37.7904C33.2002 37.5764 31.9995 39.5444 31.3 39.5914C30.4648 39.6436 29.5931 38.2028 28.9614 37.7382C28.3298 38.208 27.458 39.6488 26.6228 39.5914C25.9442 39.5444 24.8114 37.6129 24.3102 37.7486V37.7434Z" fill="black"/>
</g>
<defs>
<clipPath id="clip0_677_7249">
<rect width="43.0194" height="50.4529" fill="white" transform="translate(0 0.936035)"/>
</clipPath>
</defs>
</svg>
