<svg width="42" height="46" viewBox="0 0 42 46" fill="none" xmlns="http://www.w3.org/2000/svg">
<g clip-path="url(#clip0_677_7244)">
<path d="M41.7192 19.1549L41.6965 19.0822C40.7962 17.3385 39.9368 15.5222 39.1047 13.7603C38.0862 11.6079 37.0358 9.38292 35.8946 7.26234C35.4262 6.39503 35.1625 6.21794 34.5259 5.79564L34.2713 5.62309C32.93 4.71491 31.5204 3.85215 30.1609 3.01663C29.2606 2.46718 28.333 1.89503 27.4327 1.31834L27.3918 1.29564C26.0186 0.746193 25.2229 1.17758 24.3817 1.6362C23.9997 1.84508 23.6042 2.0585 23.1267 2.19473C21.7399 2.58979 20.3167 2.51259 18.7753 1.9586C18.2297 1.76335 17.8113 1.56809 17.4749 1.40916C16.2336 0.827928 15.747 0.700784 13.7827 1.84054C12.2095 2.75326 10.6317 3.79766 9.10848 4.80573C8.29913 5.34155 7.49432 5.87283 6.69405 6.38595L6.63494 6.42228L6.60311 6.48585C5.94835 7.8027 5.27995 9.11501 4.607 10.4273C3.12925 13.3062 1.61056 16.276 0.291949 19.2684L0.273761 19.3456C0.228291 19.8723 0.291949 20.2084 0.810301 20.6261L7.34881 24.3678L7.33972 44.6291C7.35336 45.4011 7.92628 45.9687 8.7038 45.9869L33.5802 45.9596L33.6484 45.9505C34.194 45.7961 34.585 45.3738 34.6669 44.8471C34.8397 43.7164 34.7669 42.3678 34.6942 41.06C34.6305 39.8976 34.5623 38.6988 34.676 37.6816V37.6589V37.6362C34.6305 37.0595 34.2213 36.7825 33.8348 36.7644C33.4028 36.7417 32.9254 37.0277 32.8208 37.6135V44.1296H9.19942V15.9899C9.19942 15.7038 9.013 15.4177 8.7129 15.2497C8.40371 15.0772 8.06268 15.0726 7.79441 15.2361C7.71712 15.2815 7.34427 15.7084 7.34427 15.89V22.1882L2.20621 19.3592L8.00812 7.62561L13.1189 4.45608C13.1644 4.57869 13.2098 4.69675 13.2553 4.81935C13.3917 5.19624 13.5372 5.58676 13.7509 5.96819L13.7737 6.0136C14.1238 6.64024 14.7785 7.81178 15.7243 7.41219C16.0062 7.29412 16.1153 7.09433 16.1563 6.95356C16.3063 6.44044 15.8471 5.77747 15.4788 5.24619C15.3605 5.07818 15.2514 4.91925 15.2014 4.81935C14.7149 3.83852 14.7149 3.43893 14.7376 3.39806C14.7876 3.35719 15.0423 3.19826 15.215 3.09836C15.9016 5.74115 18.0114 7.59382 20.6214 7.82541C23.1449 8.05245 25.3593 6.72652 26.4005 4.36981C26.5188 4.10189 26.6006 3.82944 26.6779 3.56607C26.7279 3.39352 26.7779 3.23005 26.8325 3.07112C26.9189 3.12107 26.9916 3.16193 27.0553 3.19826C27.2341 3.29513 27.2796 3.50553 27.1917 3.82944C26.3551 6.93994 22.8084 8.947 19.4482 8.20684C19.2391 8.16143 18.7889 7.96617 18.3934 7.79816C17.6477 7.4803 17.3748 7.36678 17.2021 7.39856C16.9383 7.43943 16.7201 7.58928 16.5837 7.81632C16.4291 8.06607 16.3972 8.39301 16.4973 8.68363C16.7201 9.35114 18.9344 9.95053 18.9572 9.95507C22.0764 10.727 25.3093 9.67808 27.3963 7.21239C28.1375 6.34054 28.5558 5.40512 28.965 4.4243L33.9621 7.60744L39.8095 19.3728L34.6714 22.2018V15.9036C34.6714 15.6993 34.2622 15.2497 34.1394 15.1952C33.853 15.0635 33.5392 15.0863 33.2846 15.2679C32.9709 15.4904 32.7799 15.9082 32.8117 16.2896V34.7482C32.7481 35.4339 33.221 35.8971 33.712 35.947C34.1167 35.9924 34.5941 35.7381 34.6714 35.057L34.6851 24.3315L41.26 20.5989L41.3009 20.5716C41.7738 20.1584 41.8101 19.727 41.7147 19.1685L41.7192 19.1549ZM24.8 3.4798C24.4044 4.47425 23.6314 5.26436 22.6129 5.68666C21.3807 6.19978 19.9575 6.08171 18.8117 5.37334C18.0705 4.91471 17.3066 4.06103 17.1293 3.22551C19.6347 4.53782 22.431 4.62864 24.8 3.4798Z" fill="black"/>
</g>
<defs>
<clipPath id="clip0_677_7244">
<rect width="41.5" height="45" fill="white" transform="translate(0.259766 0.982422)"/>
</clipPath>
</defs>
</svg>
