<svg width="32" height="34" viewBox="0 0 32 34" fill="none" xmlns="http://www.w3.org/2000/svg">
<g clip-path="url(#clip0_783_8736)">
<path d="M31.6644 13.7191L31.6473 13.6646C30.9721 12.3569 30.3276 10.9946 29.7035 9.67321C28.9396 8.05893 28.1519 6.39016 27.2959 4.79972C26.9447 4.14924 26.7469 4.01642 26.2694 3.69969L26.0785 3.57028C25.0725 2.88915 24.0153 2.24208 22.9956 1.61544C22.3204 1.20335 21.6247 0.774241 20.9495 0.341723L20.9188 0.324695C19.8889 -0.0873891 19.2922 0.236148 18.6613 0.580119C18.3748 0.736778 18.0781 0.896844 17.72 0.999014C16.6799 1.29531 15.6125 1.23741 14.4565 0.82192C14.0472 0.675477 13.7335 0.529034 13.4812 0.409836C12.5502 -0.0260874 12.1853 -0.121446 10.7121 0.733373C9.53213 1.41791 8.34878 2.20121 7.20636 2.95726C6.59934 3.35913 5.99574 3.75759 5.39554 4.14243L5.35121 4.16967L5.32734 4.21735C4.83626 5.20499 4.33496 6.18923 3.83025 7.17346C2.72193 9.33264 1.58292 11.5599 0.593962 13.8043L0.580321 13.8622C0.546219 14.2572 0.593962 14.5092 0.982726 14.8225L5.88661 17.6288L5.87979 32.8248C5.89002 33.4038 6.31971 33.8295 6.90285 33.8431L25.5601 33.8227L25.6113 33.8159C26.0205 33.7001 26.3138 33.3833 26.3752 32.9883C26.5047 32.1403 26.4502 31.1288 26.3956 30.148C26.3479 29.2761 26.2967 28.377 26.382 27.6142V27.5971V27.5801C26.3479 27.1476 26.041 26.9399 25.7511 26.9262C25.4271 26.9092 25.0691 27.1238 24.9906 27.5631V32.4502H7.27457V11.3454C7.27457 11.1308 7.13475 10.9163 6.90967 10.7903C6.67778 10.6608 6.42201 10.6574 6.22081 10.78C6.16284 10.8141 5.8832 11.1342 5.8832 11.2705V15.9941L2.02966 13.8724L6.38109 5.07217L10.2142 2.69503C10.2483 2.78698 10.2824 2.87553 10.3165 2.96748C10.4188 3.25015 10.5279 3.54303 10.6882 3.82911L10.7052 3.86317C10.9678 4.33315 11.4589 5.2118 12.1682 4.91211C12.3797 4.82356 12.4615 4.67371 12.4922 4.56814C12.6047 4.1833 12.2603 3.68607 11.9841 3.28761C11.8954 3.1616 11.8136 3.0424 11.776 2.96748C11.4112 2.23186 11.4112 1.93216 11.4282 1.90151C11.4657 1.87086 11.6567 1.75166 11.7863 1.67674C12.3012 3.65883 13.8836 5.04833 15.841 5.22202C17.7337 5.3923 19.3945 4.39785 20.1754 2.63032C20.2641 2.42939 20.3254 2.22505 20.3834 2.02752C20.4209 1.89811 20.4584 1.7755 20.4994 1.6563C20.5642 1.69377 20.6187 1.72442 20.6665 1.75166C20.8006 1.82432 20.8347 1.98211 20.7688 2.22505C20.1413 4.55792 17.4813 6.06322 14.9612 5.5081C14.8043 5.47404 14.4667 5.3276 14.17 5.20159C13.6107 4.96319 13.4061 4.87805 13.2765 4.90189C13.0787 4.93254 12.9151 5.04493 12.8128 5.21521C12.6968 5.40252 12.6729 5.64773 12.748 5.86569C12.9151 6.36632 14.5758 6.81587 14.5929 6.81927C16.9323 7.39823 19.3569 6.61153 20.9222 4.76226C21.4781 4.10837 21.7918 3.40681 22.0988 2.67119L25.8466 5.05855L30.2321 13.8826L26.3786 16.0043V11.2807C26.3786 11.1274 26.0717 10.7903 25.9796 10.7494C25.7647 10.6506 25.5294 10.6677 25.3385 10.8039C25.1032 10.9708 24.9599 11.2841 24.9838 11.5702V25.4141C24.9361 25.9284 25.2907 26.2758 25.659 26.3132C25.9625 26.3473 26.3206 26.1566 26.3786 25.6457L26.3888 17.6016L31.32 14.8021L31.3507 14.7817C31.7053 14.4718 31.7326 14.1482 31.661 13.7293L31.6644 13.7191ZM18.975 1.96281C18.6783 2.70865 18.0986 3.30123 17.3347 3.61796C16.4105 4.0028 15.3431 3.91425 14.4838 3.38297C13.9279 3.039 13.355 2.39874 13.222 1.7721C15.101 2.75633 17.1983 2.82444 18.975 1.96281Z" fill="black"/>
</g>
<defs>
<clipPath id="clip0_783_8736">
<rect width="31.125" height="33.75" fill="white" transform="translate(0.570312 0.0898438)"/>
</clipPath>
</defs>
</svg>
