<svg width="24" height="25" viewBox="0 0 24 25" fill="none" xmlns="http://www.w3.org/2000/svg">
<path d="M17.0442 6.45492C16.9569 6.30643 16.8082 6.25 16.6652 6.25H4.51525H4.11882L4.28965 6.60773L6.8244 11.9155L6.89234 12.0577H7.05H13.8672C13.9688 12.0577 14.0677 12.0317 14.1561 11.975L14.1565 11.9748C14.2363 11.9234 14.2997 11.855 14.3487 11.7765L14.349 11.7767L14.3555 11.7648L17.0383 6.88978L17.0387 6.88907C17.1062 6.76533 17.1333 6.60607 17.0442 6.45492ZM17.0442 6.45492C17.0442 6.45501 17.0443 6.45509 17.0443 6.45517L16.8288 6.58175L17.044 6.45468C17.0441 6.45476 17.0441 6.45484 17.0442 6.45492ZM4.51525 6.5L4.74085 6.39227L4.79229 6.5H4.51525ZM4.51525 6.5V6.75H4.63464L4.51525 6.5ZM3.63823 5.25L3.57043 5.10726L2.68823 3.25H0.25V4.25H1.904H2.062L2.12981 4.39272L5.76806 12.0505L5.82331 12.1668L5.76073 12.2793L4.33513 14.8424C4.33495 14.8428 4.33476 14.8431 4.33458 14.8434C4.06627 15.3376 4.07477 15.8183 4.36696 16.3193L4.36699 16.3194C4.65727 16.8173 5.07584 17.0577 5.65375 17.0577H16.846V16.0577H5.65375C5.56527 16.0577 5.47612 16.0366 5.39535 15.9862C5.31534 15.9364 5.25753 15.8667 5.217 15.7908M3.63823 5.25L5.4375 15.673M3.63823 5.25H3.79625H17.6807C18.0028 5.25 18.2304 5.37873 18.3943 5.65115L18.3944 5.65127C18.5581 5.92307 18.5665 6.18495 18.4182 6.47027M3.63823 5.25L18.6385 6.5885M5.217 15.7908L5.4375 15.673M5.217 15.7908C5.21709 15.791 5.21718 15.7911 5.21726 15.7913L5.4375 15.673M5.217 15.7908C5.17723 15.7166 5.15084 15.6314 5.15261 15.5385C5.15432 15.4484 5.18226 15.3662 5.22736 15.2949M5.4375 15.673C5.38933 15.5833 5.39092 15.5 5.44225 15.423M5.22736 15.2949L5.22295 15.303L5.44225 15.423M5.22736 15.2949L6.3807 13.1877L6.45184 13.0577H6.6H13.8962C14.1739 13.0577 14.4254 12.9889 14.6557 12.8515L14.6557 12.8515C14.8859 12.7143 15.0727 12.5224 15.2164 12.27M5.22736 15.2949C5.22961 15.2914 5.2319 15.2878 5.23424 15.2843L5.44225 15.423M5.44225 15.423L15.2164 12.27M15.2164 12.27L15.2156 12.2714L15.4345 12.3923M15.2164 12.27L6.6 13.3077H13.8962C14.2179 13.3077 14.5137 13.2273 14.7837 13.0662C15.0536 12.9054 15.2705 12.6807 15.4345 12.3923M15.4345 12.3923L18.6385 6.5885M15.4345 12.3923L15.2172 12.2687L18.4182 6.47027M18.6385 6.5885L18.4169 6.47268C18.4174 6.47188 18.4178 6.47107 18.4182 6.47027M18.6385 6.5885L18.4196 6.46767L18.4182 6.47027M4.59132 21.6203L4.59128 21.6202C4.29832 21.3273 4.154 20.978 4.154 20.5578C4.154 20.1373 4.29834 19.788 4.59128 19.495C4.88423 19.2021 5.23352 19.0578 5.65375 19.0578C6.07417 19.0578 6.42354 19.2021 6.71647 19.495C7.00941 19.788 7.15375 20.1373 7.15375 20.5578C7.15375 20.978 7.00943 21.3273 6.71647 21.6202L6.71643 21.6203C6.42348 21.9134 6.07413 22.0578 5.65375 22.0578C5.23356 22.0578 4.88428 21.9134 4.59132 21.6203ZM14.2836 21.6203L14.2835 21.6202C13.9906 21.3273 13.8462 20.978 13.8462 20.5578C13.8462 20.1373 13.9906 19.788 14.2835 19.495C14.5765 19.2021 14.9258 19.0578 15.3462 19.0578C15.7665 19.0578 16.1158 19.2021 16.4087 19.495C16.7017 19.788 16.846 20.1373 16.846 20.5578C16.846 20.978 16.7017 21.3273 16.4087 21.6202L16.4087 21.6203C16.1157 21.9134 15.7664 22.0578 15.3462 22.0578C14.9259 22.0578 14.5765 21.9134 14.2836 21.6203ZM16.846 15.8077H17.096V16.0577L16.846 15.8077Z" fill="white" stroke="white" stroke-width="0.5"/>
</svg>
