<svg width="52" height="47" viewBox="0 0 52 47" fill="none" xmlns="http://www.w3.org/2000/svg">
<g clip-path="url(#clip0_677_7246)">
<path d="M33.5899 4.83231C36.1449 6.12731 39.0149 7.02231 41.1849 8.95731C43.5049 11.0273 44.8449 13.7573 45.3349 16.8073C45.4549 17.5673 45.4199 18.8673 45.6199 19.5223C45.7099 19.8073 46.7199 20.9123 46.9949 21.3723C47.7349 22.6173 48.2899 24.3423 48.3499 25.7973C48.3699 26.2823 48.1849 26.9673 48.2599 27.3273C48.3199 27.6123 49.1249 28.7873 49.3349 29.2573C49.8199 30.3523 50.1049 31.4923 50.2399 32.6873C50.2949 33.1773 50.1699 33.7373 50.2649 34.2173C50.5099 35.4073 51.3349 36.3923 51.4599 38.0223C51.5649 39.3773 51.0849 40.6473 51.1249 41.7923C51.1399 42.2273 51.4849 42.7323 51.5499 43.1573C51.7199 44.2473 51.2149 45.1323 50.1949 45.5273C49.6149 45.7523 47.5349 46.3373 46.9549 46.3973C45.8449 46.5123 45.1099 46.0173 44.6699 45.0423C44.4999 44.6673 44.3699 43.9023 44.1799 43.6423C44.0749 43.4923 43.7499 43.3423 43.5749 43.1373C42.2499 41.5773 41.3649 39.8673 41.1349 37.7973C41.0799 37.3073 41.2049 36.7473 41.1099 36.2673C41.0799 36.1273 40.3849 34.8573 40.2999 34.8573C40.1499 34.8523 40.1249 35.2173 40.1299 35.3523C40.1549 35.9623 40.6249 37.0073 40.6899 37.8023C40.7799 38.9373 40.6799 40.0873 40.4149 41.1873C39.9999 42.9173 39.5849 43.9273 37.6399 44.0773C34.7099 44.3073 31.4849 43.8973 28.5249 44.0723C27.7699 44.1923 26.4999 42.9723 25.9699 42.9723C25.4399 42.9723 24.1649 44.1923 23.4149 44.0723C20.4549 43.8973 17.2299 44.3073 14.2999 44.0773C12.7849 43.9573 12.2449 43.4423 11.7699 42.0473C11.2949 40.6523 11.1349 39.1973 11.2499 37.7973C11.3149 37.0073 11.7849 35.9573 11.8099 35.3473C11.8149 35.2123 11.7899 34.8473 11.6399 34.8523C11.5599 34.8523 10.8599 36.1223 10.8299 36.2623C10.7299 36.7373 10.8549 37.3023 10.8049 37.7923C10.5899 39.8323 9.66986 41.5973 8.36486 43.1323C8.18986 43.3373 7.86486 43.4873 7.75986 43.6373C7.56986 43.8973 7.43986 44.6623 7.26986 45.0373C6.83986 45.9923 6.07486 46.5323 4.97986 46.3973C4.36486 46.3223 2.34986 45.7573 1.74486 45.5223C0.72486 45.1273 0.21986 44.2423 0.38986 43.1523C0.45486 42.7273 0.79986 42.2223 0.81486 41.7873C0.84986 40.6423 0.37486 39.3723 0.47986 38.0173C0.60486 36.3873 1.42986 35.4023 1.67486 34.2123C1.77486 33.7323 1.64486 33.1723 1.69986 32.6823C1.83486 31.4873 2.11986 30.3473 2.60486 29.2523C2.81486 28.7823 3.61486 27.6073 3.67986 27.3223C3.75986 26.9623 3.56986 26.2773 3.58986 25.7923C3.64486 24.3423 4.20486 22.6123 4.94486 21.3673C5.21486 20.9123 6.27986 19.7323 6.34486 19.4323C6.51486 18.6823 6.47986 17.6123 6.60486 16.8023C6.67986 16.3373 6.87986 14.7823 7.33486 14.6423C7.74486 14.5173 8.27986 14.6573 8.36486 15.1223C8.40486 15.8123 7.62486 19.1923 7.90986 19.5673C8.01986 19.7123 9.25486 20.3073 9.50986 20.4123C10.7599 20.9223 12.2349 21.2523 13.5849 21.2823L13.8099 18.3423C13.9949 15.3873 13.0399 12.7573 12.0249 10.0623C11.8149 9.88231 11.0799 10.7073 10.9099 10.8923C10.4799 11.3573 9.54486 13.0023 9.06986 13.0623C8.54486 13.1273 8.21486 12.7523 8.23986 12.2323C8.27486 11.5173 10.1999 9.42231 10.7999 8.89731C12.9699 7.00231 15.8099 6.11231 18.3399 4.82731C18.3199 3.31231 18.0949 0.992313 20.1049 0.647313C20.8799 0.517313 23.7199 0.517313 24.5149 0.632313C25.2449 0.737313 25.6649 1.62731 25.9699 1.62731C26.2749 1.62731 26.6949 0.737313 27.4249 0.632313C28.1549 0.527313 31.2099 0.522313 31.9199 0.672313C33.8699 1.08731 33.5999 3.32731 33.5999 4.82731L33.5899 4.83231ZM25.2399 7.12731V3.12731C25.2399 3.05731 24.3549 2.21731 24.1799 2.18731C23.7349 2.10231 20.7499 2.11231 20.3199 2.20731C19.9349 2.29231 19.9099 2.50231 19.8449 2.84231C19.7449 3.37731 19.6749 4.76231 20.0099 5.13231C20.7849 5.98231 22.9849 6.92231 24.1199 7.13231C24.3749 7.17731 25.1549 7.40231 25.2349 7.13231L25.2399 7.12731ZM26.6799 3.12731V7.12731C26.6799 7.40231 27.5899 7.16731 27.7949 7.12731C28.9999 6.90731 30.8049 6.09231 31.7299 5.28731C32.0399 5.01731 32.0849 4.99731 32.1299 4.57731C32.1849 4.00231 32.2699 2.35231 31.5999 2.20731C31.1649 2.11231 28.1849 2.10231 27.7399 2.18731C27.5799 2.21731 26.7099 3.02731 26.6799 3.12731ZM23.2399 8.40231C21.6649 8.12231 20.2099 7.19231 18.9649 6.21731C17.0649 7.09731 15.1049 7.90731 13.2949 8.95731L13.2399 9.22231L14.8549 13.3973H23.2449V8.39731L23.2399 8.40231ZM36.7949 14.9573H34.5149C34.3049 14.9573 33.9199 14.4723 33.9049 14.2273C33.8099 12.7723 36.8049 13.7473 37.1849 13.2923L38.6649 9.31731C38.7849 8.80731 37.9049 8.51231 37.4999 8.30731C36.0199 7.55731 34.4599 6.93231 32.9599 6.21731C31.7099 7.19231 30.2749 8.13231 28.6849 8.40231V13.4023H31.6299C31.8749 13.4023 32.2599 13.9373 32.2399 14.2273C32.2249 14.4723 31.8399 14.9573 31.6299 14.9573H28.6849V20.2923H36.7949V14.9573ZM27.1249 8.73731C26.3149 8.86731 25.5999 8.86731 24.7899 8.73731V41.8473C25.6149 41.2973 26.2999 41.2473 27.1249 41.8473V32.9023C27.1249 32.6423 27.5799 32.2323 27.8649 32.2123C28.1499 32.1923 28.6799 32.5373 28.6799 32.7923V34.5123H32.5699L31.4599 28.6223H28.6799C28.7249 29.3823 28.8449 30.8473 27.6499 30.4873C27.5049 30.4423 27.1249 29.9973 27.1249 29.8973V8.73731ZM38.3499 21.2923C40.3349 21.2273 42.5349 20.6523 44.1099 19.4373C43.9249 17.4073 43.7099 15.4073 42.8149 13.5473C42.4999 12.8973 40.6899 10.1623 40.0749 10.0673C39.8299 10.0273 39.9449 10.1273 39.8949 10.2273C39.2299 11.6873 38.4599 13.8923 38.2499 15.4723C37.9899 17.4173 38.2349 19.3523 38.3499 21.2923ZM23.2399 14.9573H15.1299V20.2923H23.2399V14.9573ZM13.2399 22.8473C12.0499 22.6923 10.8499 22.4823 9.70986 22.0973C8.78486 21.7873 8.00486 21.2773 7.08986 20.9673C5.62486 22.6373 4.84986 24.8373 5.17986 27.0723C7.15486 27.9823 9.29486 28.5323 11.4699 28.6823C12.3349 26.8473 12.9149 24.8573 13.2399 22.8473ZM38.6799 22.8473C39.0049 24.8573 39.5849 26.8473 40.4499 28.6823C42.6199 28.5223 44.7749 27.9973 46.7399 27.0723C47.0649 24.8623 46.2849 22.6173 44.8299 20.9673C43.9199 21.2973 43.1449 21.7873 42.2099 22.0973C41.0699 22.4773 39.8749 22.7123 38.6799 22.8473ZM23.2399 21.8473H14.9049L13.7949 27.1823H16.1849C16.2649 27.1823 16.5999 26.2473 17.3199 26.0973C17.9899 25.9573 19.5999 26.3223 20.1549 26.7373C20.2699 26.8223 20.4299 27.1823 20.5199 27.1823H23.0749C23.0749 27.1823 23.2399 27.0273 23.2399 27.0173V21.8523V21.8473ZM37.0149 21.8473H28.6799V27.0123C28.6799 27.0123 28.8349 27.1773 28.8449 27.1773H31.3999C31.4849 27.1773 31.6499 26.8173 31.7649 26.7323C32.3199 26.3173 33.9299 25.9573 34.5999 26.0923C35.3199 26.2423 35.6549 27.1773 35.7349 27.1773H38.1249L37.0149 21.8423V21.8473ZM17.4499 36.1673L19.0199 28.1173C19.2199 27.6423 17.7399 27.5673 17.6799 27.6223L16.1199 35.6823C15.9249 36.1473 17.3599 36.2373 17.4499 36.1673ZM34.2349 27.6223C33.8099 27.7123 32.8549 27.5623 32.8949 28.1173L34.4499 36.1073C34.5399 36.2723 35.9599 36.1623 35.7949 35.6823L34.2349 27.6223ZM11.2349 30.1823C8.99486 29.9673 6.78486 29.4673 4.73486 28.5223C3.96986 29.5823 3.44486 30.9523 3.24986 32.2473C3.21486 32.4923 3.09486 33.4923 3.14486 33.6573C3.20486 33.8473 3.34986 33.8873 3.50986 33.9623C4.18986 34.2823 5.38986 34.5873 6.14486 34.7723C6.68986 34.9073 9.33486 35.4823 9.66486 35.2723C10.6099 33.6973 11.1549 32.0323 11.2349 30.1823ZM42.2549 35.2723C42.7149 35.5623 48.3299 34.2623 48.6899 33.8023C48.9049 33.5223 48.6099 31.9423 48.5149 31.5123C48.2799 30.4573 47.8149 29.4623 47.2399 28.5573C45.1199 29.3973 42.9749 29.9923 40.6849 30.1823C40.7649 32.0323 41.3049 33.6973 42.2549 35.2723ZM15.9049 28.6223H13.1249C13.0699 28.6223 12.8049 29.5373 12.7899 29.6773C12.6999 30.4723 12.7149 33.8823 13.1099 34.4423C13.1899 34.5573 14.7299 34.5723 14.8499 34.4023L15.8999 28.6223H15.9049ZM23.2399 28.6223H20.4599L19.3499 34.5123H23.2399V28.6223ZM38.7949 28.6223C38.6249 28.5073 36.4299 28.7073 36.0149 28.6223L37.0649 34.4023C37.1849 34.5723 38.7199 34.5573 38.8049 34.4423C39.1999 33.8823 39.2149 30.4673 39.1249 29.6773C39.1099 29.5223 38.8399 28.6523 38.7899 28.6223H38.7949ZM2.84486 35.3073C1.89986 36.8873 1.72986 38.8573 2.17986 40.6273C2.91486 40.7573 6.94486 42.0823 7.34486 41.9073C7.83986 41.6873 8.69486 39.9773 8.87986 39.4323C9.00486 39.0623 9.42986 37.1673 9.30486 36.9573C9.15486 36.7073 7.84986 36.6673 7.44486 36.5873C5.88486 36.2823 4.33986 35.8523 2.84986 35.3023L2.84486 35.3073ZM49.0749 35.3073C47.3449 35.9523 45.5499 36.4223 43.7249 36.7223C43.4249 36.7723 42.8049 36.6623 42.6199 36.9573C42.4849 37.1823 42.9199 39.0573 43.0449 39.4323C43.2249 39.9723 44.0849 41.6923 44.5799 41.9073C44.9749 42.0823 49.0149 40.7673 49.7449 40.6273C50.1949 38.8573 50.0249 36.8923 49.0799 35.3073H49.0749ZM12.7949 39.6223H23.2399V35.9573H19.0199C18.9249 35.9573 19.0199 37.1973 18.1599 37.5973C17.5649 37.8773 15.8749 37.5973 15.3149 37.2723C14.6199 36.8673 14.6399 36.0323 14.5699 35.9623C14.5199 35.9123 13.1949 35.9223 13.1399 35.9673C12.9399 36.1423 12.5499 39.1623 12.7949 39.6223ZM32.9049 35.9573C32.7449 35.8223 29.2199 36.0623 28.6849 35.9573V39.6223H39.1299C39.3549 39.1573 38.9899 36.1423 38.7849 35.9673C38.7299 35.9223 37.4049 35.9123 37.3549 35.9623C37.2849 36.0323 37.3049 36.8723 36.6099 37.2723C36.0499 37.5973 34.3599 37.8773 33.7649 37.5973C32.9349 37.2073 32.9999 36.0373 32.9049 35.9573ZM23.2399 41.1773H13.1299C13.0699 41.4323 13.5549 42.5123 13.7399 42.5123H23.2399V41.1773ZM38.7949 41.1773H28.6849V42.5123H38.1849C38.3699 42.5123 38.8599 41.4373 38.7949 41.1773ZM2.30986 42.2973C2.02486 42.3873 1.69486 43.6623 2.12986 44.0073C2.40486 44.2273 5.17486 44.9073 5.51486 44.8473C5.61486 44.8273 5.66986 44.8123 5.73986 44.7373C5.87486 44.6023 6.27986 43.3423 6.12986 43.2373C5.96486 43.1173 2.49486 42.2373 2.30986 42.3023V42.2973ZM49.3249 42.3123C48.9949 42.3473 45.9399 43.1323 45.7899 43.2373C45.6399 43.3423 46.0449 44.6023 46.1799 44.7373C46.2549 44.8123 46.3099 44.8323 46.4049 44.8473C46.7699 44.9123 49.6049 44.2073 49.8549 43.9623C50.1049 43.7173 50.0249 43.3823 49.9649 43.0623C49.8849 42.6173 49.8049 42.2623 49.3249 42.3123Z" fill="black"/>
<path d="M28.4252 3.64718C29.9702 3.17218 29.7652 6.08218 28.3752 5.43218C27.8252 5.17718 27.8902 3.81218 28.4252 3.64718Z" fill="black"/>
<path d="M22.8704 3.64706C24.1704 3.26206 24.2154 5.31706 23.3754 5.49206C22.1504 5.74706 22.2204 3.83706 22.8704 3.64706Z" fill="black"/>
</g>
<defs>
<clipPath id="clip0_677_7246">
<rect width="51.23" height="45.86" fill="white" transform="translate(0.344727 0.55249)"/>
</clipPath>
</defs>
</svg>
