<svg width="40" height="36" viewBox="0 0 40 36" fill="none" xmlns="http://www.w3.org/2000/svg">
<g clip-path="url(#clip0_783_8738)">
<path d="M25.5669 3.97726C27.4832 4.94851 29.6357 5.61976 31.2632 7.07101C33.0032 8.62351 34.0082 10.671 34.3757 12.9585C34.4657 13.5285 34.4394 14.5035 34.5894 14.9948C34.6569 15.2085 35.4144 16.0373 35.6207 16.3823C36.1757 17.316 36.5919 18.6098 36.6369 19.701C36.6519 20.0648 36.5132 20.5785 36.5694 20.8485C36.6144 21.0623 37.2182 21.9435 37.3757 22.296C37.7394 23.1173 37.9532 23.9723 38.0544 24.8685C38.0957 25.236 38.0019 25.656 38.0732 26.016C38.2569 26.9085 38.8757 27.6473 38.9694 28.8698C39.0482 29.886 38.6882 30.8385 38.7182 31.6973C38.7294 32.0235 38.9882 32.4023 39.0369 32.721C39.1644 33.5385 38.7857 34.2023 38.0207 34.4985C37.5857 34.6673 36.0257 35.106 35.5907 35.151C34.7582 35.2373 34.2069 34.866 33.8769 34.1348C33.7494 33.8535 33.6519 33.2798 33.5094 33.0848C33.4307 32.9723 33.1869 32.8598 33.0557 32.706C32.0619 31.536 31.3982 30.2535 31.2257 28.701C31.1844 28.3335 31.2782 27.9135 31.2069 27.5535C31.1844 27.4485 30.6632 26.496 30.5994 26.496C30.4869 26.4923 30.4682 26.766 30.4719 26.8673C30.4907 27.3248 30.8432 28.1085 30.8919 28.7048C30.9594 29.556 30.8844 30.4185 30.6857 31.2435C30.3744 32.541 30.0632 33.2985 28.6044 33.411C26.4069 33.5835 23.9882 33.276 21.7682 33.4073C21.2019 33.4973 20.2494 32.5823 19.8519 32.5823C19.4544 32.5823 18.4982 33.4973 17.9357 33.4073C15.7157 33.276 13.2969 33.5835 11.0994 33.411C9.96316 33.321 9.55816 32.9348 9.20191 31.8885C8.84566 30.8423 8.72566 29.751 8.81191 28.701C8.86066 28.1085 9.21316 27.321 9.23191 26.8635C9.23566 26.7623 9.21691 26.4885 9.10441 26.4923C9.04441 26.4923 8.51941 27.4448 8.49691 27.5498C8.42191 27.906 8.51566 28.3298 8.47816 28.6973C8.31691 30.2273 7.62691 31.551 6.64816 32.7023C6.51691 32.856 6.27316 32.9685 6.19441 33.081C6.05191 33.276 5.95441 33.8498 5.82691 34.131C5.50441 34.8473 4.93066 35.2523 4.10941 35.151C3.64816 35.0948 2.13691 34.671 1.68316 34.4948C0.918157 34.1985 0.539407 33.5348 0.666907 32.7173C0.715657 32.3985 0.974407 32.0198 0.985657 31.6935C1.01191 30.8348 0.655657 29.8823 0.734407 28.866C0.828157 27.6435 1.44691 26.9048 1.63066 26.0123C1.70566 25.6523 1.60816 25.2323 1.64941 24.8648C1.75066 23.9685 1.96441 23.1135 2.32816 22.2923C2.48566 21.9398 3.08566 21.0585 3.13441 20.8448C3.19441 20.5748 3.05191 20.061 3.06691 19.6973C3.10816 18.6098 3.52816 17.3123 4.08316 16.3785C4.28566 16.0373 5.08441 15.1523 5.13316 14.9273C5.26066 14.3648 5.23441 13.5623 5.32816 12.9548C5.38441 12.606 5.53441 11.4398 5.87566 11.3348C6.18316 11.241 6.58441 11.346 6.64816 11.6948C6.67816 12.2123 6.09316 14.7473 6.30691 15.0285C6.38941 15.1373 7.31566 15.5835 7.50691 15.6623C8.44441 16.0448 9.55066 16.2923 10.5632 16.3148L10.7319 14.1098C10.8707 11.8935 10.1544 9.92101 9.39316 7.89976C9.23566 7.76476 8.68441 8.38351 8.55691 8.52226C8.23441 8.87101 7.53316 10.1048 7.17691 10.1498C6.78316 10.1985 6.53566 9.91726 6.55441 9.52726C6.58066 8.99101 8.02441 7.41976 8.47441 7.02601C10.1019 5.60476 12.2319 4.93726 14.1294 3.97351C14.1144 2.83726 13.9457 1.09726 15.4532 0.838512C16.0344 0.741012 18.1644 0.741012 18.7607 0.827262C19.3082 0.906012 19.6232 1.57351 19.8519 1.57351C20.0807 1.57351 20.3957 0.906012 20.9432 0.827262C21.4907 0.748512 23.7819 0.744762 24.3144 0.857262C25.7769 1.16851 25.5744 2.84851 25.5744 3.97351L25.5669 3.97726ZM19.3044 5.69851V2.69851C19.3044 2.64601 18.6407 2.01601 18.5094 1.99351C18.1757 1.92976 15.9369 1.93726 15.6144 2.00851C15.3257 2.07226 15.3069 2.22976 15.2582 2.48476C15.1832 2.88601 15.1307 3.92476 15.3819 4.20226C15.9632 4.83976 17.6132 5.54476 18.4644 5.70226C18.6557 5.73601 19.2407 5.90476 19.3007 5.70226L19.3044 5.69851ZM20.3844 2.69851V5.69851C20.3844 5.90476 21.0669 5.72851 21.2207 5.69851C22.1244 5.53351 23.4782 4.92226 24.1719 4.31851C24.4044 4.11601 24.4382 4.10101 24.4719 3.78601C24.5132 3.35476 24.5769 2.11726 24.0744 2.00851C23.7482 1.93726 21.5132 1.92976 21.1794 1.99351C21.0594 2.01601 20.4069 2.62351 20.3844 2.69851ZM17.8044 6.65476C16.6232 6.44476 15.5319 5.74726 14.5982 5.01601C13.1732 5.67601 11.7032 6.28351 10.3457 7.07101L10.3044 7.26976L11.5157 10.401H17.8082V6.65101L17.8044 6.65476ZM27.9707 11.571H26.2607C26.1032 11.571 25.8144 11.2073 25.8032 11.0235C25.7319 9.93226 27.9782 10.6635 28.2632 10.3223L29.3732 7.34101C29.4632 6.95851 28.8032 6.73726 28.4994 6.58351C27.3894 6.02101 26.2194 5.55226 25.0944 5.01601C24.1569 5.74726 23.0807 6.45226 21.8882 6.65476V10.4048H24.0969C24.2807 10.4048 24.5694 10.806 24.5544 11.0235C24.5432 11.2073 24.2544 11.571 24.0969 11.571H21.8882V15.5723H27.9707V11.571ZM20.7182 6.90601C20.1107 7.00351 19.5744 7.00351 18.9669 6.90601V31.7385C19.5857 31.326 20.0994 31.2885 20.7182 31.7385V25.0298C20.7182 24.8348 21.0594 24.5273 21.2732 24.5123C21.4869 24.4973 21.8844 24.756 21.8844 24.9473V26.2373H24.8019L23.9694 21.8198H21.8844C21.9182 22.3898 22.0082 23.4885 21.1119 23.2185C21.0032 23.1848 20.7182 22.851 20.7182 22.776V6.90601ZM29.1369 16.3223C30.6257 16.2735 32.2757 15.8423 33.4569 14.931C33.3182 13.4085 33.1569 11.9085 32.4857 10.5135C32.2494 10.026 30.8919 7.97476 30.4307 7.90351C30.2469 7.87351 30.3332 7.94851 30.2957 8.02351C29.7969 9.11851 29.2194 10.7723 29.0619 11.9573C28.8669 13.416 29.0507 14.8673 29.1369 16.3223ZM17.8044 11.571H11.7219V15.5723H17.8044V11.571ZM10.3044 17.4885C9.41191 17.3723 8.51191 17.2148 7.65691 16.926C6.96316 16.6935 6.37816 16.311 5.69191 16.0785C4.59316 17.331 4.01191 18.981 4.25941 20.6573C5.74066 21.3398 7.34566 21.7523 8.97691 21.8648C9.62566 20.4885 10.0607 18.996 10.3044 17.4885ZM29.3844 17.4885C29.6282 18.996 30.0632 20.4885 30.7119 21.8648C32.3394 21.7448 33.9557 21.351 35.4294 20.6573C35.6732 18.9998 35.0882 17.316 33.9969 16.0785C33.3144 16.326 32.7332 16.6935 32.0319 16.926C31.1769 17.211 30.2807 17.3873 29.3844 17.4885ZM17.8044 16.7385H11.5532L10.7207 20.7398H12.5132C12.5732 20.7398 12.8244 20.0385 13.3644 19.926C13.8669 19.821 15.0744 20.0948 15.4907 20.406C15.5769 20.4698 15.6969 20.7398 15.7644 20.7398H17.6807C17.6807 20.7398 17.8044 20.6235 17.8044 20.616V16.7423V16.7385ZM28.1357 16.7385H21.8844V20.6123C21.8844 20.6123 22.0007 20.736 22.0082 20.736H23.9244C23.9882 20.736 24.1119 20.466 24.1982 20.4023C24.6144 20.091 25.8219 19.821 26.3244 19.9223C26.8644 20.0348 27.1157 20.736 27.1757 20.736H28.9682L28.1357 16.7348V16.7385ZM13.4619 27.4785L14.6394 21.441C14.7894 21.0848 13.6794 21.0285 13.6344 21.0698L12.4644 27.1148C12.3182 27.4635 13.3944 27.531 13.4619 27.4785ZM26.0507 21.0698C25.7319 21.1373 25.0157 21.0248 25.0457 21.441L26.2119 27.4335C26.2794 27.5573 27.3444 27.4748 27.2207 27.1148L26.0507 21.0698ZM8.80066 22.9898C7.12066 22.8285 5.46316 22.4535 3.92566 21.7448C3.35191 22.5398 2.95816 23.5673 2.81191 24.5385C2.78566 24.7223 2.69566 25.4723 2.73316 25.596C2.77816 25.7385 2.88691 25.7685 3.00691 25.8248C3.51691 26.0648 4.41691 26.2935 4.98316 26.4323C5.39191 26.5335 7.37566 26.9648 7.62316 26.8073C8.33191 25.626 8.74066 24.3773 8.80066 22.9898ZM32.0657 26.8073C32.4107 27.0248 36.6219 26.0498 36.8919 25.7048C37.0532 25.4948 36.8319 24.3098 36.7607 23.9873C36.5844 23.196 36.2357 22.4498 35.8044 21.771C34.2144 22.401 32.6057 22.8473 30.8882 22.9898C30.9482 24.3773 31.3532 25.626 32.0657 26.8073ZM12.3032 21.8198H10.2182C10.1769 21.8198 9.97816 22.506 9.96691 22.611C9.89941 23.2073 9.91066 25.7648 10.2069 26.1848C10.2669 26.271 11.4219 26.2823 11.5119 26.1548L12.2994 21.8198H12.3032ZM17.8044 21.8198H15.7194L14.8869 26.2373H17.8044V21.8198ZM29.4707 21.8198C29.3432 21.7335 27.6969 21.8835 27.3857 21.8198L28.1732 26.1548C28.2632 26.2823 29.4144 26.271 29.4782 26.1848C29.7744 25.7648 29.7857 23.2035 29.7182 22.611C29.7069 22.4948 29.5044 21.8423 29.4669 21.8198H29.4707ZM2.50816 26.8335C1.79941 28.0185 1.67191 29.496 2.00941 30.8235C2.56066 30.921 5.58316 31.9148 5.88316 31.7835C6.25441 31.6185 6.89566 30.336 7.03441 29.9273C7.12816 29.6498 7.44691 28.2285 7.35316 28.071C7.24066 27.8835 6.26191 27.8535 5.95816 27.7935C4.78816 27.5648 3.62941 27.2423 2.51191 26.8298L2.50816 26.8335ZM37.1807 26.8335C35.8832 27.3173 34.5369 27.6698 33.1682 27.8948C32.9432 27.9323 32.4782 27.8498 32.3394 28.071C32.2382 28.2398 32.5644 29.646 32.6582 29.9273C32.7932 30.3323 33.4382 31.6223 33.8094 31.7835C34.1057 31.9148 37.1357 30.9285 37.6832 30.8235C38.0207 29.496 37.8932 28.0223 37.1844 26.8335H37.1807ZM9.97066 30.0698H17.8044V27.321H14.6394C14.5682 27.321 14.6394 28.251 13.9944 28.551C13.5482 28.761 12.2807 28.551 11.8607 28.3073C11.3394 28.0035 11.3544 27.3773 11.3019 27.3248C11.2644 27.2873 10.2707 27.2948 10.2294 27.3285C10.0794 27.4598 9.78691 29.7248 9.97066 30.0698ZM25.0532 27.321C24.9332 27.2198 22.2894 27.3998 21.8882 27.321V30.0698H29.7219C29.8907 29.721 29.6169 27.4598 29.4632 27.3285C29.4219 27.2948 28.4282 27.2873 28.3907 27.3248C28.3382 27.3773 28.3532 28.0073 27.8319 28.3073C27.4119 28.551 26.1444 28.761 25.6982 28.551C25.0757 28.2585 25.1244 27.381 25.0532 27.321ZM17.8044 31.236H10.2219C10.1769 31.4273 10.5407 32.2373 10.6794 32.2373H17.8044V31.236ZM29.4707 31.236H21.8882V32.2373H29.0132C29.1519 32.2373 29.5194 31.431 29.4707 31.236ZM2.10691 32.076C1.89316 32.1435 1.64566 33.0998 1.97191 33.3585C2.17816 33.5235 4.25566 34.0335 4.51066 33.9885C4.58566 33.9735 4.62691 33.9623 4.67941 33.906C4.78066 33.8048 5.08441 32.8598 4.97191 32.781C4.84816 32.691 2.24566 32.031 2.10691 32.0798V32.076ZM37.3682 32.0873C37.1207 32.1135 34.8294 32.7023 34.7169 32.781C34.6044 32.8598 34.9082 33.8048 35.0094 33.906C35.0657 33.9623 35.1069 33.9773 35.1782 33.9885C35.4519 34.0373 37.5782 33.5085 37.7657 33.3248C37.9532 33.141 37.8932 32.8898 37.8482 32.6498C37.7882 32.316 37.7282 32.0498 37.3682 32.0873Z" fill="black"/>
<path d="M21.6929 3.08859C22.8517 2.73234 22.6979 4.91484 21.6554 4.42734C21.2429 4.23609 21.2917 3.21234 21.6929 3.08859Z" fill="black"/>
<path d="M17.5268 3.08845C18.5018 2.7997 18.5356 4.34095 17.9056 4.4722C16.9868 4.66345 17.0393 3.23095 17.5268 3.08845Z" fill="black"/>
</g>
<defs>
<clipPath id="clip0_783_8738">
<rect width="38.4225" height="34.395" fill="white" transform="translate(0.633789 0.767334)"/>
</clipPath>
</defs>
</svg>
