<svg width="45" height="22" viewBox="0 0 45 22" fill="none" xmlns="http://www.w3.org/2000/svg">
<g clip-path="url(#clip0_783_8745)">
<path d="M30.8537 17.4624V19.1772C30.8537 19.2164 30.6148 19.7919 30.5679 19.8859C30.2194 20.5554 29.6243 20.8372 28.9118 20.9939C24.7461 20.7668 20.2084 21.3266 16.0858 21.0095C15.2519 20.943 14.5119 20.6572 14.1087 19.8898C14.0578 19.7958 13.8229 19.2203 13.8229 19.1812V17.4663C11.0353 17.2745 8.10679 16.9182 5.39361 16.2174C3.72577 15.7867 0.538856 14.9137 0.331354 12.8739C0.159089 11.1747 0.174749 7.61587 0.323524 5.90496C0.527111 3.60287 4.75544 2.65541 6.62687 2.25215C13.0516 0.870113 21.015 0.639121 27.5885 0.987567C30.9907 1.16766 41.5028 2.06423 43.7266 4.53467C44.1064 4.95359 44.3021 5.45081 44.3491 6.01459C44.49 7.66285 44.5253 11.2648 44.3491 12.8739C44.1103 14.9998 40.665 15.8768 38.9306 16.3035C36.3192 16.9456 33.5316 17.2862 30.8576 17.4624H30.8537ZM30.8537 9.05664C33.6373 8.70036 36.4562 8.44196 39.1733 7.69809C39.8624 7.51016 42.7752 6.60577 42.9005 5.8893C42.9279 5.74444 42.5834 5.45472 42.4659 5.34902C40.0346 3.16829 28.6416 2.40484 25.1611 2.30305C19.1553 2.12687 10.7064 2.42442 4.97078 4.13141C3.85105 4.4642 2.51599 4.87137 1.77212 5.80709C1.64684 6.52747 4.93163 7.54149 5.49932 7.69418C8.2125 8.43805 11.0353 8.68862 13.815 9.05272C13.6545 7.73724 14.0969 6.50398 15.4437 6.09289L29.1232 6.07723C30.5209 6.37086 31.022 7.74116 30.8497 9.05272L30.8537 9.05664ZM15.2597 15.6928V19.0676C15.2597 19.3182 15.8118 19.6471 16.0858 19.5687C20.1145 19.2829 24.6247 19.9289 28.5946 19.5687C29.2328 19.51 29.3659 19.3652 29.4246 18.7387C29.7261 15.4383 29.1858 11.6837 29.4246 8.33234C29.4364 8.02696 29.3268 7.74899 29.0879 7.56498L15.8666 7.50625C15.6473 7.42795 15.2636 7.87427 15.2636 8.0113V11.3861H16.7005V9.33853C16.7005 9.08796 17.2525 8.75909 17.5266 8.83739C20.596 9.05664 24.0257 8.56333 27.0482 8.83739C27.7137 8.89612 27.9291 9.00966 27.9878 9.6674C28.1992 12.1457 27.8155 14.9097 27.9878 17.4193C28.0191 17.713 27.8821 17.9166 27.6472 18.0732H17.0333C16.9667 18.0105 16.7005 17.7756 16.7005 17.7443V15.6967H15.2636L15.2597 15.6928ZM1.76821 7.84295V12.9874C1.76821 13.2537 3.00147 13.8957 3.27553 14.021C6.44286 15.4579 10.4206 15.5949 13.819 16.1391V15.6967C10.0604 15.9551 10.08 11.0142 13.819 11.3822V10.4504C9.73157 10.0158 5.52281 9.60084 1.76429 7.84295H1.76821ZM42.9083 7.84295C39.2399 9.54603 35.1368 10.0393 31.1277 10.3878C31.0377 10.3878 30.8497 10.4935 30.8497 10.5522V16.1391C34.2363 15.591 38.2454 15.4814 41.3971 14.021C41.6751 13.8918 42.9044 13.2537 42.9044 12.9874V7.84295H42.9083ZM26.5392 10.2742H18.1334V11.3822C20.322 10.9085 21.9702 13.6412 20.181 15.1447C19.5507 15.6732 18.2117 15.6223 18.1334 15.6967C18.0943 15.7319 18.1608 16.5189 18.1334 16.6911H26.5392V10.2782V10.2742ZM12.6327 12.96C12.0846 13.4768 12.5152 14.1502 13.2239 14.2481C14.3005 14.4008 17.5266 14.3812 18.6346 14.2598C19.8248 14.1267 19.6525 12.9522 18.9634 12.8269C17.1037 12.9444 15.0444 12.6625 13.2121 12.8191C13.032 12.8347 12.7736 12.8347 12.6366 12.9639L12.6327 12.96Z" fill="black"/>
<path d="M32.04 12.6194C33.101 12.3806 33.2302 13.6961 32.545 13.8997C31.4449 14.2246 31.1708 12.8152 32.04 12.6194Z" fill="black"/>
<path d="M34.8005 12.2907C36.0846 11.9109 36.1786 13.8059 34.8944 13.5944C34.3189 13.5005 34.1819 12.4747 34.8005 12.2907Z" fill="black"/>
<path d="M24.6915 12.964C25.3297 12.4511 26.1989 13.1832 25.7721 13.8762C25.2005 14.808 23.8772 13.6217 24.6915 12.964Z" fill="black"/>
<path d="M22.0836 12.8425C23.1876 12.5137 23.3951 14.2833 22.2989 14.2246C21.4493 14.1776 21.4885 13.0187 22.0836 12.8425Z" fill="black"/>
</g>
<defs>
<clipPath id="clip0_783_8745">
<rect width="44.2605" height="20.2647" fill="white" transform="translate(0.206055 0.842773)"/>
</clipPath>
</defs>
</svg>
