<svg width="60" height="28" viewBox="0 0 60 28" fill="none" xmlns="http://www.w3.org/2000/svg">
<g clip-path="url(#clip0_677_7250)">
<path d="M41.3046 22.8122V25.0986C41.3046 25.1508 40.9861 25.9182 40.9235 26.0435C40.4589 26.9361 39.6654 27.312 38.7154 27.5208C33.1611 27.218 27.1109 27.9645 21.6141 27.5417C20.5022 27.4529 19.5156 27.0718 18.9779 26.0487C18.91 25.9234 18.5968 25.156 18.5968 25.1038V22.8174C14.8801 22.5616 10.9754 22.0866 7.35782 21.1522C5.13403 20.578 0.884816 19.4139 0.608147 16.6942C0.37846 14.4286 0.39934 9.68347 0.597707 7.40226C0.869155 4.3328 6.50693 3.06952 9.00217 2.53184C17.5685 0.689123 28.1863 0.381133 36.9509 0.845728C41.4873 1.08586 55.5034 2.28127 58.4685 5.5752C58.9748 6.13376 59.2358 6.79672 59.2985 7.54842C59.4864 9.74611 59.5334 14.5487 59.2985 16.6942C58.98 19.5287 54.3863 20.698 52.0738 21.267C48.5919 22.1231 44.8752 22.5773 41.3098 22.8122H41.3046ZM41.3046 11.6045C45.0161 11.1295 48.7746 10.7849 52.3974 9.79309C53.3162 9.54252 57.2 8.33667 57.367 7.38138C57.4036 7.18823 56.9442 6.80194 56.7876 6.66099C53.5458 3.75336 38.3552 2.73543 33.7144 2.5997C25.7067 2.3648 14.4416 2.76153 6.79404 5.03752C5.30108 5.48123 3.521 6.02413 2.52917 7.27175C2.36212 8.23226 6.74184 9.58429 7.49877 9.78787C11.1163 10.7797 14.8801 11.1138 18.5864 11.5993C18.3724 9.84529 18.9622 8.20094 20.758 7.65282L38.9972 7.63194C40.8608 8.02346 41.529 9.85051 41.2993 11.5993L41.3046 11.6045ZM20.5126 20.4527V24.9525C20.5126 25.2865 21.2487 25.725 21.6141 25.6206C26.9856 25.2396 32.9993 26.1009 38.2925 25.6206C39.1434 25.5423 39.3209 25.3492 39.3992 24.514C39.8012 20.1134 39.0808 15.1072 39.3992 10.6388C39.4149 10.2316 39.2687 9.86095 38.9503 9.61561L21.3218 9.5373C21.0294 9.4329 20.5179 10.028 20.5179 10.2107V14.7105H22.4337V11.9803C22.4337 11.6463 23.1697 11.2078 23.5351 11.3122C27.6277 11.6045 32.2006 10.9467 36.2306 11.3122C37.118 11.3905 37.4051 11.5418 37.4834 12.4188C37.7653 15.7232 37.2537 19.4086 37.4834 22.7548C37.5252 23.1463 37.3424 23.4177 37.0292 23.6265H22.8774C22.7886 23.543 22.4337 23.2298 22.4337 23.188V20.4579H20.5179L20.5126 20.4527ZM2.52395 9.98624V16.8455C2.52395 17.2005 4.1683 18.0566 4.53371 18.2237C8.75683 20.1395 14.0605 20.3222 18.5916 21.0478V20.4579C13.5803 20.8024 13.6064 14.2146 18.5916 14.7053V13.4629C13.1418 12.8834 7.53009 12.3301 2.51873 9.98624H2.52395ZM57.3774 9.98624C52.4862 12.257 47.0154 12.9148 41.67 13.3793C41.5499 13.3793 41.2993 13.5203 41.2993 13.5986V21.0478C45.8148 20.3169 51.1602 20.1708 55.3625 18.2237C55.7331 18.0514 57.3722 17.2005 57.3722 16.8455V9.98624H57.3774ZM35.5519 13.228H24.3442V14.7053C27.2623 14.0736 29.46 17.7173 27.0744 19.7218C26.2339 20.4266 24.4486 20.3587 24.3442 20.4579C24.292 20.5049 24.3808 21.5541 24.3442 21.7838H35.5519V13.2332V13.228ZM17.0099 16.809C16.2791 17.4981 16.8533 18.3959 17.7982 18.5264C19.2337 18.73 23.5351 18.7039 25.0124 18.5421C26.5994 18.3646 26.3697 16.7986 25.4509 16.6315C22.9713 16.7881 20.2255 16.4123 17.7825 16.6211C17.5424 16.6419 17.1978 16.6419 17.0151 16.8142L17.0099 16.809Z" fill="black"/>
<path d="M42.8863 16.3549C44.3009 16.0365 44.4732 17.7904 43.5597 18.0619C42.0928 18.4952 41.7274 16.6159 42.8863 16.3549Z" fill="black"/>
<path d="M46.5663 15.9164C48.2785 15.4101 48.4038 17.9366 46.6916 17.6547C45.9242 17.5294 45.7415 16.1618 46.5663 15.9164Z" fill="black"/>
<path d="M33.0881 16.8143C33.9389 16.1304 35.0978 17.1066 34.5288 18.0306C33.7667 19.273 32.0023 17.6913 33.0881 16.8143Z" fill="black"/>
<path d="M29.6118 16.6523C31.0838 16.2138 31.3605 18.5733 29.8989 18.495C28.7661 18.4324 28.8183 16.8872 29.6118 16.6523Z" fill="black"/>
</g>
<defs>
<clipPath id="clip0_677_7250">
<rect width="59.014" height="27.0196" fill="white" transform="translate(0.441406 0.652588)"/>
</clipPath>
</defs>
</svg>
