<svg width="15" height="38" viewBox="0 0 15 38" fill="none" xmlns="http://www.w3.org/2000/svg">
<g clip-path="url(#clip0_783_8747)">
<path d="M5.40423 16.0074L3.93997 21.9388L10.5135 18.8615C10.6466 18.654 10.0162 17.178 10.0867 16.7748C10.1729 16.2854 10.8423 16.2149 11.1047 16.6221L14.5774 30.2937L14.5421 30.5991C12.4515 32.8542 10.2707 35.0506 8.09001 37.2235C7.73764 37.5562 7.53014 37.4858 7.18561 37.2235C6.1716 36.46 4.62121 34.6865 3.66592 33.7077C2.95336 32.9755 1.37948 31.5387 0.874432 30.8183C0.792214 30.7009 0.702166 30.5991 0.694336 30.4503L6.19509 8.4512C6.20683 8.36899 6.15202 8.33375 6.10504 8.27894C5.53734 7.61337 3.87733 7.06134 3.34488 6.2509L3.31355 6.03557C3.72464 4.53608 3.62285 2.52762 4.0496 1.08685C4.12398 0.832372 4.32757 0.566143 4.60946 0.562228C6.52004 0.711003 8.69293 0.378217 10.5722 0.562228C10.9363 0.597464 11.1086 0.722748 11.2221 1.08685C11.6606 2.4963 11.5431 4.55957 11.9581 6.03557C11.9738 6.10996 11.9503 6.18043 11.9268 6.2509C11.7937 6.70506 9.50728 7.89917 9.08445 8.38073L10.674 14.7037C10.7993 15.0873 10.6309 15.5063 10.1963 15.5376C9.41332 15.5885 9.54643 14.1125 9.29978 14.0968L5.3964 16.0074H5.40423ZM10.118 1.64672H5.29461L10.4782 4.17197C10.5957 4.17197 10.2903 2.06564 10.2512 1.87379C10.2316 1.772 10.2159 1.70153 10.118 1.64672ZM10.7797 5.53835L4.93442 2.82125C4.90309 3.04442 4.69559 3.73348 4.83654 3.85876C5.5765 4.04277 9.7461 6.39185 10.1024 6.32529C10.1415 6.31746 10.7523 5.90637 10.7719 5.87114C10.811 5.80066 10.8188 5.60491 10.7758 5.54227L10.7797 5.53835ZM8.99049 7.14747L4.57422 4.98632L4.49984 5.87114L7.54972 7.92658C7.87859 8.02054 8.6068 7.21011 8.9944 7.15138L8.99049 7.14747ZM6.46523 11.9278C6.78235 11.7086 8.35623 11.1644 8.49718 10.9373C8.60289 10.769 8.1409 9.05022 8.04303 9.0463C7.96864 9.04239 7.52231 9.44565 7.22868 9.0463C6.86457 9.93504 6.69231 10.9725 6.46523 11.9318V11.9278ZM8.90044 12.0179L6.12853 13.302L5.83489 14.5431L8.9944 13.0554C9.20973 12.8244 8.83779 12.335 8.90044 12.0179ZM10.8815 19.9538L10.6074 19.9969L3.57195 23.4226L3.30964 24.6481L6.09329 23.3404C6.73146 23.3835 6.96245 23.9629 6.4065 24.3623C5.81532 24.7929 3.14129 25.7482 2.90638 26.0928L1.87279 30.1997C1.88845 30.4385 2.68713 31.0336 2.8594 31.2803L12.4632 26.7231L11.4218 22.0328C11.3122 22.0093 11.2495 22.0523 11.1595 22.0837C10.3177 22.3812 8.86129 23.3913 8.10958 23.544C7.42052 23.685 7.11122 22.9763 7.60062 22.5848L11.0498 20.9365L10.8815 19.9538ZM12.7333 27.7998L3.75988 32.1729C3.9987 32.3374 4.28451 32.8816 4.5938 32.8385C6.86457 31.7266 9.18624 30.7087 11.457 29.5929C11.6763 29.4833 12.9604 28.8764 13.0074 28.7942C13.0661 28.7002 12.8312 27.8115 12.7294 27.8037L12.7333 27.7998ZM5.38465 33.6607C5.32984 33.7351 5.79574 34.2871 5.87796 34.3811C6.0698 34.6003 7.54972 36.1076 7.67109 36.0881L13.3284 30.372C13.485 30.2193 13.348 30.047 13.3206 29.8748L5.38465 33.6646V33.6607Z" fill="black"/>
</g>
<defs>
<clipPath id="clip0_783_8747">
<rect width="13.883" height="36.9431" fill="white" transform="translate(0.694336 0.503418)"/>
</clipPath>
</defs>
</svg>
