<svg width="19" height="50" viewBox="0 0 19 50" fill="none" xmlns="http://www.w3.org/2000/svg">
<g clip-path="url(#clip0_677_7252)">
<path d="M6.37263 21.2056L4.42029 29.1141L13.1849 25.0111C13.3624 24.7344 12.522 22.7664 12.616 22.2287C12.7308 21.5762 13.6234 21.4822 13.9732 22.0251L18.6035 40.254L18.5565 40.6611C15.7689 43.668 12.8613 46.5965 9.95367 49.4937C9.48385 49.9374 9.20718 49.8434 8.74781 49.4937C7.39579 48.4757 5.3286 46.111 4.05488 44.8059C3.10481 43.8298 1.0063 41.914 0.332901 40.9535C0.223278 40.7969 0.103214 40.6611 0.0927734 40.4628L7.42711 11.1307C7.44277 11.021 7.36968 10.9741 7.30704 10.901C6.55012 10.0135 4.33677 9.2775 3.62683 8.19692L3.58506 7.90982C4.13318 5.91049 3.99746 3.23255 4.56646 1.31153C4.66564 0.972215 4.93709 0.617244 5.31294 0.612023C7.86038 0.81039 10.7576 0.366676 13.2633 0.612023C13.7487 0.659005 13.9784 0.82605 14.1298 1.31153C14.7145 3.19079 14.5579 5.94181 15.1112 7.90982C15.1321 8.009 15.1008 8.10296 15.0694 8.19692C14.8919 8.80246 11.8434 10.3946 11.2796 11.0367L13.399 19.4673C13.566 19.9788 13.3416 20.5374 12.7621 20.5792C11.7181 20.647 11.8956 18.679 11.5667 18.6581L6.36219 21.2056H6.37263ZM12.6577 2.05801H6.22647L13.138 5.42502C13.2946 5.42502 12.8874 2.61657 12.8352 2.36078C12.8091 2.22505 12.7882 2.13109 12.6577 2.05801ZM13.5399 7.24685L5.74621 3.62406C5.70445 3.92161 5.42778 4.84036 5.61571 5.0074C6.60232 5.25275 12.1618 8.38485 12.6368 8.29611C12.689 8.28567 13.5034 7.73755 13.5295 7.69057C13.5817 7.59661 13.5921 7.3356 13.5347 7.25207L13.5399 7.24685ZM11.1543 9.39234L5.26596 6.51081L5.16677 7.69057L9.23328 10.4312C9.67178 10.5564 10.6427 9.47587 11.1595 9.39756L11.1543 9.39234ZM7.7873 15.7662C8.21013 15.4738 10.3086 14.7482 10.4966 14.4455C10.6375 14.221 10.0215 11.9293 9.89102 11.9241C9.79184 11.9189 9.19674 12.4566 8.80523 11.9241C8.31976 13.1091 8.09007 14.4924 7.7873 15.7714V15.7662ZM11.0342 15.8862L7.33836 17.5984L6.94685 19.2532L11.1595 17.2696C11.4466 16.9616 10.9507 16.3091 11.0342 15.8862ZM13.6756 26.4675L13.3102 26.5249L3.9296 31.0926L3.57984 32.7265L7.29138 30.9829C8.14227 31.0404 8.45026 31.813 7.709 32.3454C6.92075 32.9196 3.35538 34.1934 3.04217 34.6527L1.66404 40.1287C1.68492 40.4471 2.74984 41.2406 2.97953 41.5694L15.7846 35.4932L14.396 29.2394C14.2499 29.2081 14.1663 29.2655 14.0463 29.3073C12.9239 29.704 10.982 31.0508 9.97977 31.2544C9.06102 31.4423 8.64863 30.4975 9.30115 29.9755L13.9001 27.7778L13.6756 26.4675ZM16.1448 36.9287L4.18016 42.7596C4.49859 42.9789 4.87967 43.7045 5.29206 43.6471C8.31975 42.1645 11.4153 40.8073 14.443 39.3196C14.7353 39.1734 16.4476 38.3643 16.5102 38.2546C16.5885 38.1294 16.2753 36.9444 16.1396 36.9339L16.1448 36.9287ZM6.34653 44.7433C6.27345 44.8425 6.89465 45.5785 7.00427 45.7038C7.26006 45.9961 9.23328 48.0059 9.39511 47.9798L16.9382 40.3584C17.1471 40.1548 16.9643 39.9251 16.9278 39.6954L6.34653 44.7485V44.7433Z" fill="black"/>
</g>
<defs>
<clipPath id="clip0_677_7252">
<rect width="18.5107" height="49.2575" fill="white" transform="translate(0.0927734 0.533691)"/>
</clipPath>
</defs>
</svg>
