<svg width="41" height="34" viewBox="0 0 41 34" fill="none" xmlns="http://www.w3.org/2000/svg">
<g clip-path="url(#clip0_783_8735)">
<path d="M31.2876 4.7737V1.95745C31.2876 1.92745 30.9914 1.6612 30.9201 1.6312C24.2226 1.52245 17.4726 1.52245 10.7788 1.6312C10.6926 1.69495 10.5426 1.7737 10.4901 1.8637C10.2763 2.22745 10.4638 4.70245 10.3851 5.3962C10.3026 6.1312 9.97635 7.1662 9.7776 7.9087C8.52885 12.6112 6.4926 17.4525 4.18635 21.7237C3.9576 22.1437 2.43885 24.57 2.43885 24.7425C2.43885 25.1399 4.8801 26.715 5.32635 26.9662C5.90385 27.2887 7.35135 27.57 7.08135 28.4287C6.85635 29.1412 6.0726 28.7737 5.6151 28.5862C4.30635 28.0424 2.6901 26.9325 1.65885 25.9575C1.3626 25.6762 0.837599 25.2637 0.882599 24.84C3.84135 19.8712 6.33135 14.73 8.01135 9.17245C8.32635 8.1337 8.84385 6.5887 8.9901 5.55745C9.2526 3.68245 8.2026 0.622451 10.8876 0.262451L31.0588 0.288701C32.0301 0.506201 32.6001 1.2337 32.6863 2.21245C32.7313 2.7412 32.7651 5.2537 32.6451 5.6437C32.5551 5.92495 32.2401 6.09745 31.9514 6.07495H14.5288C14.0301 6.02995 13.7188 5.6062 13.9251 5.1187C13.9438 5.07745 14.2438 4.76995 14.2701 4.76995H31.2951L31.2876 4.7737Z" fill="black"/>
<path d="M20.1872 31.5373L20.1947 22.316C20.2847 21.461 21.3947 21.4348 21.4997 22.316C21.2822 25.4135 21.781 28.8898 21.4997 31.9385C21.481 32.1485 21.4847 32.2948 21.3197 32.4485C21.1097 32.6435 19.9135 33.0298 19.5722 33.1273C16.2835 34.061 12.586 33.6935 9.57097 32.081C8.90347 31.7248 8.02972 31.4098 8.31097 30.5323C8.49097 29.966 9.31972 28.8448 9.64597 28.226C11.6597 24.371 12.9722 20.2798 13.6922 15.9823C13.7935 15.3823 13.7935 14.1598 13.9885 13.6798C14.206 13.136 15.0122 13.1173 15.2185 13.616C15.3835 14.0098 15.061 15.7798 14.9785 16.316C14.2022 21.3748 12.391 26.2423 9.81472 30.641C12.9235 32.5498 16.7822 32.756 20.1947 31.541L20.1872 31.5373Z" fill="black"/>
<path d="M26.8431 13.2824C27.1956 13.1774 27.5743 13.3274 27.7131 13.6762C27.9043 14.1524 27.9081 15.3749 28.0093 15.9787C28.7218 20.2312 30.0268 24.3524 32.0218 28.1699C32.3518 28.7999 33.2031 29.9549 33.3868 30.5324C33.6643 31.4099 32.8018 31.7212 32.1268 32.0812C30.0943 33.1687 27.2331 33.8324 24.9231 33.6224C23.9968 33.5399 23.4568 32.9212 24.3531 32.2762C25.0093 32.2274 25.6318 32.3549 26.3068 32.3212C28.2006 32.2349 30.2781 31.6237 31.8868 30.6337C29.7231 26.9399 28.0918 22.9199 27.1731 18.7199C26.9256 17.5874 26.6631 16.2562 26.5356 15.1124C26.4793 14.5987 26.2206 13.4662 26.8468 13.2787L26.8431 13.2824Z" fill="black"/>
<path d="M32.5626 7.64972C32.8701 7.58222 33.2001 7.65347 33.3276 7.97222C34.9888 13.9385 37.6588 19.541 40.8163 24.8397C40.8613 25.271 40.2613 25.7585 39.9501 26.0472C39.1888 26.756 38.0901 27.536 37.1788 28.0422C36.6201 28.3497 35.1013 29.2947 34.6738 28.5522C34.1601 27.6485 35.7838 27.296 36.3688 26.9735C36.8188 26.726 39.2601 25.1547 39.2563 24.7497C36.9463 20.9322 34.9551 16.916 33.4476 12.7085C33.0538 11.606 32.2326 9.50972 32.0788 8.43722C32.0301 8.08472 32.1913 7.73222 32.5588 7.65347L32.5626 7.64972Z" fill="black"/>
<path d="M20.7841 18.131C21.7141 17.996 21.8378 20.0098 20.8516 20.0098C19.9553 20.0098 19.9253 18.2548 20.7841 18.131Z" fill="black"/>
</g>
<defs>
<clipPath id="clip0_783_8735">
<rect width="39.945" height="33.3975" fill="white" transform="translate(0.875 0.266113)"/>
</clipPath>
</defs>
</svg>
