<svg width="54" height="45" viewBox="0 0 54 45" fill="none" xmlns="http://www.w3.org/2000/svg">
<g clip-path="url(#clip0_677_7243)">
<path d="M40.5514 6.22789V2.47289C40.5514 2.43289 40.1564 2.07789 40.0614 2.03789C31.1314 1.89289 22.1314 1.89289 13.2064 2.03789C13.0914 2.12289 12.8914 2.22789 12.8214 2.34789C12.5364 2.83289 12.7864 6.13289 12.6814 7.05789C12.5714 8.03789 12.1364 9.41789 11.8714 10.4079C10.2064 16.6779 7.49143 23.1329 4.41643 28.8279C4.11143 29.3879 2.08643 32.6229 2.08643 32.8529C2.08643 33.3829 5.34143 35.4829 5.93643 35.8179C6.70643 36.2479 8.63643 36.6229 8.27643 37.7679C7.97643 38.7179 6.93143 38.2279 6.32143 37.9779C4.57643 37.2529 2.42143 35.7729 1.04643 34.4729C0.651433 34.0979 -0.0485665 33.5479 0.0114335 32.9829C3.95643 26.3579 7.27643 19.5029 9.51643 12.0929C9.93643 10.7079 10.6264 8.64789 10.8214 7.27289C11.1714 4.77289 9.77143 0.692891 13.3514 0.212891L40.2464 0.247891C41.5414 0.537891 42.3014 1.50789 42.4164 2.81289C42.4764 3.51789 42.5214 6.86789 42.3614 7.38789C42.2414 7.76289 41.8214 7.99289 41.4364 7.96289H18.2064C17.5414 7.90289 17.1264 7.33789 17.4014 6.68789C17.4264 6.63289 17.8264 6.22289 17.8614 6.22289H40.5614L40.5514 6.22789Z" fill="black"/>
<path d="M25.7509 41.9129L25.7609 29.6179C25.8809 28.4779 27.3609 28.4429 27.5009 29.6179C27.2109 33.7479 27.8759 38.3829 27.5009 42.4479C27.4759 42.7279 27.4809 42.9229 27.2609 43.1279C26.9809 43.3879 25.3859 43.9029 24.9309 44.0329C20.5459 45.2779 15.6159 44.7879 11.5959 42.6379C10.7059 42.1629 9.54093 41.7429 9.91593 40.5729C10.1559 39.8179 11.2609 38.3229 11.6959 37.4979C14.3809 32.3579 16.1309 26.9029 17.0909 21.1729C17.2259 20.3729 17.2259 18.7429 17.4859 18.1029C17.7759 17.3779 18.8509 17.3529 19.1259 18.0179C19.3459 18.5429 18.9159 20.9029 18.8059 21.6179C17.7709 28.3629 15.3559 34.8529 11.9209 40.7179C16.0659 43.2629 21.2109 43.5379 25.7609 41.9179L25.7509 41.9129Z" fill="black"/>
<path d="M34.6267 17.5727C35.0967 17.4327 35.6017 17.6327 35.7867 18.0977C36.0417 18.7327 36.0467 20.3627 36.1817 21.1677C37.1317 26.8377 38.8717 32.3327 41.5317 37.4227C41.9717 38.2627 43.1067 39.8027 43.3517 40.5727C43.7217 41.7427 42.5717 42.1577 41.6717 42.6377C38.9617 44.0877 35.1467 44.9727 32.0667 44.6927C30.8317 44.5827 30.1117 43.7577 31.3067 42.8977C32.1817 42.8327 33.0117 43.0027 33.9117 42.9577C36.4367 42.8427 39.2067 42.0277 41.3517 40.7077C38.4667 35.7827 36.2917 30.4227 35.0667 24.8227C34.7367 23.3127 34.3867 21.5377 34.2167 20.0127C34.1417 19.3277 33.7967 17.8177 34.6317 17.5677L34.6267 17.5727Z" fill="black"/>
<path d="M42.252 10.0627C42.662 9.97274 43.102 10.0677 43.272 10.4927C45.487 18.4477 49.047 25.9177 53.257 32.9827C53.317 33.5577 52.517 34.2077 52.102 34.5927C51.087 35.5377 49.622 36.5777 48.407 37.2527C47.662 37.6627 45.637 38.9227 45.067 37.9327C44.382 36.7277 46.547 36.2577 47.327 35.8277C47.927 35.4977 51.182 33.4027 51.177 32.8627C48.097 27.7727 45.442 22.4177 43.432 16.8077C42.907 15.3377 41.812 12.5427 41.607 11.1127C41.542 10.6427 41.757 10.1727 42.247 10.0677L42.252 10.0627Z" fill="black"/>
<path d="M26.5461 24.038C27.7861 23.858 27.9511 26.543 26.6361 26.543C25.4411 26.543 25.4011 24.203 26.5461 24.038Z" fill="black"/>
</g>
<defs>
<clipPath id="clip0_677_7243">
<rect width="53.26" height="44.53" fill="white" transform="translate(0 0.217529)"/>
</clipPath>
</defs>
</svg>
