<svg width="41" height="30" viewBox="0 0 41 30" fill="none" xmlns="http://www.w3.org/2000/svg">
<g clip-path="url(#clip0_783_8748)">
<path d="M28.931 2.82429C28.9975 2.89867 30.4657 3.35283 30.7633 3.47811C37.7439 6.47318 40.5276 11.9544 40.0343 19.4714C39.9638 20.5402 39.7367 22.0945 38.9067 22.8306C37.3446 24.2204 34.2908 22.8149 32.388 23.1399C28.9936 27.5326 23.6495 30.1166 18.0391 29.6546C15.2985 29.4315 14.1201 27.7754 11.8806 26.7457C9.52763 25.6651 5.51463 25.117 3.0481 25.8805C2.36295 26.0919 2.0654 26.6008 1.24714 26.1663C0.624635 25.8335 0.495436 25.023 0.808646 24.4201C1.05921 23.9425 2.79753 22.7484 3.3339 22.3608C5.02524 21.1353 6.81836 20.0313 8.5097 18.8097C9.09305 14.3348 10.5456 9.0415 14.1396 6.05818C16.2695 4.29246 18.9983 3.27061 21.6763 2.6716C21.9699 2.60504 23.5634 2.40537 23.6338 2.3349C23.6769 2.29183 23.7865 1.56753 24.0371 1.22692C25.0863 -0.20602 27.8269 -0.0729061 28.606 1.53229C28.7548 1.83376 28.884 2.76947 28.9271 2.82037L28.931 2.82429ZM27.545 2.35056C27.2436 1.51663 26.0534 1.36003 25.3643 1.78286C25.0981 1.94338 24.9062 2.12739 25.3486 2.15871C26.0886 2.21353 26.8012 2.11565 27.545 2.35447V2.35056ZM15.8584 18.7236C19.9575 19.675 24.0293 20.7869 28.191 21.4603C28.2811 21.472 28.3241 21.4368 28.375 21.3702C28.5042 21.2058 28.8958 19.4127 28.978 19.0446C29.9411 14.7928 30.8181 7.38149 27.1026 4.20633C26.21 3.44288 26.0495 3.43505 24.9336 3.78741C19.057 5.64318 16.4261 13.1524 15.8545 18.7236H15.8584ZM21.4022 4.10845C17.8903 4.96194 14.6838 6.58281 12.7419 9.73448C11.5048 11.7429 10.0679 15.8303 9.95438 18.1716C9.95438 18.2499 9.87216 18.3243 9.9857 18.3947L14.5312 18.4456C15.2359 13.125 17.0956 7.55376 21.3983 4.10453L21.4022 4.10845ZM29.0093 4.20633L29.761 5.45525C32.1257 10.4353 31.0921 16.398 29.7062 21.519C29.7532 21.6208 29.8276 21.6482 29.9333 21.6639C31.2096 21.8557 32.7208 21.7735 34.0285 21.8596C34.8193 21.9105 35.6963 22.1063 36.4676 22.1493C37.4464 22.2042 38.1511 22.1728 38.4408 21.1001C38.9968 19.0329 38.8128 15.6542 38.3234 13.5674C37.2115 8.83009 33.4764 5.70973 29.0093 4.20633ZM30.6654 23.0263C25.6658 22.8032 20.9246 21.0335 16.0581 20.1291C13.9282 19.7337 11.7397 19.4479 9.57461 19.7337C7.67186 21.0296 5.68689 22.2707 3.81938 23.6293C3.43178 23.9111 2.97763 24.2048 2.68008 24.5845C5.67123 23.8328 9.46499 24.2009 12.2721 25.4772C13.7873 26.1663 15.1341 27.5091 16.6727 28.0025C21.0185 29.3962 27.1026 27.0472 30.1173 23.7937C30.1917 23.7115 30.7476 23.0929 30.6693 23.0263H30.6654Z" fill="black"/>
</g>
<defs>
<clipPath id="clip0_783_8748">
<rect width="39.4449" height="29.4691" fill="white" transform="translate(0.643555 0.240479)"/>
</clipPath>
</defs>
</svg>
