<svg width="53" height="40" viewBox="0 0 53 40" fill="none" xmlns="http://www.w3.org/2000/svg">
<g clip-path="url(#clip0_677_7254)">
<path d="M37.7407 3.96152C37.8294 4.0607 39.787 4.66624 40.1837 4.83328C49.4913 8.82671 53.2028 16.1349 52.5451 26.1577C52.4511 27.5828 52.1483 29.6552 51.0416 30.6366C48.9588 32.4897 44.8871 30.6157 42.3501 31.049C37.8242 36.906 30.6987 40.3513 23.2182 39.7353C19.564 39.4378 17.9928 37.2296 15.0068 35.8567C11.8695 34.416 6.51885 33.6851 3.23015 34.7031C2.31662 34.985 1.91988 35.6636 0.828869 35.0841C-0.00113732 34.6404 -0.173403 33.5599 0.244211 32.756C0.578301 32.1191 2.89605 30.5269 3.61122 30.0101C5.86633 28.3762 8.25716 26.9041 10.5123 25.2755C11.2901 19.3088 13.2268 12.2511 18.0189 8.27337C20.8586 5.91908 24.4971 4.55661 28.0677 3.75793C28.4592 3.66919 30.5838 3.40296 30.6778 3.30899C30.7352 3.25157 30.8814 2.28584 31.2155 1.83169C32.6145 -0.0788931 36.2686 0.0985926 37.3074 2.23886C37.5058 2.64081 37.678 3.88843 37.7354 3.9563L37.7407 3.96152ZM35.8927 3.32988C35.4908 2.21798 33.9038 2.00917 32.9851 2.57295C32.6301 2.78698 32.3743 3.03233 32.9642 3.07409C33.9508 3.14717 34.9009 3.01667 35.8927 3.3351V3.32988ZM20.3105 25.1606C25.776 26.4291 31.205 27.9116 36.7541 28.8095C36.8741 28.8252 36.9315 28.7782 36.9994 28.6894C37.1717 28.4702 37.6937 26.0794 37.8033 25.5887C39.0875 19.9196 40.2568 10.0378 35.3028 5.80423C34.1126 4.7863 33.8986 4.77586 32.4109 5.24568C24.5754 7.72004 21.0675 17.7323 20.3053 25.1606H20.3105ZM27.7023 5.67373C23.0198 6.81173 18.7445 8.97287 16.1553 13.1751C14.5057 15.8531 12.5899 21.3029 12.4385 24.4246C12.4385 24.529 12.3289 24.6282 12.4803 24.7221L18.5409 24.79C19.4805 17.6958 21.9601 10.2675 27.6971 5.66851L27.7023 5.67373ZM37.8451 5.80423L38.8473 7.46947C42.0003 14.1095 40.6222 22.0598 38.7743 28.8878C38.8369 29.0235 38.9361 29.0601 39.077 29.081C40.7788 29.3367 42.7938 29.2271 44.5373 29.342C45.5918 29.4098 46.7611 29.6708 47.7895 29.7283C49.0945 29.8013 50.0342 29.7596 50.4204 28.3293C51.1617 25.573 50.9164 21.068 50.2638 18.2857C48.7813 11.9693 43.8013 7.80878 37.8451 5.80423ZM40.0532 30.8976C33.387 30.6 27.0654 28.2405 20.5768 27.0346C17.737 26.5074 14.8189 26.1263 11.9322 26.5074C9.39516 28.2353 6.74854 29.8901 4.25852 31.7015C3.74172 32.0773 3.13618 32.4688 2.73945 32.9752C6.72766 31.9729 11.786 32.4636 15.5289 34.1654C17.5491 35.0841 19.3448 36.8747 21.3963 37.5324C27.1907 39.3908 35.3028 36.2587 39.3224 31.9207C39.4216 31.8111 40.1628 30.9863 40.0584 30.8976H40.0532Z" fill="black"/>
</g>
<defs>
<clipPath id="clip0_677_7254">
<rect width="52.5932" height="39.2922" fill="white" transform="translate(0.0253906 0.516357)"/>
</clipPath>
</defs>
</svg>
