<svg width="33" height="34" viewBox="0 0 33 34" fill="none" xmlns="http://www.w3.org/2000/svg">
<g clip-path="url(#clip0_783_8749)">
<path d="M23.9602 11.3234L24.3204 8.34787C24.4848 6.72701 26.1331 5.79913 27.5621 6.70352C29.1595 7.70971 28.1337 9.92958 28.1728 11.4643L28.49 10.2741C29.3317 7.96419 32.824 8.73547 32.5069 11.202C32.1624 13.8839 30.9291 16.8672 30.4945 19.5843C30.2831 21.4675 30.9173 25.1868 30.1226 26.7255C30.013 26.9369 29.5157 27.4341 29.504 27.5085C29.4883 27.5985 29.4922 28.2093 29.5157 28.2367C29.5314 28.2524 29.7115 28.2798 29.7976 28.3385C30.1226 28.5695 30.4045 28.867 30.471 29.2781C30.5572 29.7793 30.5454 31.3297 30.4788 31.8504C30.3888 32.5942 29.8329 33.0484 29.1164 33.158H17.739C16.0829 33.0014 16.1886 30.946 16.3061 29.6892C16.3648 29.0902 16.5097 28.7731 16.9638 28.3816C17.3045 28.0879 17.4023 28.3228 17.2614 27.6612C17.0304 26.5689 15.0572 25.1986 14.372 24.0201C13.8709 23.1588 13.9688 22.7829 13.8357 21.8903C13.7495 21.3226 11.1186 18.4567 10.6213 17.662C9.54859 15.951 10.9933 14.1109 12.9313 14.5103C14.051 14.7413 15.3508 17.1569 16.2983 17.8499C16.2787 17.4192 16.3257 16.9807 16.2983 16.5501C16.126 13.8565 15.4957 11.0454 15.3117 8.33221C15.3978 6.61347 17.4337 5.69342 18.757 6.85621C19.8101 7.78018 19.493 9.71817 19.7475 10.9906L19.8806 11.6679V5.52507C19.8806 4.87124 20.6519 4.1352 21.2392 3.93161C22.4411 3.51661 23.9563 4.46407 23.9563 5.73257V11.3155L23.9602 11.3234ZM18.342 28.1036H28.4547V27.0152C28.4547 26.7059 28.952 26.6198 29.1203 26.4162C29.2691 26.2361 29.457 25.6919 29.4922 25.4531C29.7467 23.5855 29.3161 21.2717 29.5196 19.3689C29.782 16.8985 30.9917 13.8682 31.442 11.3234C31.5516 10.7087 31.4694 10.0588 30.7216 9.9335C29.9229 9.80039 29.6293 10.1449 29.4061 10.8301C29.0537 11.8911 28.9637 13.0891 28.5878 14.154C28.302 14.6591 26.8652 14.6591 26.8652 13.8956L27.4681 8.27349C27.288 7.14593 25.7063 7.04022 25.3853 8.14429L24.704 14.1344C24.5592 14.5808 23.4238 14.5612 23.0949 14.3341C22.9227 14.2166 22.9266 14.0796 22.907 13.8878C22.6682 11.3038 23.0949 8.36745 22.907 5.74432C22.6682 4.48365 20.9534 4.58544 20.879 5.87743L20.8398 14.1971C20.6675 14.5886 19.1955 14.6395 19.0976 14.0483C18.7765 12.2278 18.8196 10.2154 18.479 8.41443C18.3341 7.65098 17.9583 7.25164 17.1361 7.40433C16.3766 7.54527 16.3531 8.1991 16.3844 8.82552C16.5136 11.4212 17.2027 14.2206 17.3671 16.8319C17.4062 17.4231 17.3397 18.03 17.3671 18.6212C19.9119 17.4388 23.1067 17.8029 23.8936 20.8645L22.9148 21.1503C22.1083 18.5507 19.9237 18.719 17.7899 19.5725C16.9482 19.9092 17.0382 20.2538 16.2787 19.4668C15.1668 18.3158 14.1919 16.8828 13.08 15.7122C11.9995 14.9879 10.7975 16.0059 11.5492 17.1726C12.4536 18.5781 13.8513 19.8936 14.7831 21.3109C14.8458 22.2387 14.8849 22.9161 15.3978 23.7187C16.3648 25.2299 18.3811 26.1225 18.3498 28.1075L18.342 28.1036ZM18.8314 29.0902H17.8134C17.6138 29.0902 17.3906 29.3486 17.3593 29.5522C17.2927 29.975 17.3123 31.1378 17.3514 31.5881C17.3749 31.8425 17.5159 32.1832 17.8095 32.1832H18.8274V29.0941L18.8314 29.0902ZM20.8672 29.0902H19.8845V32.1792H20.8672V29.0902ZM22.907 29.0902H21.9243V32.1792H22.907V29.0902ZM24.9429 29.0902H23.9602V32.1792H24.9429V29.0902ZM26.0391 29.098C26.0039 29.1098 25.9765 29.1215 25.953 29.1528C25.8081 29.3564 25.9921 31.6272 25.9334 32.0618C25.9921 32.2458 26.8769 32.2106 26.9474 32.1127C27.0923 31.9091 26.9083 29.6383 26.967 29.2037C26.9122 29.0432 26.18 29.0511 26.0391 29.098ZM29.0498 29.0902C28.7366 29.0354 28.2942 29.1294 27.9614 29.0902V32.1792H29.0498C29.3396 32.1792 29.4883 31.7642 29.5118 31.5176C29.551 31.0791 29.5627 30.0416 29.504 29.6227C29.4727 29.3878 29.2887 29.1333 29.0537 29.0902H29.0498Z" fill="black"/>
<path d="M13.8471 8.23423L14.3013 4.79283C15.0452 2.49465 18.4983 3.03886 18.3417 5.49756C18.3065 5.53279 17.4373 5.49364 17.3707 5.41534C17.3473 5.38793 17.2964 4.98076 17.1789 4.80066C16.7443 4.12726 15.7695 4.20556 15.3584 4.87114C15.2448 5.05906 15.2213 5.32529 15.19 5.54454C14.916 7.34158 14.8964 9.24824 14.5871 11.0531C14.5049 11.5034 13.4282 11.476 13.1228 11.3859C12.9584 11.3389 12.7861 11.0492 12.7901 10.8769L12.7744 2.67475C12.4925 1.46106 10.8951 1.55111 10.7542 2.80003C10.4723 5.30963 10.9891 8.33602 10.7542 10.8769C10.7385 11.0492 10.7346 11.2176 10.5663 11.3233C10.347 11.4642 9.07068 11.5268 8.98847 11.0884L8.35422 5.40359C8.26025 4.05287 6.40448 3.95108 6.2283 5.27831C6.39665 8.0972 7.06222 11.0179 7.24232 13.8211C7.28147 14.4123 7.21491 15.0191 7.24232 15.6103C7.61817 15.4929 7.97053 15.3167 8.3503 15.211C8.58129 15.1483 9.4113 14.9526 9.5914 14.9761C9.84588 15.0113 9.81456 15.8648 9.75975 15.9549C9.71668 16.0214 8.46775 16.2485 8.20936 16.3346C7.84525 16.4599 6.94869 17.0002 6.67854 16.918C6.53368 16.8749 6.33401 16.64 6.22439 16.5265C5.0616 15.3363 4.07107 13.825 2.88479 12.6309C1.90209 12.0436 0.743214 12.9167 1.31091 13.9934L4.65834 18.3C4.48607 20.5277 6.02472 21.436 7.27756 22.8416C7.91181 23.5502 8.17021 24.114 8.2211 25.0928H14.3326V26.0754C14.3326 26.0989 13.8393 26.052 13.8393 26.0754V29.094H15.3153V30.1472H7.48506C7.10529 30.1472 6.47104 29.556 6.32227 29.2036C6.11476 28.6947 6.10693 26.5962 6.29095 26.0754C6.34967 25.911 6.58458 25.5587 6.71378 25.4451C6.8234 25.3433 7.16793 25.2141 7.17185 25.1906C7.45374 24.1649 6.10693 23.2135 5.51575 22.5675C4.39211 21.3342 3.64432 20.3359 3.61692 18.5662C2.72427 17.2586 1.29133 15.9314 0.492646 14.6002C-0.0672171 13.6684 0.0384912 12.5448 0.923309 11.8675C3.2254 10.0939 4.76405 13.6528 6.18524 14.8469C6.16958 14.4397 6.20873 14.0247 6.18524 13.6175C6.0208 10.8769 5.35915 8.02281 5.19863 5.25873C5.44528 2.80395 8.88667 2.64343 9.33691 5.12953C9.50135 6.04176 9.50526 7.06361 9.63446 7.99149L9.76758 8.66881V2.43984C9.76758 2.14621 10.2335 1.44932 10.4762 1.25356C11.8622 0.126005 13.8393 1.19875 13.8393 2.93315V8.23423H13.8471ZM8.71832 26.0676H7.62992C7.39893 26.0676 7.25798 26.4591 7.23841 26.6627C7.19925 27.1012 7.17968 28.2875 7.24624 28.6986C7.26973 28.8356 7.4185 29.0901 7.55945 29.0901H8.71832V26.0715V26.0676ZM10.7581 26.0676H9.77541V29.0862H10.7581V26.0676ZM12.794 26.0676H11.8113V29.0862H12.794V26.0676Z" fill="black"/>
</g>
<defs>
<clipPath id="clip0_783_8749">
<rect width="32.3703" height="32.3742" fill="white" transform="translate(0.155273 0.787842)"/>
</clipPath>
</defs>
</svg>
