<svg width="44" height="44" viewBox="0 0 44 44" fill="none" xmlns="http://www.w3.org/2000/svg">
<g clip-path="url(#clip0_677_7255)">
<path d="M31.7783 14.6271L32.2585 10.6598C32.4778 8.49865 34.6755 7.26147 36.5808 8.46733C38.7107 9.80891 37.343 12.7687 37.3952 14.815L37.818 13.2281C38.9403 10.1482 43.5967 11.1766 43.1739 14.4653C42.7145 18.0411 41.0702 22.0189 40.4907 25.6417C40.2088 28.1526 41.0545 33.1117 39.9948 35.1633C39.8486 35.4451 39.1857 36.1081 39.17 36.2073C39.1491 36.3274 39.1544 37.1417 39.1857 37.1782C39.2066 37.1991 39.4467 37.2357 39.5615 37.314C39.9948 37.622 40.3707 38.0187 40.4594 38.5668C40.5742 39.235 40.5586 41.3022 40.4698 41.9964C40.3498 42.9883 39.6085 43.5938 38.6532 43.74H23.4834C21.2753 43.5312 21.4162 40.7906 21.5728 39.1149C21.6511 38.3162 21.8443 37.8934 22.4498 37.3714C22.904 36.9799 23.0345 37.2931 22.8466 36.4109C22.5386 34.9544 19.9076 33.1274 18.9941 31.5561C18.3259 30.4077 18.4564 29.9065 18.2789 28.7164C18.1641 27.9594 14.6561 24.1383 13.9932 23.0786C12.5628 20.7974 14.4891 18.3439 17.0731 18.8763C18.566 19.1843 20.2991 22.4052 21.5624 23.3291C21.5363 22.7549 21.5989 22.1703 21.5624 21.596C21.3327 18.0046 20.4923 14.2565 20.2469 10.6389C20.3618 8.34726 23.0763 7.12052 24.8407 8.67091C26.2449 9.90287 25.8221 12.4869 26.1614 14.1834L26.3389 15.0865V6.89606C26.3389 6.02429 27.3672 5.0429 28.1503 4.77145C29.7528 4.21811 31.7731 5.48139 31.7731 7.17273V14.6167L31.7783 14.6271ZM24.2873 37.0008H37.771V35.5495C37.771 35.1372 38.434 35.0223 38.6585 34.7509C38.8568 34.5107 39.1074 33.7851 39.1544 33.4667C39.4937 30.9767 38.9195 27.8916 39.1909 25.3546C39.5407 22.0606 41.1537 18.0202 41.754 14.6271C41.9002 13.8076 41.7905 12.941 40.7935 12.774C39.7286 12.5965 39.3371 13.0559 39.0395 13.9694C38.5697 15.384 38.4496 16.9814 37.9485 18.4013C37.5674 19.0747 35.6516 19.0747 35.6516 18.0568L36.4555 10.5606C36.2154 9.05721 34.1065 8.91626 33.6784 10.3883L32.7701 18.3752C32.577 18.9703 31.0631 18.9442 30.6246 18.6414C30.3949 18.4848 30.4001 18.3021 30.374 18.0463C30.0556 14.601 30.6246 10.6859 30.374 7.18839C30.0556 5.50749 27.7692 5.64322 27.67 7.36587L27.6178 18.4587C27.3881 18.9807 25.4253 19.0486 25.2948 18.2604C24.8668 15.833 24.9242 13.1498 24.47 10.7485C24.2769 9.73061 23.7758 9.19815 22.6795 9.40174C21.6668 9.58966 21.6355 10.4614 21.6772 11.2967C21.8495 14.7576 22.7683 18.49 22.9875 21.9719C23.0397 22.7601 22.951 23.5693 22.9875 24.3575C26.3806 22.781 30.6403 23.2665 31.6895 27.3487L30.3845 27.7297C29.3091 24.2635 26.3963 24.488 23.5513 25.626C22.429 26.0749 22.549 26.5343 21.5363 25.4851C20.0538 23.9503 18.754 22.0398 17.2714 20.4789C15.8307 19.5132 14.2281 20.8704 15.2303 22.4261C16.4362 24.3001 18.2998 26.0541 19.5422 27.9438C19.6257 29.1809 19.6779 30.084 20.3618 31.1542C21.6511 33.1692 24.3395 34.3593 24.2978 37.006L24.2873 37.0008ZM24.9399 38.3162H23.5826C23.3164 38.3162 23.0188 38.6608 22.9771 38.9322C22.8883 39.496 22.9144 41.0464 22.9666 41.6467C22.998 41.986 23.1859 42.4402 23.5774 42.4402H24.9346V38.3215L24.9399 38.3162ZM27.6543 38.3162H26.3441V42.4349H27.6543V38.3162ZM30.374 38.3162H29.0638V42.4349H30.374V38.3162ZM33.0885 38.3162H31.7783V42.4349H33.0885V38.3162ZM34.5502 38.3267C34.5032 38.3423 34.4667 38.358 34.4353 38.3998C34.2422 38.6712 34.4875 41.6989 34.4092 42.2783C34.4875 42.5237 35.6673 42.4767 35.7613 42.3462C35.9544 42.0748 35.7091 39.0471 35.7874 38.4676C35.7143 38.2536 34.7381 38.264 34.5502 38.3267ZM38.5645 38.3162C38.1469 38.2432 37.557 38.3684 37.1133 38.3162V42.4349H38.5645C38.9508 42.4349 39.1491 41.8816 39.1805 41.5527C39.2327 40.9681 39.2483 39.5847 39.17 39.0262C39.1283 38.713 38.8829 38.3737 38.5697 38.3162H38.5645Z" fill="black"/>
<path d="M18.2946 10.5083L18.9001 5.91982C19.8919 2.85558 24.4961 3.58119 24.2873 6.85945C24.2403 6.90643 23.0814 6.85423 22.9927 6.74983C22.9614 6.71329 22.8935 6.17039 22.7369 5.93026C22.1575 5.03239 20.8577 5.1368 20.3095 6.02423C20.1582 6.27479 20.1268 6.62976 20.0851 6.92209C19.7197 9.31815 19.6936 11.8604 19.2812 14.2669C19.1715 14.8672 17.736 14.8306 17.3288 14.7106C17.1096 14.6479 16.8799 14.2616 16.8851 14.032L16.8642 3.09571C16.4884 1.47746 14.3585 1.59753 14.1706 3.26276C13.7948 6.60888 14.4838 10.6441 14.1706 14.032C14.1497 14.2616 14.1445 14.4861 13.9201 14.6271C13.6277 14.815 11.9259 14.8985 11.8163 14.3138L10.9707 6.73417C10.8454 4.93321 8.37102 4.79749 8.13611 6.56712C8.36058 10.3256 9.248 14.2199 9.48813 17.9575C9.54033 18.7458 9.45159 19.5549 9.48813 20.3431C9.98927 20.1865 10.4591 19.9516 10.9654 19.8107C11.2734 19.7272 12.3801 19.4662 12.6202 19.4975C12.9595 19.5445 12.9178 20.6825 12.8447 20.8025C12.7873 20.8913 11.122 21.194 10.7775 21.3089C10.292 21.4759 9.09662 22.1963 8.73643 22.0867C8.54328 22.0293 8.27705 21.716 8.13089 21.5647C6.5805 19.9777 5.2598 17.9627 3.67809 16.3706C2.36783 15.5876 0.822657 16.7517 1.57958 18.1872L6.04282 23.9294C5.81314 26.8997 7.86466 28.1107 9.53511 29.9848C10.3808 30.9296 10.7253 31.6813 10.7932 32.9864H18.9419V34.2966C18.9419 34.328 18.2841 34.2653 18.2841 34.2966V38.3214H20.2521V39.7256H9.81178C9.30543 39.7256 8.45976 38.9374 8.26139 38.4676C7.98472 37.7889 7.97428 34.9909 8.21963 34.2966C8.29793 34.0774 8.61114 33.6076 8.78341 33.4562C8.92957 33.3205 9.38895 33.1482 9.39417 33.1169C9.77002 31.7492 7.97428 30.4807 7.18604 29.6194C5.68785 27.975 4.6908 26.6439 4.65426 24.2844C3.46406 22.5408 1.55348 20.7712 0.488567 18.9963C-0.257917 17.7539 -0.116973 16.2557 1.06278 15.3527C4.13224 12.9879 6.18377 17.7331 8.07869 19.3252C8.05781 18.7823 8.11001 18.229 8.07869 17.6861C7.85944 14.032 6.97723 10.2265 6.76321 6.54102C7.09208 3.26798 11.6806 3.05395 12.2809 6.36876C12.5002 7.58505 12.5054 8.94752 12.6777 10.1847L12.8551 11.0878V2.7825C12.8551 2.39099 13.4763 1.4618 13.8 1.20079C15.6479 -0.302615 18.2841 1.12771 18.2841 3.44024V10.5083H18.2946ZM11.4561 34.2862H10.0049C9.69694 34.2862 9.50901 34.8082 9.48291 35.0797C9.43071 35.6643 9.40461 37.246 9.49335 37.7942C9.52467 37.9769 9.72304 38.3162 9.91097 38.3162H11.4561V34.2914V34.2862ZM14.1758 34.2862H12.8656V38.311H14.1758V34.2862ZM16.8903 34.2862H15.5801V38.311H16.8903V34.2862Z" fill="black"/>
</g>
<defs>
<clipPath id="clip0_677_7255">
<rect width="43.1603" height="43.1656" fill="white" transform="translate(0.0400391 0.57959)"/>
</clipPath>
</defs>
</svg>
