<svg width="70" height="70" viewBox="0 0 70 70" fill="none" xmlns="http://www.w3.org/2000/svg">
<path d="M70 0V24.8387H63.2258V11.646L42.6684 32.0476C44.1278 34.1837 45.2844 36.4467 46.1379 38.8365C46.9922 41.2262 47.4194 43.7109 47.4194 46.2903C47.4194 52.9004 45.1206 58.5046 40.5232 63.1027C35.9258 67.7009 30.3224 70 23.7131 70C17.1045 70 11.5003 67.7013 6.90064 63.1039C2.30021 58.5064 0 52.9031 0 46.2937C0 39.6851 2.29909 34.081 6.89726 29.4813C11.4954 24.8809 17.0996 22.5806 23.7097 22.5806C26.2515 22.5806 28.7196 22.9961 31.1139 23.8271C33.5074 24.6581 35.7493 25.8262 37.8395 27.3316L58.3969 6.77419H45.1613V0H70ZM23.7029 29.3548C19.0234 29.3548 15.0319 31.0089 11.7284 34.3169C8.42559 37.6242 6.77419 41.6176 6.77419 46.2971C6.77419 50.9766 8.42823 54.9681 11.7363 58.2716C15.0436 61.5744 19.037 63.2258 23.7164 63.2258C28.3959 63.2258 32.3874 61.5718 35.691 58.2637C38.9938 54.9564 40.6452 50.963 40.6452 46.2835C40.6452 41.6041 38.9911 37.6126 35.6831 34.309C32.3758 31.0062 28.3824 29.3548 23.7029 29.3548Z" fill="#9662D9"/>
</svg>
