<svg width="46" height="51" viewBox="0 0 46 51" fill="none" xmlns="http://www.w3.org/2000/svg">
<g clip-path="url(#clip0_677_7257)">
<path d="M29.5104 5.49003C33.3904 6.37503 37.0604 6.74003 39.6354 10.125C41.4254 12.475 42.3104 16.615 42.9654 19.515C44.2554 25.205 45.0854 31.705 45.2454 37.54C45.2954 39.44 45.4054 40.385 43.9004 41.69C43.7104 41.855 43.3004 41.95 43.2004 42.155C42.9004 42.775 43.3804 43.98 42.7704 45.11C41.5054 47.455 38.6904 46.705 36.4954 46.83C36.3554 48.74 35.0804 50.05 33.1704 50.215L12.6404 50.2C10.8654 49.955 9.61542 48.62 9.53042 46.835C7.33042 46.765 4.11542 47.405 3.09542 44.81C2.75042 43.94 3.06042 42.645 2.82542 42.16C2.72542 41.955 2.31542 41.86 2.12542 41.695C0.610417 40.39 0.720417 39.44 0.770417 37.545C0.930417 31.695 1.75542 25.215 3.05042 19.52C3.70042 16.665 4.58042 12.51 6.33042 10.195C8.89542 6.79503 12.5604 6.36503 16.4604 5.53003C16.9604 3.46003 17.2854 1.30003 19.7954 0.905026C21.1204 0.695026 24.4304 0.730026 25.8154 0.850026C28.5404 1.08503 29.1004 3.18503 29.5104 5.49503V5.49003ZM19.8804 3.21003C19.1754 3.20003 18.7404 5.50003 18.9154 5.76003C19.0204 5.92003 20.7154 6.28003 21.0354 6.32503C22.6404 6.55503 24.2804 6.50503 25.8654 6.16503C26.1404 6.10503 27.1804 5.91003 27.2554 5.68003C27.3704 5.32503 26.8404 3.36003 26.2504 3.21003H19.8804ZM3.75042 40.06H8.30042C8.30042 40.06 8.47542 39.895 8.47542 39.885V19.465C8.47542 19.335 9.13542 18.855 9.36042 18.825C11.3804 18.57 10.4554 21.66 10.7504 22.79L16.1404 27.325L16.5904 27.23C18.5404 25.52 20.5204 23.82 22.5904 22.26C23.2154 22.07 23.5104 22.285 23.9854 22.625L29.7754 27.43L35.2554 22.79C35.5554 21.66 34.6254 18.575 36.6454 18.825C36.8704 18.855 37.5304 19.335 37.5304 19.465V40.005C37.5304 40.005 37.6954 40.18 37.7054 40.18H41.7904C42.3304 40.18 43.0104 39.65 43.0204 39.075C42.7654 32.835 42.2254 26.645 40.8804 20.555C39.9704 16.425 39.1854 11.265 35.0104 9.27003C34.2054 8.88503 29.5154 7.62003 28.7204 7.62003C28.2604 7.62003 26.7554 8.24503 26.0954 8.38003C24.3504 8.74503 22.4504 8.79503 20.6854 8.53503C19.7804 8.40003 17.7804 7.59003 17.1804 7.62503C16.2454 7.68003 11.9754 8.82503 11.0754 9.23003C8.11542 10.565 7.17542 12.875 6.31042 15.785C4.26542 22.71 3.20042 30.9 2.98042 38.13C2.96042 38.765 2.92042 39.885 3.74542 40.06H3.75042ZM35.3204 25.705L30.5954 29.675C30.1754 29.965 29.8104 30.165 29.3054 29.915C27.1204 28.34 25.1854 26.415 23.0104 24.81C20.8504 26.435 18.8904 28.325 16.7154 29.915C16.2104 30.165 15.8454 29.965 15.4254 29.675L10.7004 25.705V28.33C11.4054 28.825 15.8804 32.93 16.2404 32.94C16.3904 32.94 16.5254 32.84 16.6454 32.76C18.4154 31.59 20.2104 29.57 21.9654 28.275C22.8154 27.65 23.0854 27.58 23.9954 28.225C25.8004 29.505 27.5704 31.57 29.3804 32.76C29.5004 32.84 29.6354 32.945 29.7854 32.94C30.1454 32.93 34.6354 28.84 35.3254 28.33V25.705H35.3204ZM35.3204 31.425C35.0154 31.5 34.7004 31.81 34.4504 32.01C33.2204 32.99 31.7854 34.5 30.5304 35.325C30.1404 35.58 29.7404 35.755 29.2854 35.535L23.0104 30.41C21.0554 31.79 19.3254 33.645 17.4054 35.04C16.6654 35.575 16.4104 35.93 15.4904 35.33C14.2504 34.515 12.7904 32.99 11.5704 32.015C11.3204 31.815 11.0004 31.505 10.7004 31.43V42.69C10.7004 42.905 11.3804 43.535 11.6904 43.45H34.2204C34.5654 43.585 35.3254 42.945 35.3254 42.69V31.43L35.3204 31.425ZM8.47542 42.395H5.09042C5.15042 43.01 4.87542 43.895 5.44542 44.32C5.51542 44.37 6.05042 44.615 6.08542 44.615H9.18042C8.90542 43.86 8.32042 43.29 8.48042 42.4L8.47542 42.395ZM40.9204 42.395H37.5354C37.6954 43.285 37.1104 43.855 36.8354 44.61H39.9304C39.9654 44.61 40.5004 44.37 40.5704 44.315C41.1354 43.895 40.8654 43.005 40.9254 42.39L40.9204 42.395ZM11.9204 45.66C11.4754 46.365 11.7804 47.94 12.8504 47.885L33.3904 47.875C34.4954 47.705 34.3904 45.665 34.0954 45.665H11.9204V45.66Z" fill="black"/>
</g>
<defs>
<clipPath id="clip0_677_7257">
<rect width="44.52" height="49.465" fill="white" transform="translate(0.745117 0.75)"/>
</clipPath>
</defs>
</svg>
