<svg width="35" height="38" viewBox="0 0 35 38" fill="none" xmlns="http://www.w3.org/2000/svg">
<g clip-path="url(#clip0_783_8742)">
<path d="M22.2565 3.97073C25.1665 4.63448 27.919 4.90823 29.8502 7.44698C31.1927 9.20948 31.8565 12.3145 32.3477 14.4895C33.3152 18.757 33.9377 23.632 34.0577 28.0082C34.0952 29.4332 34.1777 30.142 33.049 31.1207C32.9065 31.2445 32.599 31.3157 32.524 31.4695C32.299 31.9345 32.659 32.8382 32.2015 33.6857C31.2527 35.4445 29.1415 34.882 27.4952 34.9757C27.3902 36.4082 26.434 37.3907 25.0015 37.5145L9.60397 37.5032C8.27272 37.3195 7.33522 36.3182 7.27147 34.9795C5.62147 34.927 3.21022 35.407 2.44522 33.4607C2.18647 32.8082 2.41897 31.837 2.24272 31.4732C2.16772 31.3195 1.86022 31.2482 1.71772 31.1245C0.58147 30.1457 0.66397 29.4332 0.70147 28.012C0.82147 23.6245 1.44022 18.7645 2.41147 14.4932C2.89897 12.352 3.55897 9.23573 4.87147 7.49948C6.79522 4.94948 9.54397 4.62698 12.469 4.00073C12.844 2.44823 13.0877 0.82823 14.9702 0.53198C15.964 0.37448 18.4465 0.40073 19.4852 0.49073C21.529 0.66698 21.949 2.24198 22.2565 3.97448V3.97073ZM15.034 2.26073C14.5052 2.25323 14.179 3.97823 14.3102 4.17323C14.389 4.29323 15.6602 4.56323 15.9002 4.59698C17.104 4.76948 18.334 4.73198 19.5227 4.47698C19.729 4.43198 20.509 4.28573 20.5652 4.11323C20.6515 3.84698 20.254 2.37323 19.8115 2.26073H15.034ZM2.93647 29.8982H6.34897C6.34897 29.8982 6.48022 29.7745 6.48022 29.767V14.452C6.48022 14.3545 6.97522 13.9945 7.14397 13.972C8.65897 13.7807 7.96522 16.0982 8.18647 16.9457L12.229 20.347L12.5665 20.2757C14.029 18.9932 15.514 17.7182 17.0665 16.5482C17.5352 16.4057 17.7565 16.567 18.1127 16.822L22.4552 20.4257L26.5652 16.9457C26.7902 16.0982 26.0927 13.7845 27.6077 13.972C27.7765 13.9945 28.2715 14.3545 28.2715 14.452V29.857C28.2715 29.857 28.3952 29.9882 28.4027 29.9882H31.4665C31.8715 29.9882 32.3815 29.5907 32.389 29.1595C32.1977 24.4795 31.7927 19.837 30.784 15.2695C30.1015 12.172 29.5127 8.30198 26.3815 6.80573C25.7777 6.51698 22.2602 5.56823 21.664 5.56823C21.319 5.56823 20.1902 6.03698 19.6952 6.13823C18.3865 6.41198 16.9615 6.44948 15.6377 6.25448C14.959 6.15323 13.459 5.54573 13.009 5.57198C12.3077 5.61323 9.10522 6.47198 8.43022 6.77573C6.21022 7.77698 5.50522 9.50948 4.85647 11.692C3.32272 16.8857 2.52397 23.0282 2.35897 28.4507C2.34397 28.927 2.31397 29.767 2.93272 29.8982H2.93647ZM26.614 19.132L23.0702 22.1095C22.7552 22.327 22.4815 22.477 22.1027 22.2895C20.464 21.1082 19.0127 19.6645 17.3815 18.4607C15.7615 19.6795 14.2915 21.097 12.6602 22.2895C12.2815 22.477 12.0077 22.327 11.6927 22.1095L8.14897 19.132V21.1007C8.67772 21.472 12.034 24.5507 12.304 24.5582C12.4165 24.5582 12.5177 24.4832 12.6077 24.4232C13.9352 23.5457 15.2815 22.0307 16.5977 21.0595C17.2352 20.5907 17.4377 20.5382 18.1202 21.022C19.474 21.982 20.8015 23.5307 22.159 24.4232C22.249 24.4832 22.3502 24.562 22.4627 24.5582C22.7327 24.5507 26.1002 21.4832 26.6177 21.1007V19.132H26.614ZM26.614 23.422C26.3852 23.4782 26.149 23.7107 25.9615 23.8607C25.039 24.5957 23.9627 25.7282 23.0215 26.347C22.729 26.5382 22.429 26.6695 22.0877 26.5045L17.3815 22.6607C15.9152 23.6957 14.6177 25.087 13.1777 26.1332C12.6227 26.5345 12.4315 26.8007 11.7415 26.3507C10.8115 25.7395 9.71647 24.5957 8.80147 23.8645C8.61397 23.7145 8.37397 23.482 8.14897 23.4257V31.8707C8.14897 32.032 8.65897 32.5045 8.89147 32.4407H25.789C26.0477 32.542 26.6177 32.062 26.6177 31.8707V23.4257L26.614 23.422ZM6.48022 31.6495H3.94147C3.98647 32.1107 3.78022 32.7745 4.20772 33.0932C4.26022 33.1307 4.66147 33.3145 4.68772 33.3145H7.00897C6.80272 32.7482 6.36397 32.3207 6.48397 31.6532L6.48022 31.6495ZM30.814 31.6495H28.2752C28.3952 32.317 27.9565 32.7445 27.7502 33.3107H30.0715C30.0977 33.3107 30.499 33.1307 30.5515 33.0895C30.9752 32.7745 30.7727 32.107 30.8177 31.6457L30.814 31.6495ZM9.06397 34.0982C8.73022 34.627 8.95897 35.8082 9.76147 35.767L25.1665 35.7595C25.9952 35.632 25.9165 34.102 25.6952 34.102H9.06397V34.0982Z" fill="black"/>
</g>
<defs>
<clipPath id="clip0_783_8742">
<rect width="33.39" height="37.0988" fill="white" transform="translate(0.683594 0.415527)"/>
</clipPath>
</defs>
</svg>
