<svg width="46" height="70" viewBox="0 0 46 70" fill="none" xmlns="http://www.w3.org/2000/svg">
<path d="M19.8182 70V61.5152H11.3334V55.1515H19.8182V44.2845C14.3137 43.4848 9.75588 40.9924 6.14487 36.8073C2.53315 32.6221 0.727295 27.7338 0.727295 22.1423C0.727295 15.9802 2.89871 10.7492 7.24154 6.44955C11.5851 2.14985 16.8379 0 23 0C29.1621 0 34.415 2.14985 38.7585 6.44955C43.1013 10.7492 45.2728 15.9802 45.2728 22.1423C45.2728 27.7338 43.4669 32.6221 39.8552 36.8073C36.2442 40.9924 31.6864 43.4848 26.1818 44.2845V55.1515H34.6667V61.5152H26.1818V70H19.8182ZM23.0064 38.1818C27.4022 38.1818 31.1518 36.628 34.2552 33.5205C37.3578 30.4136 38.9091 26.6622 38.9091 22.2664C38.9091 17.8705 37.3553 14.1209 34.2477 11.0176C31.1409 7.91495 27.3895 6.36364 22.9937 6.36364C18.5978 6.36364 14.8482 7.91743 11.7449 11.025C8.64224 14.1319 7.09093 17.8832 7.09093 22.2791C7.09093 26.6749 8.64472 30.4245 11.7523 33.5279C14.8592 36.6305 18.6105 38.1818 23.0064 38.1818Z" fill="#9662D9"/>
</svg>
