<svg width="22" height="36" viewBox="0 0 22 36" fill="none" xmlns="http://www.w3.org/2000/svg">
<g clip-path="url(#clip0_783_8737)">
<path d="M11.2522 13.5696C11.1359 13.5546 11.1359 13.7796 11.1209 13.8658C9.76717 21.0433 8.93092 28.3333 7.58092 35.5108C7.43467 35.7846 7.16467 35.9121 6.86092 35.8858C5.02342 35.5446 3.02092 35.6196 1.19467 35.3271C0.70717 35.2483 0.43342 35.0683 0.44467 34.5246C0.47842 32.8596 0.67342 31.1383 0.75592 29.4696C1.14217 21.6358 1.58092 13.8208 2.00467 5.99835C2.09842 4.29585 2.01217 2.2971 2.24092 0.639595C2.29717 0.249595 2.48842 0.0320954 2.89342 0.0395954H19.5359C19.7422 0.0320954 19.9559 0.103345 20.0722 0.279595L21.8834 34.9633C21.7634 35.2333 21.4972 35.2821 21.2309 35.3233C19.4234 35.6121 17.4547 35.5371 15.6397 35.8783C15.3059 35.9233 15.0059 35.8108 14.8447 35.5108L11.2522 13.5696ZM8.22217 1.2096H3.51967C3.51967 1.2096 3.40342 1.31835 3.40342 1.32585V2.4546H8.22217V1.2096ZM9.51217 1.22085C9.32467 1.28085 9.33967 2.27085 9.41842 2.3796C9.49717 2.48835 10.4534 2.4921 10.5547 2.4171C10.6559 2.3421 10.6672 1.3821 10.5922 1.28085C10.5172 1.1796 9.65092 1.1721 9.50842 1.2171L9.51217 1.22085ZM19.0259 2.4546V1.32585C19.0259 1.2621 18.8384 1.1871 18.7597 1.20585H11.9947C11.6609 1.20585 11.7772 2.4546 11.9159 2.4546H19.0297H19.0259ZM5.03467 3.62085H3.32467C3.31717 3.81585 3.07717 6.26835 3.20842 6.2646C4.10842 5.7171 4.86967 4.6671 5.03467 3.62085ZM8.22217 3.62085H6.39592C6.18217 4.0521 6.08842 4.53585 5.88217 4.97085C5.49592 5.7846 4.77217 6.6471 4.05217 7.18334C3.80467 7.36709 3.16342 7.6446 3.09592 7.8621C2.96842 8.29335 2.96467 9.3546 2.93467 9.87584C2.55217 16.3296 2.25592 22.8096 1.92967 29.2333C1.84717 30.8796 1.79842 32.5258 1.69717 34.1683L6.51217 34.6296L10.5472 10.0258C10.2697 9.6396 9.80842 9.41084 9.46342 9.0246C8.91967 8.4096 8.22217 7.0446 8.22217 6.22335V3.62085ZM10.6297 3.62085H9.50092C9.41467 3.62085 9.38842 3.8121 9.38092 3.8871C9.26467 4.87335 9.39967 6.64335 9.86467 7.53209C10.0072 7.8021 10.3147 8.28585 10.6297 8.36085V3.62085ZM16.0334 3.62085H11.7959V9.26085L15.9059 34.5921L16.0297 34.6446L20.7322 34.1721C20.6272 32.5558 20.5822 30.9283 20.5034 29.3121C20.1734 22.8208 19.8847 16.2996 19.4872 9.8046C19.4572 9.29835 19.4572 8.28585 19.3297 7.8621C19.2659 7.6446 18.6209 7.36709 18.3734 7.18334C17.6534 6.6471 16.9297 5.78835 16.5434 4.97085C16.3372 4.5321 16.2434 4.0521 16.0297 3.62085H16.0334ZM19.1009 3.62085H17.3909C17.5597 4.67085 18.3059 5.72085 19.2172 6.2646C19.2772 5.3946 19.1722 4.4946 19.1009 3.62085Z" fill="black"/>
</g>
<defs>
<clipPath id="clip0_783_8737">
<rect width="21.4387" height="35.85" fill="white" transform="translate(0.445312 0.0397949)"/>
</clipPath>
</defs>
</svg>
