<svg width="30" height="49" viewBox="0 0 30 49" fill="none" xmlns="http://www.w3.org/2000/svg">
<g clip-path="url(#clip0_677_7245)">
<path d="M15.1692 18.6225C15.0142 18.6025 15.0142 18.9025 14.9942 19.0175C13.1892 28.5875 12.0742 38.3075 10.2742 47.8775C10.0792 48.2425 9.71923 48.4125 9.31423 48.3775C6.86423 47.9225 4.19423 48.0225 1.75923 47.6325C1.10923 47.5275 0.744234 47.2875 0.759234 46.5625C0.804234 44.3425 1.06423 42.0475 1.17423 39.8225C1.68923 29.3775 2.27423 18.9575 2.83923 8.5275C2.96423 6.2575 2.84923 3.5925 3.15423 1.3825C3.22923 0.862498 3.48423 0.572498 4.02423 0.582498H26.2142C26.4892 0.572498 26.7742 0.667498 26.9292 0.902498L29.3442 47.1475C29.1842 47.5075 28.8292 47.5725 28.4742 47.6275C26.0642 48.0125 23.4392 47.9125 21.0192 48.3675C20.5742 48.4275 20.1742 48.2775 19.9592 47.8775L15.1692 18.6225ZM11.1292 2.1425H4.85923C4.85923 2.1425 4.70423 2.2875 4.70423 2.2975V3.8025H11.1292V2.1425ZM12.8492 2.1575C12.5992 2.2375 12.6192 3.5575 12.7242 3.7025C12.8292 3.8475 14.1042 3.8525 14.2392 3.7525C14.3742 3.6525 14.3892 2.3725 14.2892 2.2375C14.1892 2.1025 13.0342 2.0925 12.8442 2.1525L12.8492 2.1575ZM25.5342 3.8025V2.2975C25.5342 2.2125 25.2842 2.1125 25.1792 2.1375H16.1592C15.7142 2.1375 15.8692 3.8025 16.0542 3.8025H25.5392H25.5342ZM6.87923 5.3575H4.59923C4.58923 5.6175 4.26923 8.8875 4.44423 8.8825C5.64423 8.1525 6.65923 6.7525 6.87923 5.3575ZM11.1292 5.3575H8.69423C8.40923 5.9325 8.28423 6.5775 8.00923 7.1575C7.49423 8.2425 6.52923 9.3925 5.56923 10.1075C5.23923 10.3525 4.38423 10.7225 4.29423 11.0125C4.12423 11.5875 4.11923 13.0025 4.07923 13.6975C3.56923 22.3025 3.17423 30.9425 2.73923 39.5075C2.62923 41.7025 2.56423 43.8975 2.42923 46.0875L8.84923 46.7025L14.2292 13.8975C13.8592 13.3825 13.2442 13.0775 12.7842 12.5625C12.0592 11.7425 11.1292 9.9225 11.1292 8.8275V5.3575ZM14.3392 5.3575H12.8342C12.7192 5.3575 12.6842 5.6125 12.6742 5.7125C12.5192 7.0275 12.6992 9.3875 13.3192 10.5725C13.5092 10.9325 13.9192 11.5775 14.3392 11.6775V5.3575ZM21.5442 5.3575H15.8942V12.8775L21.3742 46.6525L21.5392 46.7225L27.8092 46.0925C27.6692 43.9375 27.6092 41.7675 27.5042 39.6125C27.0642 30.9575 26.6792 22.2625 26.1492 13.6025C26.1092 12.9275 26.1092 11.5775 25.9392 11.0125C25.8542 10.7225 24.9942 10.3525 24.6642 10.1075C23.7042 9.3925 22.7392 8.2475 22.2242 7.1575C21.9492 6.5725 21.8242 5.9325 21.5392 5.3575H21.5442ZM25.6342 5.3575H23.3542C23.5792 6.7575 24.5742 8.1575 25.7892 8.8825C25.8692 7.7225 25.7292 6.5225 25.6342 5.3575Z" fill="black"/>
</g>
<defs>
<clipPath id="clip0_677_7245">
<rect width="28.585" height="47.8" fill="white" transform="translate(0.759766 0.58252)"/>
</clipPath>
</defs>
</svg>
