<svg width="57" height="51" viewBox="0 0 57 51" fill="none" xmlns="http://www.w3.org/2000/svg">
<g clip-path="url(#clip0_677_7248)">
<path d="M33.8496 28.0548C33.7696 27.8248 33.6096 27.5198 33.4396 27.1948C33.2596 26.8498 33.0346 26.4148 33.0096 26.2448C32.9696 25.9948 33.1246 25.3198 33.2496 24.7798C33.3646 24.2848 33.4696 23.8198 33.4896 23.4948C33.5496 22.5348 33.0946 22.2148 32.3896 22.0198C31.5446 21.7898 30.3946 21.5598 30.1446 22.2698C30.0346 22.5698 30.1146 22.7948 30.1996 22.9298C30.4696 23.3598 31.1646 23.4748 31.8646 23.5448L31.5496 25.4948L24.2646 24.2098C24.1646 24.1298 24.0196 23.7448 23.9346 23.5098C23.7296 22.9698 23.4996 22.3548 23.0296 22.1698C22.8096 22.0848 22.5746 22.0998 22.3296 22.2198C22.1796 22.2948 22.0696 22.4148 22.0196 22.5698C21.9046 22.9298 22.1296 23.3598 22.3496 23.7748C22.3696 23.8198 22.3996 23.8648 22.4246 23.9148C22.2096 23.8698 21.9446 23.8148 21.7296 23.7648C21.0096 23.6048 20.5596 23.4948 20.3396 23.5148C20.0246 23.5248 19.7496 23.7898 19.6846 24.1448C19.6146 24.5298 19.8096 24.8748 20.1796 25.0248L23.0646 25.5748C23.5146 27.0898 23.7496 28.7148 23.7696 30.3998L23.7846 30.4898C23.9546 31.0248 24.3446 31.1698 24.6296 31.1348C25.0246 31.0798 25.3146 30.6998 25.3346 30.1998C25.3846 28.8098 25.0996 27.3148 24.7596 25.8748C27.1346 26.2298 29.4796 26.6698 31.6746 27.1048C32.7596 28.7748 32.6646 30.6948 32.5596 32.7248C32.5396 33.0998 32.5196 33.4848 32.5096 33.8698L31.7396 33.2998C27.1346 30.4848 22.9546 32.2048 18.9096 33.8748C16.2696 34.9598 13.5446 36.0848 10.7096 35.9448C8.85463 35.8498 6.86463 35.2998 5.20963 34.4248L8.13963 25.5648C8.61963 24.5898 9.28463 23.7798 10.0546 23.2198L16.9296 24.4098C16.8946 24.4448 16.8546 24.4848 16.8196 24.5348L16.7346 24.6598C16.4746 25.0448 16.0896 25.6198 15.9196 25.9348C15.6796 26.3748 14.9546 27.9348 14.8346 28.4048C14.7296 28.8398 14.8546 29.2248 15.1646 29.4198C15.4646 29.6048 15.8546 29.5548 16.1846 29.2848L16.2446 29.2348L16.2746 29.1598C16.5496 28.4348 16.8446 27.6698 17.2146 26.9598C17.7846 25.8548 18.6896 24.5398 19.4096 23.7598C19.4596 23.7048 19.5746 23.6148 19.6946 23.5248C20.1496 23.1748 20.8346 22.6448 20.4946 22.0298C20.3346 21.7448 20.1196 21.6548 19.9646 21.6298C19.4696 21.5548 18.9996 22.0048 18.6496 22.3398L18.5496 22.4348C18.4546 22.5198 18.3696 22.6248 18.2896 22.7298C18.1646 22.8848 18.0146 23.0798 17.9396 23.0798L10.6746 21.7998L11.0546 19.8248L28.6846 22.9948C28.6846 22.9948 29.3796 23.0998 29.6296 22.7998C29.7896 22.6148 29.8346 22.3348 29.7496 22.0498C29.6596 21.7548 29.4496 21.5198 29.1646 21.4398L10.9696 18.2148H10.9196C10.2796 18.2148 9.74963 18.5698 9.56463 19.1198C9.42963 19.5098 9.37463 19.9648 9.31463 20.4498C9.22463 21.1898 9.12963 21.9548 8.74963 22.3298L8.49963 22.5698C7.87963 23.1648 7.34463 23.6798 6.87963 24.6248C5.12963 29.4948 3.51963 34.5148 1.95463 39.3648C1.48963 40.8148 1.01963 42.2648 0.549629 43.7148L0.534629 43.7998C0.519629 44.6898 0.879629 45.2448 1.70463 45.6048C2.32963 45.8748 3.04963 46.0798 3.74463 46.2798C4.11963 46.3848 4.47963 46.4898 4.79463 46.5948L5.10963 46.6998C7.30463 47.4298 9.57963 48.1898 11.7096 48.8648C11.8646 48.9148 12.0346 48.9798 12.2146 49.0498C13.0446 49.3698 14.0746 49.7648 14.8546 49.1598C15.1746 48.9098 15.2996 48.5798 15.4146 48.2898L15.4746 48.1398C16.1946 46.4098 16.7896 44.4898 17.3646 42.6348C17.6446 41.7348 17.9296 40.8048 18.2246 39.9198L17.9096 48.8498V48.8798C18.0296 49.6348 18.3396 50.0648 19.0246 50.4148L19.0796 50.4448H19.1446C19.5796 50.4748 20.0196 50.4998 20.4596 50.5298C22.1896 50.6348 23.9746 50.7448 25.7246 50.7448C25.7996 50.7448 25.8846 50.7498 25.9646 50.7548C26.3946 50.7798 27.1896 50.8248 27.2846 50.0098C27.3696 49.3148 26.7346 49.2298 26.3896 49.1848C25.2846 49.0398 24.0646 49.0498 22.8846 49.0548C21.8496 49.0598 20.7846 49.0698 19.8196 48.9748C19.6696 48.9598 19.5496 48.8998 19.5046 48.8498L19.7346 41.8898C20.2596 41.7898 21.8246 41.6348 22.2246 41.6098C25.2646 41.4198 27.7146 41.7998 29.5146 42.7298C30.3646 43.1698 32.0896 44.6148 32.1246 45.3648C32.1696 46.2748 32.1096 48.1198 32.0046 48.9548C31.9896 49.0648 31.9596 49.2948 31.9346 49.3348C31.8846 49.3648 31.6546 49.3748 31.5796 49.3798C31.1196 49.4048 30.6396 49.3648 30.1296 49.3248C29.5746 49.2798 28.9946 49.2348 28.4396 49.2748H28.3496L28.2796 49.3398C27.7896 49.7248 27.7546 50.0648 27.8146 50.2798C27.8746 50.4998 28.0746 50.7748 28.7096 50.8648C29.2346 50.9398 30.5296 50.9798 31.3346 50.9798C31.5146 50.9798 31.6646 50.9798 31.7846 50.9748C32.7646 50.9448 33.5796 50.1398 33.5696 49.2248C33.5696 46.3148 33.7296 43.3248 33.8796 40.4298C34.0446 37.3098 34.2146 34.0898 34.1896 30.9248C34.1796 30.0398 34.1646 28.9348 33.8696 28.0748L33.8496 28.0548ZM32.1896 42.6648C32.1896 42.6648 32.1596 42.6348 32.1446 42.6198C31.0146 41.5648 29.0246 40.7348 27.6496 40.4048C25.3696 39.8648 22.8546 39.8298 19.7696 40.3048C19.7696 40.1448 19.7846 39.9698 19.7996 39.7848C19.8696 38.7748 19.9646 37.3898 18.7446 37.1398C17.5546 36.9048 17.2396 37.8348 17.0046 38.5198L16.9296 38.7398C16.8396 38.9898 16.7546 39.2998 16.6746 39.6048C16.5696 40.0098 16.4596 40.4248 16.3396 40.6648L16.3246 40.6898C16.0296 40.7248 14.7396 40.7498 14.4146 40.7398C12.9496 40.7148 11.4396 40.5498 10.1596 40.2748C10.0646 40.2548 9.91463 40.2048 9.73463 40.1448C8.91463 39.8698 8.34963 39.7098 8.06463 39.9598C7.86963 40.1198 7.76463 40.3648 7.76963 40.6248C7.77463 40.8948 7.90463 41.1498 8.11463 41.3098L8.21463 41.3598C11.0246 42.1198 13.4996 42.4148 15.7596 42.2498C15.7246 42.3398 15.6896 42.4348 15.6546 42.5348C15.4346 43.1998 15.2196 43.9048 14.9946 44.6198C14.6796 45.6348 14.3546 46.6798 14.0296 47.6348C13.8946 47.8898 13.8596 47.9048 13.6546 47.8648C12.8696 47.7198 11.8496 47.3348 10.8646 46.9648C10.3446 46.7698 9.84963 46.5848 9.40963 46.4398C7.65463 45.8748 5.59463 45.2098 3.61963 44.5398C3.50963 44.5048 3.36463 44.4698 3.19963 44.4298C2.89963 44.3598 2.21963 44.1998 2.09963 43.9948L3.60963 39.0948C3.67463 39.1198 3.73463 39.1448 3.78463 39.1748C3.97463 39.2898 4.16463 39.4198 4.35963 39.5498C4.90463 39.9148 5.46963 40.2898 6.11963 40.5448C6.38963 40.6498 6.56463 40.7048 6.70463 40.6948C6.94463 40.6698 7.14963 40.5298 7.26463 40.3148C7.39963 40.0748 7.40463 39.7748 7.28463 39.5298C7.13963 39.2498 6.81963 39.1248 6.58963 39.0348C6.52963 39.0098 6.47963 38.9948 6.43963 38.9698C6.28463 38.8848 6.12463 38.7998 5.95963 38.7098C5.36963 38.3948 4.75963 38.0698 4.27963 37.7148C4.26463 37.6998 4.21963 37.6648 4.16963 37.6248C4.17963 37.6048 4.18963 37.5848 4.19963 37.5598C4.22963 37.4748 4.22963 37.3948 4.22963 37.3198C4.22963 37.2798 4.22963 37.2248 4.23963 37.2048C4.29463 37.0548 4.34963 36.9048 4.40963 36.7548C4.50963 36.4998 4.60963 36.2348 4.68963 35.9648C7.22963 37.1698 10.0246 37.6898 12.5896 37.4398C14.9146 37.2148 17.1046 36.2948 19.2196 35.3998C22.6196 33.9648 25.8296 32.6098 29.5196 33.9598C30.3146 34.2498 31.6246 35.0498 32.1896 35.6798C32.2396 35.7348 32.2846 35.8048 32.3296 35.8748C32.3446 35.8948 32.3546 35.9148 32.3696 35.9348C32.3696 37.7698 32.2946 39.6398 32.2196 41.4498C32.2046 41.8598 32.1846 42.2648 32.1696 42.6698L32.1896 42.6648Z" fill="black"/>
<path d="M37.6245 22.055C38.7745 22.055 39.9695 21.845 40.8145 21.47C42.0995 21.14 43.4395 20.325 44.4345 19.275C45.8245 19.675 47.3845 20.095 48.8895 19.925C50.5095 19.74 51.6545 19.355 52.9795 18.545C53.0495 18.5 53.1195 18.47 53.1845 18.435C53.3845 18.34 53.6045 18.23 53.8195 17.945C55.5545 15.61 54.8795 12.16 53.5145 9.94C53.3195 9.62 53.0495 9.34 52.7845 9.06C52.5645 8.83 52.3595 8.615 52.2045 8.39C51.8695 7.91 51.7945 7.525 51.7045 7.04C51.6645 6.82 51.6195 6.59 51.5495 6.34C50.9395 4.155 50.3445 2.245 49.7295 0.495L49.7045 0.44C49.5395 0.16 49.3095 0.015 49.0045 0C48.7895 0 47.3395 0.275 47.1395 0.37C47.0445 0.415 46.6645 0.725 46.6295 0.96L46.6195 1.015L46.6845 1.295C47.2045 3.445 47.7395 5.665 47.7545 7.89C47.7595 8.81 47.7045 9.42 47.6495 9.545C47.5595 9.71 46.8345 10.25 46.4445 10.535C46.1145 10.78 45.8295 10.99 45.6695 11.135C45.4245 11.36 45.0545 11.745 44.8645 11.945C44.5245 12.315 44.2245 12.72 43.9345 13.115C43.7645 13.345 43.5945 13.575 43.4145 13.8C41.4495 12.69 39.6045 11.96 37.7845 11.57C37.2045 10.495 36.7545 9.4 36.4045 8.235C36.3645 8.105 36.3095 7.93 36.2545 7.76C36.1845 7.55 36.1195 7.345 36.0945 7.24C35.9445 6.635 35.8495 5.995 35.7645 5.375C35.6695 4.69 35.5695 3.985 35.3845 3.305L35.3645 3.245C35.2795 3.08 35.1445 2.965 34.9795 2.915C34.7145 2.835 32.8195 3.205 32.5845 3.425C32.3745 3.62 32.2995 4.06 32.4745 5.925L32.4895 6.085C32.5745 7.055 32.7295 8.03 32.8795 8.975C32.9995 9.72 33.1195 10.495 33.2045 11.25C33.2695 11.82 33.1145 12.285 32.9345 12.825C32.8395 13.115 32.7395 13.41 32.6695 13.745C32.1095 16.36 32.6145 18.705 34.1245 20.525C34.1445 20.55 34.6345 21.125 34.6945 21.175C35.2045 21.645 35.7895 21.89 36.6395 21.99C36.9595 22.03 37.2945 22.045 37.6295 22.045L37.6245 22.055ZM49.3595 8.57C49.4195 6.92 49.2495 5.15 48.8495 3.285C48.8545 3.31 48.8645 3.33 48.8695 3.355C48.9845 3.705 49.1145 4.085 49.2445 4.47C49.5695 5.415 49.9045 6.395 50.1295 7.26C50.1545 7.35 50.2445 7.86 50.2795 8.085C50.1045 8.215 49.6145 8.45 49.3545 8.575L49.3595 8.57ZM34.7395 18.585C33.8945 17.01 33.8745 14.735 34.6795 12.87C37.5795 13 40.3995 13.87 42.8395 15.385C42.8545 15.4 42.8645 15.42 42.8745 15.44C42.9245 15.52 42.9995 15.645 43.1595 15.715C44.0895 16.115 44.3945 15.43 44.5795 15.025C44.6395 14.89 44.6995 14.76 44.7695 14.655C45.5995 13.44 47.2995 11.89 48.4695 11.05C49.1045 10.595 49.7595 10.24 50.4495 9.86C50.6545 9.745 50.8595 9.635 51.0695 9.52C51.1095 9.575 51.1645 9.65 51.1945 9.695C51.2445 9.77 51.2895 9.84 51.3295 9.885C51.4045 9.97 51.4945 10.015 51.5695 10.04C52.2845 10.915 53.1095 12.635 53.2095 13.81C53.2745 14.625 53.0545 16.275 52.5645 16.9C52.4695 17.015 51.8645 17.38 51.5945 17.505C49.9145 18.3 47.9495 18.49 46.0645 18.05C45.9195 18.015 45.6245 17.905 45.3395 17.8C44.7045 17.56 44.4295 17.46 44.2495 17.48C43.6945 17.54 43.5545 17.785 43.4595 18.035C43.4345 18.1 43.4195 18.135 43.3945 18.165C42.5945 18.975 40.5845 19.98 39.4995 20.24C38.7995 20.405 36.7245 20.49 36.2645 20.285C36.1695 20.23 35.6645 19.82 35.5945 19.745L35.3795 19.95L35.5945 19.74C35.3545 19.49 34.9245 18.925 34.7495 18.6L34.7395 18.585ZM35.5495 11.29C35.3195 11.285 34.9045 11.275 34.7995 11.22C34.7245 10.62 34.6395 10.02 34.5545 9.415C34.3745 8.135 34.1895 6.82 34.0895 5.53C34.4595 7.53 35.0245 9.465 35.7745 11.3C35.6995 11.3 35.6245 11.295 35.5445 11.295L35.5495 11.29Z" fill="black"/>
<path d="M56.905 25.1352C56.865 24.9702 55.775 22.1402 55.55 21.9252C55.42 21.8002 55.09 21.6452 54.86 21.6752C54.635 21.7052 54.24 21.9252 53.62 22.2902C53.395 22.4202 53.19 22.5452 53.065 22.6002C48.69 24.7102 43.3 25.8302 38.265 25.6802C38.09 25.6752 37.79 25.6402 37.47 25.6052C36.71 25.5252 36.195 25.4752 35.95 25.5252C35.38 25.6502 35.335 26.1002 35.315 26.3202C35.315 26.3502 35.28 29.6852 35.47 29.9852C35.67 30.3052 36.18 30.3402 36.88 30.3552C37.03 30.3552 37.165 30.3552 37.245 30.3702C40.935 30.9152 43.57 32.6402 45.07 35.4902C45.13 35.6052 45.18 35.7552 45.235 35.9152C45.38 36.3502 45.595 37.0002 46.26 37.0002C46.29 37.0002 46.325 37.0002 46.36 37.0002C46.975 36.9452 47.665 36.7652 48.33 36.5902C48.86 36.4502 49.365 36.3202 49.825 36.2502L49.9 36.2302C50.405 36.0052 50.365 35.3502 50.335 34.8252C50.325 34.6502 50.315 34.4852 50.325 34.3702C50.635 31.0652 52.37 28.5352 55.625 26.6302C55.745 26.5602 55.875 26.5052 56.01 26.4552C56.45 26.2752 57.115 26.0052 56.905 25.1452V25.1352ZM55.09 25.0302C55.045 25.0452 55.005 25.0602 54.965 25.0852C52.805 26.3102 50.16 28.6802 49.21 31.6652C48.85 32.7952 48.685 33.8752 48.72 34.8152L46.67 35.1602C46.67 35.1602 46.665 35.1152 46.66 35.1002C46.65 35.0102 46.635 34.9102 46.585 34.8202C45.275 32.2252 42.85 30.2102 39.935 29.2902C39.31 29.0902 38.665 28.9902 38.04 28.8852C37.705 28.8302 37.355 28.7752 37.02 28.7052C37.02 28.6302 37.01 28.5402 37.005 28.4452C36.99 28.1602 36.96 27.5602 36.985 27.2702C38.095 27.3502 39.13 27.3752 40.14 27.3602C44.71 27.2752 49.335 26.1402 53.92 23.9552C54.28 23.7852 54.465 23.7002 54.55 23.6652C54.665 23.8552 54.805 24.3652 54.86 24.5452C54.89 24.6552 54.915 24.7452 54.935 24.7952C54.97 24.8852 55.03 24.9402 55.09 24.9702C55.09 24.9802 55.09 24.9852 55.09 24.9952C55.09 25.0102 55.09 25.0202 55.09 25.0352V25.0302Z" fill="black"/>
</g>
<defs>
<clipPath id="clip0_677_7248">
<rect width="56.43" height="50.965" fill="white" transform="translate(0.514648)"/>
</clipPath>
</defs>
</svg>
