<svg width="43" height="40" viewBox="0 0 43 40" fill="none" xmlns="http://www.w3.org/2000/svg">
<g clip-path="url(#clip0_783_8740)">
<path d="M25.263 21.8942C25.203 21.7217 25.083 21.4929 24.9555 21.2492C24.8205 20.9904 24.6517 20.6642 24.633 20.5367C24.603 20.3492 24.7192 19.8429 24.813 19.4379C24.8992 19.0667 24.978 18.7179 24.993 18.4742C25.038 17.7542 24.6967 17.5142 24.168 17.3679C23.5342 17.1954 22.6717 17.0229 22.4842 17.5554C22.4017 17.7804 22.4617 17.9492 22.5255 18.0504C22.728 18.3729 23.2492 18.4592 23.7742 18.5117L23.538 19.9742L18.0742 19.0104C17.9992 18.9504 17.8905 18.6617 17.8267 18.4854C17.673 18.0804 17.5005 17.6192 17.148 17.4804C16.983 17.4167 16.8067 17.4279 16.623 17.5179C16.5105 17.5742 16.428 17.6642 16.3905 17.7804C16.3042 18.0504 16.473 18.3729 16.638 18.6842C16.653 18.7179 16.6755 18.7517 16.6942 18.7892C16.533 18.7554 16.3342 18.7142 16.173 18.6767C15.633 18.5567 15.2955 18.4742 15.1305 18.4892C14.8942 18.4967 14.688 18.6954 14.6392 18.9617C14.5867 19.2504 14.733 19.5092 15.0105 19.6217L17.1742 20.0342C17.5117 21.1704 17.688 22.3892 17.703 23.6529L17.7142 23.7204C17.8417 24.1217 18.1342 24.2304 18.348 24.2042C18.6442 24.1629 18.8617 23.8779 18.8767 23.5029C18.9142 22.4604 18.7005 21.3392 18.4455 20.2592C20.2267 20.5254 21.9855 20.8554 23.6317 21.1817C24.4455 22.4342 24.3742 23.8742 24.2955 25.3967C24.2805 25.6779 24.2655 25.9667 24.258 26.2554L23.6805 25.8279C20.2267 23.7167 17.0917 25.0067 14.058 26.2592C12.078 27.0729 10.0342 27.9167 7.90795 27.8117C6.5167 27.7404 5.0242 27.3279 3.78295 26.6717L5.98045 20.0267C6.34045 19.2954 6.8392 18.6879 7.4167 18.2679L12.573 19.1604C12.5467 19.1867 12.5167 19.2167 12.4905 19.2542L12.4267 19.3479C12.2317 19.6367 11.943 20.0679 11.8155 20.3042C11.6355 20.6342 11.0917 21.8042 11.0017 22.1567C10.923 22.4829 11.0167 22.7717 11.2492 22.9179C11.4742 23.0567 11.7667 23.0192 12.0142 22.8167L12.0592 22.7792L12.0817 22.7229C12.288 22.1792 12.5092 21.6054 12.7867 21.0729C13.2142 20.2442 13.893 19.2579 14.433 18.6729C14.4705 18.6317 14.5567 18.5642 14.6467 18.4967C14.988 18.2342 15.5017 17.8367 15.2467 17.3754C15.1267 17.1617 14.9655 17.0942 14.8492 17.0754C14.478 17.0192 14.1255 17.3567 13.863 17.6079L13.788 17.6792C13.7167 17.7429 13.653 17.8217 13.593 17.9004C13.4992 18.0167 13.3867 18.1629 13.3305 18.1629L7.8817 17.2029L8.1667 15.7217L21.3892 18.0992C21.3892 18.0992 21.9105 18.1779 22.098 17.9529C22.218 17.8142 22.2517 17.6042 22.188 17.3904C22.1205 17.1692 21.963 16.9929 21.7492 16.9329L8.10295 14.5142H8.06545C7.58545 14.5142 7.18795 14.7804 7.0492 15.1929C6.94795 15.4854 6.9067 15.8267 6.8617 16.1904C6.7942 16.7454 6.72295 17.3192 6.43795 17.6004L6.25045 17.7804C5.78545 18.2267 5.3842 18.6129 5.03545 19.3217C3.72295 22.9742 2.51545 26.7392 1.3417 30.3767C0.992954 31.4642 0.640454 32.5517 0.287954 33.6392L0.276704 33.7029C0.265454 34.3704 0.535454 34.7867 1.1542 35.0567C1.62295 35.2592 2.16295 35.4129 2.6842 35.5629C2.96545 35.6417 3.23545 35.7204 3.4717 35.7992L3.70795 35.8779C5.3542 36.4254 7.06045 36.9954 8.65795 37.5017C8.7742 37.5392 8.9017 37.5879 9.0367 37.6404C9.6592 37.8804 10.4317 38.1767 11.0167 37.7229C11.2567 37.5354 11.3505 37.2879 11.4367 37.0704L11.4817 36.9579C12.0217 35.6604 12.468 34.2204 12.8992 32.8292C13.1092 32.1542 13.323 31.4567 13.5442 30.7929L13.308 37.4904V37.5129C13.398 38.0792 13.6305 38.4017 14.1442 38.6642L14.1855 38.6867H14.2342C14.5605 38.7092 14.8905 38.7279 15.2205 38.7504C16.518 38.8292 17.8567 38.9117 19.1692 38.9117C19.2255 38.9117 19.2892 38.9154 19.3492 38.9192C19.6717 38.9379 20.268 38.9717 20.3392 38.3604C20.403 37.8392 19.9267 37.7754 19.668 37.7417C18.8392 37.6329 17.9242 37.6404 17.0392 37.6442C16.263 37.6479 15.4642 37.6554 14.7405 37.5842C14.628 37.5729 14.538 37.5279 14.5042 37.4904L14.6767 32.2704C15.0705 32.1954 16.2442 32.0792 16.5442 32.0604C18.8242 31.9179 20.6617 32.2029 22.0117 32.9004C22.6492 33.2304 23.943 34.3142 23.9692 34.8767C24.003 35.5592 23.958 36.9429 23.8792 37.5692C23.868 37.6517 23.8455 37.8242 23.8267 37.8542C23.7892 37.8767 23.6167 37.8842 23.5605 37.8879C23.2155 37.9067 22.8555 37.8767 22.473 37.8467C22.0567 37.8129 21.6217 37.7792 21.2055 37.8092H21.138L21.0855 37.8579C20.718 38.1467 20.6917 38.4017 20.7367 38.5629C20.7817 38.7279 20.9317 38.9342 21.408 39.0017C21.8017 39.0579 22.773 39.0879 23.3767 39.0879C23.5117 39.0879 23.6242 39.0879 23.7142 39.0842C24.4492 39.0617 25.0605 38.4579 25.053 37.7717C25.053 35.5892 25.173 33.3467 25.2855 31.1754C25.4092 28.8354 25.5367 26.4204 25.518 24.0467C25.5105 23.3829 25.4992 22.5542 25.278 21.9092L25.263 21.8942ZM24.018 32.8517C24.018 32.8517 23.9955 32.8292 23.9842 32.8179C23.1367 32.0267 21.6442 31.4042 20.613 31.1567C18.903 30.7517 17.0167 30.7254 14.703 31.0817C14.703 30.9617 14.7142 30.8304 14.7255 30.6917C14.778 29.9342 14.8492 28.8954 13.9342 28.7079C13.0417 28.5317 12.8055 29.2292 12.6292 29.7429L12.573 29.9079C12.5055 30.0954 12.4417 30.3279 12.3817 30.5567C12.303 30.8604 12.2205 31.1717 12.1305 31.3517L12.1192 31.3704C11.898 31.3967 10.9305 31.4154 10.6867 31.4079C9.58795 31.3892 8.45545 31.2654 7.49545 31.0592C7.4242 31.0442 7.3117 31.0067 7.1767 30.9617C6.5617 30.7554 6.13795 30.6354 5.9242 30.8229C5.77795 30.9429 5.6992 31.1267 5.70295 31.3217C5.7067 31.5242 5.8042 31.7154 5.9617 31.8354L6.0367 31.8729C8.1442 32.4429 10.0005 32.6642 11.6955 32.5404C11.6692 32.6079 11.643 32.6792 11.6167 32.7542C11.4517 33.2529 11.2905 33.7817 11.1217 34.3179C10.8855 35.0792 10.6417 35.8629 10.398 36.5792C10.2967 36.7704 10.2705 36.7817 10.1167 36.7517C9.52796 36.6429 8.76295 36.3542 8.0242 36.0767C7.6342 35.9304 7.26295 35.7917 6.93295 35.6829C5.6167 35.2592 4.0717 34.7604 2.59045 34.2579C2.50795 34.2317 2.3992 34.2054 2.27545 34.1754C2.05045 34.1229 1.54045 34.0029 1.45045 33.8492L2.58295 30.1742C2.6317 30.1929 2.6767 30.2117 2.7142 30.2342C2.8567 30.3204 2.9992 30.4179 3.14545 30.5154C3.5542 30.7892 3.97795 31.0704 4.46545 31.2617C4.66795 31.3404 4.7992 31.3817 4.9042 31.3742C5.0842 31.3554 5.23795 31.2504 5.3242 31.0892C5.42545 30.9092 5.4292 30.6842 5.3392 30.5004C5.23045 30.2904 4.99045 30.1967 4.81795 30.1292C4.77295 30.1104 4.73545 30.0992 4.70545 30.0804C4.5892 30.0167 4.4692 29.9529 4.34545 29.8854C3.90295 29.6492 3.44545 29.4054 3.08545 29.1392C3.0742 29.1279 3.04045 29.1017 3.00295 29.0717C3.01045 29.0567 3.01795 29.0417 3.02545 29.0229C3.04795 28.9592 3.04795 28.8992 3.04795 28.8429C3.04795 28.8129 3.04795 28.7717 3.05545 28.7567C3.0967 28.6442 3.13795 28.5317 3.18295 28.4192C3.25795 28.2279 3.33295 28.0292 3.39295 27.8267C5.29795 28.7304 7.3942 29.1204 9.31795 28.9329C11.0617 28.7642 12.7042 28.0742 14.2905 27.4029C16.8405 26.3267 19.248 25.3104 22.0155 26.3229C22.6117 26.5404 23.5942 27.1404 24.018 27.6129C24.0555 27.6542 24.0892 27.7067 24.123 27.7592C24.1342 27.7742 24.1417 27.7892 24.153 27.8042C24.153 29.1804 24.0967 30.5829 24.0405 31.9404C24.0292 32.2479 24.0142 32.5517 24.003 32.8554L24.018 32.8517Z" fill="black"/>
<path d="M28.0938 17.3943C28.9563 17.3943 29.8526 17.2368 30.4863 16.9555C31.4501 16.708 32.4551 16.0968 33.2013 15.3093C34.2438 15.6093 35.4138 15.9243 36.5426 15.7968C37.7576 15.658 38.6163 15.3693 39.6101 14.7618C39.6626 14.728 39.7151 14.7055 39.7638 14.6793C39.9138 14.608 40.0788 14.5255 40.2401 14.3118C41.5413 12.5605 41.0351 9.97303 40.0113 8.30803C39.8651 8.06803 39.6626 7.85803 39.4638 7.64803C39.2988 7.47553 39.1451 7.31428 39.0288 7.14553C38.7776 6.78553 38.7213 6.49678 38.6538 6.13303C38.6238 5.96803 38.5901 5.79553 38.5376 5.60803C38.0801 3.96928 37.6338 2.53678 37.1726 1.22428L37.1538 1.18303C37.0301 0.973027 36.8576 0.864277 36.6288 0.853027C36.4676 0.853027 35.3801 1.05928 35.2301 1.13053C35.1588 1.16428 34.8738 1.39678 34.8476 1.57303L34.8401 1.61428L34.8888 1.82428C35.2788 3.43678 35.6801 5.10178 35.6913 6.77053C35.6951 7.46053 35.6538 7.91803 35.6126 8.01178C35.5451 8.13553 35.0013 8.54053 34.7088 8.75428C34.4613 8.93803 34.2476 9.09553 34.1276 9.20428C33.9438 9.37303 33.6663 9.66178 33.5238 9.81178C33.2688 10.0893 33.0438 10.393 32.8263 10.6893C32.6988 10.8618 32.5713 11.0343 32.4363 11.203C30.9626 10.3705 29.5788 9.82303 28.2138 9.53053C27.7788 8.72428 27.4413 7.90303 27.1788 7.02928C27.1488 6.93178 27.1076 6.80053 27.0663 6.67303C27.0138 6.51553 26.9651 6.36178 26.9463 6.28303C26.8338 5.82928 26.7626 5.34928 26.6988 4.88428C26.6276 4.37053 26.5526 3.84178 26.4138 3.33178L26.3988 3.28678C26.3351 3.16303 26.2338 3.07678 26.1101 3.03928C25.9113 2.97928 24.4901 3.25678 24.3138 3.42178C24.1563 3.56803 24.1001 3.89803 24.2313 5.29678L24.2426 5.41678C24.3063 6.14428 24.4226 6.87553 24.5351 7.58428C24.6251 8.14303 24.7151 8.72428 24.7788 9.29053C24.8276 9.71803 24.7113 10.0668 24.5763 10.4718C24.5051 10.6893 24.4301 10.9105 24.3776 11.1618C23.9576 13.123 24.3363 14.8818 25.4688 16.2468C25.4838 16.2655 25.8513 16.6968 25.8963 16.7343C26.2788 17.0868 26.7176 17.2705 27.3551 17.3455C27.5951 17.3755 27.8463 17.3868 28.0976 17.3868L28.0938 17.3943ZM36.8951 7.28053C36.9401 6.04303 36.8126 4.71553 36.5126 3.31678C36.5163 3.33553 36.5238 3.35053 36.5276 3.36928C36.6138 3.63178 36.7113 3.91678 36.8088 4.20553C37.0526 4.91428 37.3038 5.64928 37.4726 6.29803C37.4913 6.36553 37.5588 6.74803 37.5851 6.91678C37.4538 7.01428 37.0863 7.19053 36.8913 7.28428L36.8951 7.28053ZM25.9301 14.7918C25.2963 13.6105 25.2813 11.9043 25.8851 10.5055C28.0601 10.603 30.1751 11.2555 32.0051 12.3918C32.0163 12.403 32.0238 12.418 32.0313 12.433C32.0688 12.493 32.1251 12.5868 32.2451 12.6393C32.9426 12.9393 33.1713 12.4255 33.3101 12.1218C33.3551 12.0205 33.4001 11.923 33.4526 11.8443C34.0751 10.933 35.3501 9.77053 36.2276 9.14053C36.7038 8.79928 37.1951 8.53303 37.7126 8.24803C37.8663 8.16178 38.0201 8.07928 38.1776 7.99303C38.2076 8.03428 38.2488 8.09053 38.2713 8.12428C38.3088 8.18053 38.3426 8.23303 38.3726 8.26678C38.4288 8.33053 38.4963 8.36428 38.5526 8.38303C39.0888 9.03928 39.7076 10.3293 39.7826 11.2105C39.8313 11.8218 39.6663 13.0593 39.2988 13.528C39.2276 13.6143 38.7738 13.888 38.5713 13.9818C37.3113 14.578 35.8376 14.7205 34.4238 14.3905C34.3151 14.3643 34.0938 14.2818 33.8801 14.203C33.4038 14.023 33.1976 13.948 33.0626 13.963C32.6463 14.008 32.5413 14.1918 32.4701 14.3793C32.4513 14.428 32.4401 14.4543 32.4213 14.4768C31.8213 15.0843 30.3138 15.838 29.5001 16.033C28.9751 16.1568 27.4188 16.2205 27.0738 16.0668C27.0026 16.0255 26.6238 15.718 26.5713 15.6618L26.4101 15.8155L26.5713 15.658C26.3913 15.4705 26.0688 15.0468 25.9376 14.803L25.9301 14.7918ZM26.5376 9.32053C26.3651 9.31678 26.0538 9.30928 25.9751 9.26803C25.9188 8.81803 25.8551 8.36803 25.7913 7.91428C25.6563 6.95428 25.5176 5.96803 25.4426 5.00053C25.7201 6.50053 26.1438 7.95178 26.7063 9.32803C26.6501 9.32803 26.5938 9.32428 26.5338 9.32428L26.5376 9.32053Z" fill="black"/>
<path d="M42.5538 19.7043C42.5238 19.5805 41.7063 17.458 41.5375 17.2968C41.44 17.203 41.1925 17.0868 41.02 17.1093C40.8513 17.1318 40.555 17.2968 40.09 17.5705C39.9213 17.668 39.7675 17.7618 39.6738 17.803C36.3925 19.3855 32.35 20.2255 28.5738 20.113C28.4425 20.1093 28.2175 20.083 27.9775 20.0568C27.4075 19.9968 27.0213 19.9593 26.8375 19.9968C26.41 20.0905 26.3763 20.428 26.3613 20.593C26.3613 20.6155 26.335 23.1168 26.4775 23.3418C26.6275 23.5818 27.01 23.608 27.535 23.6193C27.6475 23.6193 27.7488 23.6193 27.8088 23.6305C30.5763 24.0393 32.5525 25.333 33.6775 27.4705C33.7225 27.5568 33.76 27.6693 33.8013 27.7893C33.91 28.1155 34.0713 28.603 34.57 28.603C34.5925 28.603 34.6188 28.603 34.645 28.603C35.1063 28.5618 35.6238 28.4268 36.1225 28.2955C36.52 28.1905 36.8988 28.093 37.2438 28.0405L37.3 28.0255C37.6788 27.8568 37.6488 27.3655 37.6263 26.9718C37.6188 26.8405 37.6113 26.7168 37.6188 26.6305C37.8513 24.1518 39.1525 22.2543 41.5938 20.8255C41.6838 20.773 41.7813 20.7318 41.8825 20.6943C42.2125 20.5593 42.7113 20.3568 42.5538 19.7118V19.7043ZM41.1925 19.6255C41.1588 19.6368 41.1288 19.648 41.0988 19.6668C39.4788 20.5855 37.495 22.363 36.7825 24.6018C36.5125 25.4493 36.3888 26.2593 36.415 26.9643L34.8775 27.223C34.8775 27.223 34.8738 27.1893 34.87 27.178C34.8625 27.1105 34.8513 27.0355 34.8138 26.968C33.8313 25.0218 32.0125 23.5105 29.8263 22.8205C29.3575 22.6705 28.8738 22.5955 28.405 22.5168C28.1538 22.4755 27.8913 22.4343 27.64 22.3818C27.64 22.3255 27.6325 22.258 27.6288 22.1868C27.6175 21.973 27.595 21.523 27.6138 21.3055C28.4463 21.3655 29.2225 21.3843 29.98 21.373C33.4075 21.3093 36.8763 20.458 40.315 18.8193C40.585 18.6918 40.7238 18.628 40.7875 18.6018C40.8738 18.7443 40.9788 19.1268 41.02 19.2618C41.0425 19.3443 41.0613 19.4118 41.0763 19.4493C41.1025 19.5168 41.1475 19.558 41.1925 19.5805C41.1925 19.588 41.1925 19.5918 41.1925 19.5993C41.1925 19.6105 41.1925 19.618 41.1925 19.6293V19.6255Z" fill="black"/>
</g>
<defs>
<clipPath id="clip0_783_8740">
<rect width="42.3225" height="38.2238" fill="white" transform="translate(0.261719 0.853027)"/>
</clipPath>
</defs>
</svg>
