<svg width="37" height="38" viewBox="0 0 37 38" fill="none" xmlns="http://www.w3.org/2000/svg">
<g clip-path="url(#clip0_783_8741)">
<path d="M17.3081 0.666734C21.6215 0.445433 30.5939 1.1831 26.9328 7.74836C28.1752 8.21425 29.3321 8.77721 30.3455 9.65077C33.234 12.1433 34.224 16.9615 35.0704 20.5683C35.8003 23.6781 36.8253 28.0304 36.934 31.1674C36.9612 31.9517 36.8641 32.6738 36.3788 33.3066C36.2429 33.4814 35.8081 33.8036 35.7615 33.9589C35.6567 34.3083 35.7848 35.0305 35.746 35.4498C35.645 36.4553 34.9772 37.1542 33.9639 37.2396C33.0787 37.3172 31.1258 37.3599 30.4037 36.9057C30.2717 36.8242 30.0582 36.5446 29.9805 36.5291C29.8834 36.5136 28.5673 37.4104 28.1674 37.2396H9.10447C8.70846 37.4104 7.38842 36.5136 7.29136 36.5291C7.22536 36.5407 6.63522 37.1348 6.14991 37.2163C5.57142 37.3134 3.2303 37.2939 2.71781 37.1153C2.02673 36.8707 1.59578 36.1564 1.52589 35.4498C1.48319 35.0305 1.61131 34.3083 1.51036 33.9589C1.45989 33.792 0.838696 33.3028 0.667868 32.9766C0.213619 32.1147 0.330093 31.2218 0.415507 30.2938C0.706692 27.1762 1.48319 23.6238 2.20144 20.5683C3.04782 16.9653 4.03785 12.1433 6.92641 9.65077C7.94361 8.77333 9.10059 8.23755 10.3391 7.74836C9.63637 6.66903 9.2093 5.15487 9.66743 3.89695C10.5992 1.3384 14.967 0.78709 17.3081 0.666734ZM17.7818 1.85865C15.9881 1.92465 12.191 2.32455 11.0651 3.87365C10.308 4.91415 10.8788 6.51761 11.6087 7.43388L17.9604 7.35623C18.1894 7.22811 17.6071 6.65738 17.4751 6.5642C16.6636 5.99736 15.7163 6.20313 14.8233 6.1216C14.2022 6.06336 11.2554 5.62853 12.0474 4.53755C12.5094 3.90083 13.3985 4.82486 13.9343 4.68121C14.0003 4.66179 14.5593 4.14931 14.7263 4.0406C16.6287 2.80209 20.2666 2.78268 22.2466 3.85812C22.499 3.99401 23.2677 4.66568 23.3337 4.68121C23.8307 4.81321 25.0187 3.77271 25.306 4.68897C25.5933 5.60523 23.8229 5.9236 23.2134 6.02066C22.1651 6.1876 20.2704 5.93913 19.5134 6.76609C19.4357 6.85151 19.1562 7.27081 19.3037 7.35623L25.6981 7.39117C26.4048 6.44773 26.9638 4.85203 26.1679 3.82706C24.778 2.03336 19.89 1.781 17.7818 1.85865ZM21.5284 4.85203C19.6531 4.15319 17.5877 4.09107 15.7318 4.89086C16.7762 4.96463 17.8866 5.15487 18.632 5.96242C18.9621 5.60523 19.3891 5.35287 19.8434 5.18981L21.5284 4.85203ZM31.452 32.9572H34.985C35.0394 32.9572 35.4936 32.4292 35.5441 32.3283C35.6644 32.0914 35.746 31.7614 35.7421 31.4935C35.6916 28.9078 34.8452 25.2039 34.2862 22.6221C33.1175 17.2371 31.9683 9.61582 25.3681 8.67627C21.2566 8.69568 16.85 8.34626 12.754 8.58309C6.74393 8.92863 5.22589 13.7351 3.92914 18.6503C2.99347 22.1911 2.11603 26.194 1.69672 29.8318C1.61131 30.5617 1.39001 31.7459 1.74719 32.3787C1.80155 32.4758 2.24027 32.9572 2.27909 32.9572H5.81214C5.48989 29.8357 6.01791 26.722 6.54981 23.6548C7.05453 20.7546 7.65631 17.8389 8.36292 14.9892C8.73952 14.3602 9.55872 14.7679 9.45389 15.4395C8.69681 19.4035 7.65243 23.4413 7.16712 27.448C6.89535 29.6804 6.14215 35.772 9.41507 36.0554H27.8374C31.1064 35.7759 30.3493 29.7542 30.0853 27.5295C29.6039 23.4646 28.5479 19.388 27.7908 15.3696C27.717 14.8144 28.3926 14.4495 28.7886 14.8533C28.9555 15.0202 28.9905 15.2454 29.0565 15.4589C29.7747 17.8272 30.2717 21.1623 30.7065 23.6548C31.2384 26.722 31.7664 29.8357 31.4442 32.9572H31.452ZM6.04897 34.2268H2.79546V35.6167C2.79546 35.838 3.19924 36.0166 3.39724 36.0477C3.76608 36.0981 5.67625 36.1098 5.9752 36.0205C6.85264 35.7526 6.16544 34.7781 6.04897 34.2307V34.2268ZM34.4686 34.2268H31.2151C31.1025 34.7742 30.4153 35.7487 31.2889 36.0166C31.5878 36.1059 33.498 36.0981 33.8669 36.0438C34.0649 36.0166 34.4686 35.8341 34.4686 35.6128V34.2229V34.2268Z" fill="black"/>
<path d="M13.7281 23.845C16.8108 24.0197 20.2817 23.5461 23.3178 23.8217C24.731 23.9499 24.7853 24.9166 25.2706 25.9183C25.9307 27.2732 26.579 27.7042 27.4021 28.7913C27.9301 29.4863 27.802 30.3404 27.7205 31.1712C27.5535 32.8446 27.4021 34.087 25.4609 34.2306C21.0543 34.5606 16.2478 33.9744 11.7985 34.2306C10.4202 34.1297 9.99314 33.6327 9.72136 32.336C9.56607 31.5944 9.34476 29.9133 9.59324 29.2417C9.8029 28.6748 10.9638 27.6576 11.3947 26.9976C12.0897 25.9299 12.3265 24.0624 13.7242 23.8489L13.7281 23.845ZM13.9649 25.0331C13.7941 25.0719 13.6116 25.2388 13.5223 25.3864C13.2272 25.8794 13.0059 26.6753 12.6798 27.2422C12.5245 27.5101 12.3304 27.8129 12.1479 28.0614C11.8955 28.403 10.8317 29.4125 10.7696 29.6183C10.626 30.0842 10.8123 31.4974 10.9055 32.0293C10.9909 32.5146 11.0259 32.9572 11.6432 32.9572C16.4109 32.9106 21.1979 33.0348 25.9578 32.8951C26.0549 32.8407 26.152 32.7669 26.2063 32.6699C26.416 32.2972 26.6217 30.0259 26.4975 29.6183C26.4354 29.4125 25.3677 28.403 25.1192 28.0614C24.9368 27.8168 24.7426 27.5101 24.5873 27.2422C24.3427 26.819 23.7798 25.3048 23.5119 25.1418C23.3605 25.0525 23.1819 25.0175 23.0033 25.0136L13.9688 25.0331H13.9649Z" fill="black"/>
<path d="M21.0623 10.4196C20.9187 10.5866 21.1594 14.2711 21.0507 14.8146C20.9459 15.463 19.8937 15.4164 19.8626 14.7408L19.8704 10.4585C19.156 10.4196 19.0163 9.3442 19.6685 9.21997C19.8665 9.18114 21.1477 9.18502 21.3186 9.23549C21.7068 9.34809 21.7922 9.97316 21.4972 10.2566C21.3613 10.3847 21.0856 10.4002 21.0662 10.4196H21.0623Z" fill="black"/>
<path d="M17.409 10.4196C17.2653 10.5866 17.5022 14.2749 17.3973 14.8146C17.176 15.4358 16.2908 15.4397 16.2054 14.7408L16.2132 10.4585C15.4988 10.4196 15.359 9.3442 16.0113 9.21997C16.2093 9.18114 17.4905 9.18502 17.6613 9.23549C18.0496 9.34809 18.135 9.97316 17.8399 10.2566C17.704 10.3847 17.4284 10.4002 17.409 10.4196Z" fill="black"/>
</g>
<defs>
<clipPath id="clip0_783_8741">
<rect width="36.6" height="36.6583" fill="white" transform="translate(0.333984 0.635742)"/>
</clipPath>
</defs>
</svg>
