<svg width="50" height="49" viewBox="0 0 50 49" fill="none" xmlns="http://www.w3.org/2000/svg">
<g clip-path="url(#clip0_677_7256)">
<path d="M23.5769 0.084942C29.3281 -0.210126 41.2913 0.773433 36.4097 9.5271C38.0662 10.1483 39.6089 10.8989 40.96 12.0637C44.8114 15.387 46.1314 21.8112 47.2599 26.6203C48.2331 30.7668 49.5997 36.5698 49.7447 40.7525C49.7809 41.7982 49.6515 42.761 49.0044 43.6048C48.8232 43.8378 48.2435 44.2674 48.1813 44.4745C48.0416 44.9404 48.2124 45.9032 48.1606 46.4623C48.026 47.8031 47.1357 48.7349 45.7846 48.8487C44.6043 48.9523 42.0005 49.0092 41.0376 48.4035C40.8616 48.2948 40.5769 47.9221 40.4734 47.9014C40.3439 47.8807 38.5891 49.0765 38.0559 48.8487H12.6386C12.1106 49.0765 10.3506 47.8807 10.2212 47.9014C10.1332 47.9169 9.34631 48.709 8.69923 48.8177C7.92792 48.9471 4.80641 48.9212 4.1231 48.6831C3.20166 48.357 2.62705 47.4045 2.53387 46.4623C2.47693 45.9032 2.64776 44.9404 2.51317 44.4745C2.44587 44.2519 1.61761 43.5996 1.38984 43.1648C0.784174 42.0156 0.939473 40.825 1.05336 39.5878C1.44161 35.4309 2.47693 30.6943 3.43461 26.6203C4.56311 21.8164 5.88315 15.387 9.73456 12.0637C11.0908 10.8937 12.6335 10.1794 14.2848 9.5271C13.3478 8.088 12.7784 6.06912 13.3893 4.39189C14.6316 0.980498 20.4553 0.245417 23.5769 0.084942ZM24.2084 1.67417C21.8168 1.76217 16.7541 2.29536 15.2528 4.36083C14.2434 5.74817 15.0044 7.88612 15.9776 9.1078L24.4465 9.00427C24.7519 8.83344 23.9755 8.07247 23.7994 7.94823C22.7175 7.19245 21.4544 7.46681 20.2638 7.3581C19.4356 7.28045 15.5065 6.70067 16.5625 5.24604C17.1785 4.39707 18.364 5.62911 19.0784 5.43757C19.1664 5.41169 19.9118 4.72837 20.1344 4.58343C22.6709 2.93209 27.5214 2.9062 30.1615 4.34013C30.498 4.52131 31.523 5.41686 31.611 5.43757C32.2736 5.61358 33.8576 4.22624 34.2407 5.44792C34.6238 6.66961 32.2632 7.09409 31.4505 7.22351C30.0528 7.4461 27.5266 7.1148 26.5172 8.21742C26.4136 8.3313 26.0409 8.89038 26.2376 9.00427L34.7635 9.05085C35.7057 7.79294 36.4511 5.66534 35.3899 4.29871C33.5367 1.90711 27.0193 1.57063 24.2084 1.67417ZM29.2038 5.66534C26.7035 4.73355 23.9496 4.65072 21.4751 5.71711C22.8677 5.81546 24.3482 6.06912 25.3421 7.14586C25.7821 6.66961 26.3515 6.33313 26.9572 6.11571L29.2038 5.66534ZM42.4353 43.1389H47.146C47.2185 43.1389 47.8242 42.4349 47.8915 42.3003C48.0519 41.9845 48.1606 41.5445 48.1555 41.1873C48.0882 37.7397 46.9597 32.8012 46.2142 29.3588C44.6561 22.1788 43.1238 12.0171 34.3235 10.7643C28.8415 10.7902 22.966 10.3243 17.5047 10.6401C9.49126 11.1008 7.4672 17.5095 5.7382 24.0631C4.49064 28.7841 3.32072 34.1212 2.76164 38.9717C2.64776 39.9449 2.35269 41.5238 2.82894 42.3676C2.90141 42.497 3.48637 43.1389 3.53814 43.1389H8.24887C7.81921 38.9769 8.52323 34.8253 9.23242 30.7357C9.90539 26.8688 10.7078 22.9812 11.6499 19.1815C12.152 18.3429 13.2443 18.8864 13.1045 19.782C12.0951 25.0673 10.7026 30.451 10.0555 35.7933C9.69314 38.7699 8.68888 46.892 13.0528 47.2699H37.6159C41.9746 46.8972 40.9651 38.8682 40.6131 35.902C39.9712 30.4821 38.5632 25.0466 37.5537 19.6888C37.4554 18.9486 38.3561 18.462 38.8841 19.0003C39.1067 19.2229 39.1533 19.5232 39.2413 19.8079C40.199 22.9656 40.8616 27.4123 41.4414 30.7357C42.1506 34.8253 42.8546 38.9769 42.4249 43.1389H42.4353ZM8.56464 44.8317H4.22663V46.6849C4.22663 46.98 4.765 47.2181 5.02901 47.2595C5.52079 47.3268 8.06768 47.3423 8.46628 47.2233C9.6362 46.8661 8.71994 45.5668 8.56464 44.8369V44.8317ZM46.4575 44.8317H42.1195C41.9694 45.5616 41.0531 46.8609 42.2179 47.2181C42.6165 47.3372 45.1634 47.3268 45.6552 47.2543C45.9192 47.2181 46.4575 46.9748 46.4575 46.6797V44.8265V44.8317Z" fill="black"/>
<path d="M18.8038 30.9894C22.914 31.2224 27.5419 30.5908 31.59 30.9584C33.4743 31.1292 33.5468 32.4182 34.1939 33.7537C35.0739 35.5604 35.9384 36.135 37.0358 37.5844C37.7399 38.511 37.569 39.6499 37.4603 40.7577C37.2377 42.9888 37.0358 44.6453 34.4475 44.8369C28.5721 45.2769 22.1634 44.4952 16.231 44.8369C14.3933 44.7023 13.8239 44.0397 13.4615 42.3107C13.2544 41.322 12.9594 39.0805 13.2907 38.1849C13.5702 37.4291 15.118 36.0729 15.6926 35.1928C16.6192 33.7693 16.935 31.2793 18.7986 30.9946L18.8038 30.9894ZM19.1195 32.5735C18.8918 32.6252 18.6485 32.8478 18.5294 33.0445C18.136 33.702 17.8409 34.7632 17.4061 35.519C17.199 35.8761 16.9402 36.2799 16.6969 36.6112C16.3604 37.0668 14.942 38.4127 14.8592 38.6871C14.6676 39.3082 14.9161 41.1925 15.0404 41.9017C15.1542 42.5488 15.2008 43.139 16.0239 43.139C22.3808 43.0768 28.7636 43.2425 35.1101 43.0561C35.2395 42.9837 35.369 42.8853 35.4414 42.7559C35.721 42.2589 35.9953 39.2306 35.8297 38.6871C35.7469 38.4127 34.3233 37.0668 33.992 36.6112C33.7487 36.2851 33.4899 35.8761 33.2828 35.519C32.9567 34.9547 32.206 32.9358 31.8489 32.7184C31.647 32.5993 31.4088 32.5528 31.1707 32.5476L19.1247 32.5735H19.1195Z" fill="black"/>
<path d="M28.5828 13.0887C28.3912 13.3113 28.7122 18.224 28.5672 18.9487C28.4275 19.8132 27.0246 19.7511 26.9832 18.8503L26.9936 13.1405C26.0411 13.0887 25.8547 11.6548 26.7244 11.4892C26.9884 11.4374 28.6967 11.4426 28.9244 11.5099C29.4421 11.66 29.556 12.4934 29.1626 12.8713C28.9814 13.0422 28.6138 13.0629 28.588 13.0887H28.5828Z" fill="black"/>
<path d="M23.712 13.0887C23.5204 13.3113 23.8362 18.2291 23.6964 18.9487C23.4014 19.7769 22.2211 19.7821 22.1072 18.8503L22.1176 13.1405C21.1651 13.0887 20.9787 11.6548 21.8484 11.4892C22.1124 11.4374 23.8207 11.4426 24.0485 11.5099C24.5661 11.66 24.68 12.4934 24.2866 12.8713C24.1054 13.0422 23.7379 13.0629 23.712 13.0887Z" fill="black"/>
</g>
<defs>
<clipPath id="clip0_677_7256">
<rect width="48.8" height="48.8777" fill="white" transform="translate(0.945312 0.0437012)"/>
</clipPath>
</defs>
</svg>
