<svg width="35" height="38" viewBox="0 0 35 38" fill="none" xmlns="http://www.w3.org/2000/svg">
<g clip-path="url(#clip0_783_8739)">
<path d="M12.945 12.1231H22.395C22.4737 12.0443 22.5525 10.3006 22.7662 9.92935C23.025 9.47935 23.7937 9.63685 23.7862 10.2931C23.7787 10.9793 23.4975 11.9093 23.4562 12.6556C23.4225 13.2706 23.3925 14.2606 23.4525 14.8568C23.5275 15.6293 25.9612 19.2668 26.55 20.1481C28.8787 23.6469 31.485 27.0256 34.4437 30.0144C34.785 30.5919 33.84 31.1168 33.42 31.4131C32.5687 32.0206 31.62 32.5156 30.705 33.0181C30.525 33.1869 30.8325 33.4419 30.5812 33.7906C30.3562 34.1094 28.5787 35.0281 28.1287 35.2456C22.8262 37.8294 16.575 38.4781 10.9087 36.6819C10.575 36.5769 9.64121 36.3519 9.53996 36.0144C9.45746 35.7369 9.50621 35.4406 9.78746 35.3206C10.2262 35.1331 11.5125 35.7144 12.06 35.8568C17.0362 37.1244 21.8962 36.7006 26.6025 34.7056C26.9212 34.5706 29.1525 33.5056 29.2237 33.3781C29.265 33.3106 29.235 33.2131 29.19 33.1456C25.965 28.8594 23.445 24.0818 21.2062 19.2143C21.0112 18.7118 21.315 18.1343 21.8775 18.3781C22.2675 18.5468 22.6762 19.7918 22.89 20.2193C24.915 24.3443 27.0825 28.4169 29.805 32.1294C29.8875 32.1969 29.9662 32.1631 30.0525 32.1331C30.33 32.0431 31.1475 31.5219 31.4587 31.3344C31.6687 31.2106 33.0375 30.3481 33.0487 30.2506C31.9387 28.9756 30.7875 27.7381 29.7262 26.4181C27.0787 23.1294 24.7312 19.5443 22.62 15.8881L12.8175 15.8656L12.69 15.9256C9.75371 21.0631 6.31121 25.9269 2.27246 30.2506C2.78621 30.6331 3.32621 31.0044 3.87371 31.3344C4.17746 31.5181 5.00996 32.0431 5.27996 32.1331C5.36621 32.1631 5.44121 32.1969 5.52746 32.1294C8.54621 27.9519 10.995 23.3881 13.1175 18.6968C13.5787 17.9581 14.4225 18.4044 14.1262 19.2181C11.88 24.1043 9.34121 28.8969 6.10871 33.2019L6.17996 33.4306C6.67871 33.8319 7.96871 34.1994 8.37371 34.5744C8.82371 34.9869 8.41871 35.6581 7.72496 35.4706C7.31621 35.3581 4.94996 34.0793 4.75871 33.7943C4.54871 33.4756 4.78871 33.1719 4.63496 33.0256C4.10996 32.7481 3.56246 32.4706 3.05996 32.1556C2.62871 31.8819 0.892461 30.8169 0.817461 30.4006C0.791211 30.2581 0.817461 30.1419 0.896211 30.0219C4.24871 26.6244 7.15496 22.7431 9.71621 18.7193C10.1625 18.0181 11.6812 15.7831 11.8425 15.1456C12.1612 13.8968 11.6887 11.0918 11.4337 9.76435C11.22 8.6581 10.7475 7.33435 10.5975 6.28435C10.53 5.8006 10.815 5.26435 11.115 4.8856C11.2612 4.70185 11.73 4.3756 11.76 4.3081C11.8425 4.13185 11.9137 3.3256 12.0037 3.0031C12.2475 2.12185 12.8475 0.989348 13.59 0.434348C14.0287 0.108098 14.25 0.160598 14.5537 0.614348C15.2325 1.61185 15.54 3.02935 15.78 4.19185C15.8437 4.27435 17.5575 4.9606 17.6962 4.9531C17.8087 4.94935 19.485 4.2706 19.545 4.19185C19.59 3.48685 20.505 0.434348 21.1425 0.246848C21.5437 0.130598 22.0162 0.678098 22.2675 0.966848C22.7512 1.5256 23.1262 2.29435 23.325 3.00685C23.4187 3.3481 23.4637 4.0981 23.5687 4.3081C23.6062 4.38685 24.0637 4.6981 24.2137 4.8856C24.5212 5.27185 24.7912 5.7856 24.7312 6.28435C24.7012 6.5131 24.2962 8.1406 24.2175 8.29435C23.985 8.74435 23.3887 8.75935 23.1862 8.27935C22.935 7.6831 23.8987 6.36685 23.4525 5.73685C22.6575 4.6081 21.0337 4.94185 19.905 5.28685C19.41 5.43685 18.0112 6.17935 17.7075 6.1906C17.4037 6.20185 15.9225 5.43685 15.4312 5.28685C14.16 4.9006 12.2662 4.55935 11.7262 6.13435C12.24 8.10685 12.7125 10.0981 12.945 12.1306V12.1231ZM14.5725 3.8956C14.6887 3.77935 14.0437 2.02435 13.8787 1.77685C13.32 2.3506 13.14 3.14935 12.9412 3.8956C13.5075 3.74185 13.9987 3.9256 14.5725 3.8956ZM22.3912 3.8956C22.1775 3.1606 22.0275 2.2981 21.4162 1.77685C21.1875 2.47435 20.82 3.1456 20.7637 3.8956C21.3337 3.9256 21.825 3.7381 22.395 3.8956H22.3912ZM22.3912 14.7331V13.3906C22.3912 13.3906 22.2787 13.2668 22.2675 13.2668H13.02V14.7331H22.3875H22.3912Z" fill="black"/>
</g>
<defs>
<clipPath id="clip0_783_8739">
<rect width="33.705" height="37.4812" fill="white" transform="translate(0.806641 0.224365)"/>
</clipPath>
</defs>
</svg>
