<svg width="46" height="51" viewBox="0 0 46 51" fill="none" xmlns="http://www.w3.org/2000/svg">
<g clip-path="url(#clip0_677_7247)">
<path d="M16.7603 16.3603H29.3603C29.4653 16.2553 29.5703 13.9303 29.8553 13.4353C30.2003 12.8353 31.2253 13.0453 31.2153 13.9203C31.2053 14.8353 30.8303 16.0753 30.7753 17.0703C30.7303 17.8903 30.6903 19.2103 30.7703 20.0053C30.8703 21.0353 34.1153 25.8853 34.9003 27.0603C38.0053 31.7253 41.4803 36.2303 45.4253 40.2153C45.8803 40.9853 44.6203 41.6853 44.0603 42.0803C42.9253 42.8903 41.6603 43.5503 40.4403 44.2203C40.2003 44.4453 40.6103 44.7853 40.2753 45.2503C39.9753 45.6753 37.6053 46.9003 37.0053 47.1903C29.9353 50.6353 21.6003 51.5003 14.0453 49.1053C13.6003 48.9653 12.3553 48.6653 12.2203 48.2153C12.1103 47.8453 12.1753 47.4503 12.5503 47.2903C13.1353 47.0403 14.8503 47.8153 15.5803 48.0053C22.2153 49.6953 28.6953 49.1303 34.9703 46.4703C35.3953 46.2903 38.3703 44.8703 38.4653 44.7003C38.5203 44.6103 38.4803 44.4803 38.4203 44.3903C34.1203 38.6753 30.7603 32.3053 27.7753 25.8153C27.5153 25.1453 27.9203 24.3753 28.6703 24.7003C29.1903 24.9253 29.7353 26.5853 30.0203 27.1553C32.7203 32.6553 35.6103 38.0853 39.2403 43.0353C39.3503 43.1253 39.4553 43.0803 39.5703 43.0403C39.9403 42.9203 41.0303 42.2253 41.4453 41.9753C41.7253 41.8103 43.5503 40.6603 43.5653 40.5303C42.0853 38.8303 40.5503 37.1803 39.1353 35.4203C35.6053 31.0353 32.4753 26.2553 29.6603 21.3803L16.5903 21.3503L16.4203 21.4303C12.5053 28.2803 7.91527 34.7653 2.53027 40.5303C3.21527 41.0403 3.93527 41.5353 4.66527 41.9753C5.07027 42.2203 6.18027 42.9203 6.54027 43.0403C6.65527 43.0803 6.75527 43.1253 6.87027 43.0353C10.8953 37.4653 14.1603 31.3803 16.9903 25.1253C17.6053 24.1403 18.7303 24.7353 18.3353 25.8203C15.3403 32.3353 11.9553 38.7253 7.64527 44.4653L7.74027 44.7703C8.40527 45.3053 10.1253 45.7953 10.6653 46.2953C11.2653 46.8453 10.7253 47.7403 9.80027 47.4903C9.25527 47.3403 6.10027 45.6353 5.84527 45.2553C5.56527 44.8303 5.88527 44.4253 5.68027 44.2303C4.98027 43.8603 4.25027 43.4903 3.58027 43.0703C3.00527 42.7053 0.690273 41.2853 0.590273 40.7303C0.555273 40.5403 0.590273 40.3853 0.695273 40.2253C5.16527 35.6953 9.04027 30.5203 12.4553 25.1553C13.0503 24.2203 15.0753 21.2403 15.2903 20.3903C15.7153 18.7253 15.0853 14.9853 14.7453 13.2153C14.4603 11.7403 13.8303 9.97526 13.6303 8.57526C13.5403 7.93026 13.9203 7.21526 14.3203 6.71026C14.5153 6.46526 15.1403 6.03026 15.1803 5.94026C15.2903 5.70526 15.3853 4.63026 15.5053 4.20026C15.8303 3.02526 16.6303 1.51526 17.6203 0.775257C18.2053 0.340257 18.5003 0.410257 18.9053 1.01526C19.8103 2.34526 20.2203 4.23526 20.5403 5.78526C20.6253 5.89526 22.9103 6.81026 23.0953 6.80026C23.2453 6.79526 25.4803 5.89026 25.5603 5.78526C25.6203 4.84526 26.8403 0.775257 27.6903 0.525257C28.2253 0.370257 28.8553 1.10026 29.1903 1.48526C29.8353 2.23026 30.3353 3.25526 30.6003 4.20526C30.7253 4.66026 30.7853 5.66026 30.9253 5.94026C30.9753 6.04526 31.5853 6.46026 31.7853 6.71026C32.1953 7.22526 32.5553 7.91026 32.4753 8.57526C32.4353 8.88026 31.8953 11.0503 31.7903 11.2553C31.4803 11.8553 30.6853 11.8753 30.4153 11.2353C30.0803 10.4403 31.3653 8.68526 30.7703 7.84526C29.7103 6.34026 27.5453 6.78526 26.0403 7.24526C25.3803 7.44526 23.5153 8.43526 23.1103 8.45026C22.7053 8.46526 20.7303 7.44526 20.0753 7.24526C18.3803 6.73026 15.8553 6.27526 15.1353 8.37526C15.8203 11.0053 16.4503 13.6603 16.7603 16.3703V16.3603ZM18.9303 5.39026C19.0853 5.23526 18.2253 2.89526 18.0053 2.56526C17.2603 3.33026 17.0203 4.39526 16.7553 5.39026C17.5103 5.18526 18.1653 5.43026 18.9303 5.39026ZM29.3553 5.39026C29.0703 4.41026 28.8703 3.26026 28.0553 2.56526C27.7503 3.49526 27.2603 4.39026 27.1853 5.39026C27.9453 5.43026 28.6003 5.18026 29.3603 5.39026H29.3553ZM29.3553 19.8403V18.0503C29.3553 18.0503 29.2053 17.8853 29.1903 17.8853H16.8603V19.8403H29.3503H29.3553Z" fill="black"/>
</g>
<defs>
<clipPath id="clip0_677_7247">
<rect width="44.94" height="49.975" fill="white" transform="translate(0.575195 0.495117)"/>
</clipPath>
</defs>
</svg>
