<svg width="61" height="30" viewBox="0 0 61 30" fill="none" xmlns="http://www.w3.org/2000/svg">
<g clip-path="url(#clip0_677_7253)">
<path d="M46.293 10.9733C46.6114 11.3074 46.3713 12.0225 46.5018 12.2366C46.5906 12.3879 49.4512 13.599 49.707 13.6617C50.4535 13.8444 51.2365 13.6617 51.9882 13.7295C53.8675 13.9018 56.7751 14.1993 58.4195 15.092C60.8364 16.4075 61.4785 19.6753 60.33 22.0661C59.8759 23.011 59.4426 24.2743 58.9519 25.099C57.3128 27.8344 52.6721 29.27 49.6496 29.4683C37.6484 28.9567 25.1148 30.1313 13.1815 29.4631C9.83015 29.2752 3.99923 27.9701 1.35782 25.8507C0.809705 25.4123 0.496495 25.2139 0.679201 24.4674C0.98197 23.2407 2.53236 20.8028 2.63154 19.8162C2.65764 19.55 2.40708 19.242 2.3862 18.9445C2.16173 15.4574 3.8635 11.0725 5.28861 7.90382C6.41094 5.4138 7.4602 3.45624 10.2843 2.60535C14.1942 1.42559 14.3247 4.22882 16.0474 6.75538C18.0832 9.74132 20.1974 9.17754 23.105 7.70023C23.2303 7.52275 22.4421 6.30645 22.3272 5.91494C21.7739 4.0148 22.9014 0.835715 25.1148 0.658229C28.273 0.407661 32.8824 5.03795 35.7483 6.32211C36.0302 6.40041 36.3016 5.45556 37.2256 5.86795C38.0295 6.22815 37.45 7.1991 37.5858 7.4079C37.6171 7.45488 38.4575 7.96124 38.515 7.97168C39.0004 8.09174 39.2875 7.02161 40.2272 7.56973C41.1668 8.11785 40.3211 8.81735 40.3211 8.94785C40.3211 9.07836 41.4226 9.63691 41.6784 9.58471C42.1169 9.49075 42.3518 8.82779 43.0669 9.13056C43.9492 9.50119 43.3436 10.1903 43.4271 10.5557C43.4585 10.707 44.3668 11.1821 44.5286 11.1977C44.988 11.2395 45.557 10.1903 46.3035 10.9733H46.293ZM28.1007 3.44058C27.2812 3.14303 25.6577 2.04679 24.8694 2.63145C24.5928 2.84026 24.0499 3.91039 23.9925 4.25492C23.8881 4.89178 24.1386 6.68752 25.0052 6.30645C25.2766 6.18638 28.226 3.60762 28.1007 3.44058ZM7.22007 8.14395C10.0076 8.64508 13.1345 10.9889 15.8908 9.39679C14.8102 8.85911 12.8787 4.20794 12.127 4.067C11.8086 4.00436 10.5244 4.38543 10.159 4.54725C8.68694 5.19977 7.669 6.6301 7.22007 8.14917V8.14395ZM31.9219 5.94104C31.3164 5.92016 29.9957 4.47939 29.5206 4.62555C27.0776 7.08425 22.9014 10.8062 19.2317 10.7331C18.788 10.7227 17.9736 10.4408 17.6291 10.5243C17.2845 10.6079 16.4754 11.2447 16.0004 11.4066C14.7736 11.8346 13.479 11.8816 12.2158 11.6101C11.3597 11.4222 6.8651 9.71522 6.57799 9.78308C6.3744 9.83006 5.95157 10.7175 6.1917 10.8689C9.13587 11.6154 12.0435 12.4819 14.9146 13.4685C15.6611 13.9958 15.3635 15.2643 14.3926 15.1755C11.4066 14.1837 8.39983 13.2075 5.31471 12.555C4.82401 14.5543 3.96791 16.5328 4.15583 18.6365L25.6003 21.6694C25.7099 21.5754 24.8955 20.5993 24.7911 20.4949C23.4548 19.1533 21.0378 17.9683 19.3309 17.1331C18.7619 16.8564 17.1279 16.4127 16.9557 15.8333C16.7364 15.0972 17.248 14.5439 17.9893 14.6431C19.2369 14.8049 21.09 16.3396 22.2176 16.6163C22.322 16.6424 22.4055 16.6894 22.5099 16.6058L31.9219 5.94104ZM34.4224 7.55929L33.4096 7.12601L24.1543 17.5089C23.9977 17.9109 24.5354 17.9787 24.8538 18.2293C26.1849 19.2786 27.2133 20.3174 27.7614 21.9722L36.2442 22.964C36.4321 22.9275 37.3926 21.3405 37.6589 21.0169C39.0631 19.336 41.7149 17.5037 43.8291 16.8982C45.6405 16.3761 47.5615 16.5328 49.2685 15.6453C49.4982 15.3426 45.3586 13.7608 45.0767 13.4842C44.4033 13.9801 43.8343 15.1494 42.832 14.6587C42.0229 14.262 42.5397 13.03 43.2392 12.8525C43.448 12.5706 42.1952 11.9599 42.0125 11.9964C41.5635 12.08 40.4308 14.1785 39.5799 12.6072C39.1048 11.7302 40.3368 11.323 40.081 10.9367C40.0131 10.8323 39.0526 10.3521 38.9221 10.3782C38.4471 10.4669 37.4918 12.5759 36.6409 10.9889C36.1763 10.1224 37.4605 9.46987 37.3613 9.3237C36.9646 9.28194 36.5835 8.80169 36.2233 8.75471C35.5081 8.65552 34.96 10.5713 33.9056 9.62125C32.8511 8.67118 34.6625 7.89338 34.4224 7.56451V7.55929ZM56.3314 16.2352C55.705 16.0003 51.2365 15.3165 51.0434 15.5044C51.012 15.5357 50.9755 16.089 50.8241 16.3918C50.2081 17.6394 48.214 17.937 46.9925 18.151C46.8046 18.1823 46.5279 18.198 46.768 18.4381C46.8568 18.5269 47.7964 18.7252 48.0104 18.7409C49.3207 18.8296 51.0277 18.2554 52.2805 17.8535L56.3209 16.2352H56.3314ZM57.6521 23.7314C56.6707 23.888 55.7154 24.2221 54.7392 24.4204C53.1941 24.7336 51.0277 25.1721 49.4878 25.2087C48.2245 25.24 47.7442 24.149 48.8196 23.4965C50.6936 23.225 52.5885 23.0319 54.4417 22.6508C55.2143 22.4942 57.9601 21.8939 58.4612 21.5232C58.8684 21.2257 59.1294 20.1764 59.1294 19.6805C59.1294 19.1846 58.8266 17.5872 58.3098 17.5402C55.0733 18.4381 49.8375 21.4658 46.5227 20.2234C45.6562 19.8998 44.7426 18.6052 44.4868 18.5738C43.2549 18.4486 38.8647 21.7373 38.3897 23.131C39.9244 23.2929 41.4852 23.4704 43.0252 23.5748C43.803 23.627 45.9172 23.3346 46.34 23.9349C46.695 24.4361 46.434 25.2243 45.8128 25.3392C45.1133 25.4697 43.3802 25.3757 42.5815 25.3392C34.8556 25.0103 26.352 23.6635 18.6314 22.6769C13.8653 22.0661 9.10977 21.3092 4.34376 20.6932C4.15583 20.7245 4.10363 20.8968 4.02011 21.0378C3.84262 21.3405 2.65764 24.2064 2.65764 24.3891C2.65764 24.6867 3.90526 25.2765 4.24457 25.4436C6.8912 26.7434 10.6706 27.5264 13.6148 27.6882C25.261 28.346 37.497 27.1923 49.2006 27.6935C52.2597 27.3542 55.9921 26.5764 57.6469 23.7209L57.6521 23.7314Z" fill="black"/>
<path d="M30.121 6.41587C30.857 7.15191 29.6094 8.68142 28.7637 7.70003C27.9181 6.71864 29.4371 5.73203 30.121 6.41587Z" fill="black"/>
</g>
<defs>
<clipPath id="clip0_677_7253">
<rect width="60.2616" height="29.0293" fill="white" transform="translate(0.62207 0.647705)"/>
</clipPath>
</defs>
</svg>
