<svg width="46" height="22" viewBox="0 0 46 22" fill="none" xmlns="http://www.w3.org/2000/svg">
<g clip-path="url(#clip0_783_8750)">
<path d="M34.8452 7.83323C35.0841 8.0838 34.904 8.62017 35.0019 8.78069C35.0684 8.89423 37.2139 9.80254 37.4057 9.84952C37.9656 9.98655 38.5529 9.84952 39.1166 9.90041C40.5261 10.0296 42.7068 10.2528 43.9401 10.9223C45.7528 11.9089 46.2343 14.3597 45.373 16.1529C45.0324 16.8615 44.7074 17.809 44.3394 18.4276C43.1101 20.4791 39.6295 21.5557 37.3627 21.7045C28.3618 21.3208 18.9616 22.2017 10.0116 21.7006C7.4981 21.5597 3.12491 20.5809 1.14386 18.9913C0.732767 18.6625 0.49786 18.5137 0.634889 17.9538C0.861966 17.0338 2.02476 15.2054 2.09915 14.4655C2.11872 14.2658 1.9308 14.0348 1.91513 13.8116C1.74678 11.1963 3.02311 7.90762 4.09194 5.53114C4.9337 3.66362 5.72064 2.19545 7.83872 1.55728C10.7711 0.672466 10.869 2.77489 12.161 4.66981C13.6879 6.90926 15.2735 6.48643 17.4543 5.37845C17.5482 5.24533 16.957 4.33311 16.8709 4.03947C16.4559 2.61437 17.3016 0.230057 18.9616 0.0969432C21.3302 -0.0909828 24.7873 3.38173 26.9367 4.34485C27.1481 4.40358 27.3517 3.69494 28.0447 4.00424C28.6476 4.27438 28.213 5.00259 28.3148 5.1592C28.3383 5.19444 28.9686 5.5742 29.0117 5.58203C29.3758 5.67208 29.5912 4.86948 30.2959 5.28057C31.0006 5.69166 30.3663 6.21628 30.3663 6.31416C30.3663 6.41204 31.1924 6.83096 31.3843 6.79181C31.7131 6.72133 31.8893 6.22411 32.4257 6.45119C33.0874 6.72916 32.6332 7.24596 32.6958 7.52002C32.7193 7.63356 33.4006 7.98983 33.5219 8.00158C33.8665 8.0329 34.2932 7.24596 34.8531 7.83323H34.8452ZM21.201 2.1837C20.5864 1.96054 19.3688 1.13837 18.7776 1.57686C18.5701 1.73347 18.1629 2.53607 18.1198 2.79446C18.0415 3.27211 18.2295 4.61891 18.8794 4.33311C19.083 4.24306 21.295 2.30899 21.201 2.1837ZM5.54054 5.71123C7.63122 6.08708 9.97638 7.84497 12.0436 6.65086C11.2331 6.2476 9.78454 2.75923 9.22076 2.65352C8.98193 2.60654 8.01881 2.89234 7.74475 3.01371C6.64069 3.5031 5.87724 4.57585 5.54054 5.71515V5.71123ZM24.0669 4.05905C23.6128 4.04339 22.6222 2.96281 22.266 3.07244C20.4337 4.91646 17.3016 7.70794 14.5492 7.65313C14.2165 7.6453 13.6057 7.43389 13.3473 7.49653C13.0889 7.55917 12.4821 8.03682 12.1258 8.15819C11.2057 8.47923 10.2348 8.51446 9.28731 8.31087C8.64523 8.16993 5.27431 6.88968 5.05898 6.94058C4.90629 6.97582 4.58916 7.64139 4.76926 7.75493C6.97739 8.31479 9.15811 8.9647 11.3114 9.70466C11.8713 10.1001 11.6481 11.0515 10.9199 10.9849C8.68047 10.241 6.42536 9.5089 4.11152 9.01951C3.7435 10.519 3.10142 12.0028 3.24236 13.5806L19.3257 15.8553C19.4079 15.7848 18.7972 15.0527 18.7188 14.9744C17.7166 13.9682 15.9039 13.0795 14.6236 12.4531C14.1969 12.2456 12.9714 11.9128 12.8422 11.4782C12.6778 10.9262 13.0615 10.5112 13.6174 10.5856C14.5532 10.7069 15.943 11.858 16.7887 12.0655C16.867 12.0851 16.9296 12.1203 17.0079 12.0576L24.0669 4.05905ZM25.9423 5.27274L25.1827 4.94778L18.2412 12.735C18.1238 13.0364 18.527 13.0873 18.7658 13.2753C19.7642 14.0622 20.5355 14.8413 20.9466 16.0824L27.3086 16.8263C27.4496 16.7989 28.17 15.6087 28.3696 15.3659C29.4228 14.1053 31.4117 12.731 32.9973 12.2769C34.3559 11.8854 35.7966 12.0028 37.0769 11.3373C37.2491 11.1102 34.1444 9.92391 33.933 9.7164C33.428 10.0883 33.0012 10.9653 32.2495 10.5973C31.6427 10.2998 32.0303 9.37579 32.5549 9.24267C32.7115 9.03126 31.7719 8.57319 31.6348 8.60059C31.2981 8.66324 30.4486 10.2371 29.8104 9.05866C29.4541 8.40092 30.3781 8.09554 30.1862 7.80582C30.1354 7.72752 29.415 7.36733 29.3171 7.3869C28.9608 7.45346 28.2443 9.03517 27.6062 7.84497C27.2577 7.19506 28.2209 6.70567 28.1465 6.59605C27.8489 6.56473 27.5631 6.20454 27.293 6.1693C26.7566 6.09491 26.3455 7.53176 25.5547 6.81921C24.7638 6.10666 26.1224 5.52331 25.9423 5.27665V5.27274ZM42.374 11.7797C41.9042 11.6035 38.5529 11.0906 38.408 11.2316C38.3845 11.255 38.3571 11.6701 38.2436 11.8971C37.7816 12.8328 36.286 13.056 35.3699 13.2165C35.2289 13.24 35.0214 13.2518 35.2015 13.4319C35.2681 13.4984 35.9728 13.6472 36.1333 13.6589C37.116 13.7255 38.3963 13.2948 39.3359 12.9934L42.3662 11.7797H42.374ZM43.3646 17.4018C42.6285 17.5192 41.912 17.7698 41.1799 17.9186C40.021 18.1535 38.3963 18.4824 37.2413 18.5098C36.2938 18.5333 35.9337 17.715 36.7402 17.2256C38.1457 17.022 39.5669 16.8772 40.9568 16.5914C41.5362 16.4739 43.5956 16.0237 43.9714 15.7457C44.2768 15.5225 44.4725 14.7356 44.4725 14.3637C44.4725 13.9917 44.2455 12.7937 43.8579 12.7585C41.4305 13.4319 37.5036 15.7026 35.0175 14.7708C34.3676 14.5281 33.6825 13.5571 33.4906 13.5337C32.5666 13.4397 29.274 15.9062 28.9177 16.9516C30.0688 17.0729 31.2394 17.206 32.3944 17.2843C32.9777 17.3235 34.5634 17.1042 34.8805 17.5545C35.1467 17.9303 34.951 18.5215 34.4851 18.6077C33.9604 18.7055 32.6606 18.6351 32.0616 18.6077C26.2672 18.361 19.8895 17.3509 14.099 16.6109C10.5245 16.1529 6.95782 15.5852 3.38331 15.1232C3.24236 15.1467 3.20321 15.2759 3.14057 15.3816C3.00745 15.6087 2.11872 17.7581 2.11872 17.8951C2.11872 18.1183 3.05444 18.5607 3.30892 18.686C5.29389 19.6608 8.12844 20.2481 10.3366 20.3695C19.0712 20.8628 28.2483 19.9975 37.026 20.3734C39.3202 20.1189 42.1195 19.5355 43.3606 17.394L43.3646 17.4018Z" fill="black"/>
<path d="M22.7159 4.41523C23.2679 4.96727 22.3322 6.1144 21.6979 5.37835C21.0637 4.64231 22.203 3.90235 22.7159 4.41523Z" fill="black"/>
</g>
<defs>
<clipPath id="clip0_783_8750">
<rect width="45.1962" height="21.772" fill="white" transform="translate(0.591797 0.0891113)"/>
</clipPath>
</defs>
</svg>
